<svg width="500" height="500" viewBox="0 0 500 500" fill="none" xmlns="http://www.w3.org/2000/svg">
<g clip-path="url(#clip0)">
<path d="M317.756 69.2149C328.388 42.5648 348.445 31.5181 375.682 37.4557C386.041 39.6433 395.922 43.6775 404.852 49.3654C426.6 63.1737 428.568 87.8561 421.56 108.983C419.144 116.37 402.367 120.306 394.668 115.887C389.421 112.78 384.657 108.983 379.548 105.531C376.804 103.784 373.93 102.249 370.953 100.94C370.189 100.648 369.346 100.637 368.574 100.909C367.803 101.181 367.153 101.718 366.741 102.424C365.74 104.288 367.155 105.427 368.709 106.049C372.407 107.719 376.014 109.586 379.514 111.641C400.502 123.067 412.378 142.917 425.047 161.696C433.399 174.703 440.85 188.267 447.347 202.293C457.496 223.005 457.462 245.789 457.98 268.089C458.636 296.742 453.147 324.945 446.933 352.666C441.237 378.107 430.984 402.134 411.066 420.741C401.469 429.751 401.952 430.545 407.614 442.938C412.343 453.294 416.693 463.892 421.664 474.006C423.942 478.667 423.183 481.601 418.971 484.19C414.76 486.779 411.687 489.472 407.752 491.543C399.985 495.547 394.392 493.925 389.18 486.779C383.415 478.908 377.615 471.038 371.712 463.236C368.053 458.368 364.532 456.953 357.386 458.817C340.471 463.201 324.142 469.588 306.882 472.626C292.86 475.09 278.6 475.924 264.387 475.111C252.201 474.455 240.015 474.041 227.76 474.352C203.388 474.938 180.259 468.138 157.2 461.406C152.068 460.085 147.01 458.494 142.045 456.642C138.857 455.131 135.204 454.928 131.869 456.076C128.533 457.225 125.779 459.634 124.198 462.787C119.261 470.692 112.253 476.941 108.214 485.709C102.795 497.446 89.6077 500.242 78.4229 494.028C72.5544 490.749 71.5188 486.399 73.4519 480.703C75.6209 474.504 78.7421 468.681 82.7035 463.443C87.5863 456.381 91.0993 448.465 93.0598 440.107C93.9918 437.419 94.1124 434.516 93.4065 431.76C92.7006 429.004 91.1994 426.516 89.0899 424.607C81.7715 417.496 76.4207 408.727 70.207 400.684C64.918 393.931 61.1287 386.129 59.0913 377.797C56.1048 366.05 52.4981 354.469 48.2862 343.103C40.0012 320.078 42.7284 296.362 44.2818 272.888C45.1794 259.528 47.009 246.169 47.3196 232.74C47.6588 214.348 53.1222 196.416 63.0957 180.959C68.2623 173.201 72.3067 164.752 75.1089 155.862C79.1795 143.424 85.9455 132.037 94.9239 122.515C102.691 113.781 113.565 109.708 123.852 104.944C129.03 102.562 134.416 100.629 139.594 98.2469C144.772 95.865 142.701 91.8606 141.113 87.8907C140.924 86.9704 140.489 86.1187 139.854 85.4268C139.219 84.7348 138.407 84.2288 137.506 83.9628C136.605 83.6968 135.649 83.6808 134.74 83.9167C133.831 84.1525 133.003 84.6312 132.344 85.3016C124.613 91.2417 116.113 96.1073 107.075 99.7658C105.471 100.561 103.711 100.992 101.92 101.028C100.13 101.064 98.3538 100.704 96.719 99.973C94.8549 99.0064 92.8181 98.0053 93.2669 95.5888C94.3716 91.2047 92.1967 87.5455 90.954 83.7827C88.6158 77.1746 88.1752 70.0436 89.6822 63.198C91.1892 56.3523 94.5836 50.0656 99.4806 45.0503C107.169 36.542 116.811 30.0315 127.576 26.0802C138.341 22.129 149.906 20.8557 161.273 22.3701C162.461 22.4601 163.626 22.7398 164.725 23.1986C177.705 29.6885 188.89 38.2842 195.794 51.3676C201.317 61.7239 198.832 66.4187 186.818 68.9732C179.638 70.4921 172.458 71.942 165.381 73.8407C162.55 74.6001 157.855 74.8073 158.477 79.1224C159.098 83.4375 161.411 87.8216 167.211 87.58C169.641 87.4403 172.061 87.1637 174.46 86.7515C193.032 84.0588 211.708 82.9197 230.418 81.7459C235.079 81.4698 240.084 81.5733 240.567 75.6012C240.982 70.4576 244.019 63.9677 236.252 61.137C232.006 59.5836 231.281 56.097 231.316 52.2651C230.901 46.5797 231.604 40.8681 233.387 35.4535C235.177 31.7652 236.086 27.7121 236.045 23.6128C234.837 11.8412 240.878 7.18091 251.2 4.10855C254.826 2.82584 258.683 2.32868 262.516 2.65007C266.349 2.97145 270.069 4.10402 273.431 5.97268C275.83 7.10071 277.89 8.83943 279.404 11.0146C280.919 13.1897 281.835 15.7248 282.061 18.3657C282.988 25.2587 282.766 32.2575 281.406 39.0782C280.335 43.8075 278.713 48.5024 280.439 53.4734C281.682 56.9255 279.714 59.5145 277.781 62.2762C270.462 72.8396 273.776 81.1246 286.031 83.4375C288.44 83.8229 290.876 84.0191 293.315 84.0243C311.37 84.6457 329.044 86.786 345.096 95.934C346.499 96.7595 348.009 97.3868 349.584 97.7981C350.555 98.129 351.613 98.0941 352.56 97.7C353.507 97.3059 354.278 96.5798 354.728 95.6578C354.983 95.2052 355.132 94.7008 355.165 94.1824C355.197 93.664 355.113 93.1449 354.917 92.6638C354.721 92.1826 354.419 91.7519 354.034 91.4036C353.649 91.0553 353.19 90.7985 352.691 90.6523C341.506 84.8183 332.98 74.6692 320.449 71.1135C319.473 70.5999 318.568 69.9617 317.756 69.2149ZM446.898 267.779C446.484 259.632 446.346 251.485 445.552 243.373C444.448 231.635 443.446 219.622 438.096 208.852C427.394 187.414 416.796 165.908 401.814 146.714C392.286 134.632 381.689 123.62 368.225 117.061C344.061 105.393 320.518 92.1712 292.59 91.2047C280.025 90.7904 267.494 88.443 254.928 88.0287C246.885 87.7526 238.738 89.9964 230.763 90.1C196.829 90.1092 163.279 97.285 132.31 111.158C121.954 115.887 111.252 120.375 103.934 129.73C87.8923 151.181 74.0161 174.169 62.5088 198.357C61.2804 200.924 60.4871 203.677 60.1614 206.504C58.1375 218.963 57.2823 231.583 57.6069 244.201C57.7147 251.521 57.1485 258.836 55.9153 266.053C52.8085 291.564 51.1515 317.109 60.0233 341.999C62.8318 349.64 65.2174 357.431 67.1691 365.335C71.07 381.18 79.0098 394.263 88.6756 407.347C103.301 427.698 124.733 442.137 149.087 448.047C159.443 450.636 169.523 453.605 179.638 456.746C198.638 462.971 218.582 465.821 238.565 465.169C247.103 464.616 255.672 464.789 264.18 465.687C299.115 469.898 331.737 459.956 362.599 446.562C399.501 430.545 422.872 400.511 435.092 362.021C440.305 345.623 440.409 328.328 444.033 311.62C446.93 297.198 447.894 282.455 446.898 267.779V267.779ZM99.5497 72.9431C99.4979 73.7593 99.4979 74.5779 99.5497 75.3941C101.552 86.9931 102.277 90.2381 114.635 84.1969C132.759 75.2905 151.02 65.9354 171.18 62.3797C173.184 61.975 175.139 61.3617 177.014 60.5501C183.573 57.892 184.229 56.4076 180.052 51.0224C171.353 39.7341 160.824 29.723 145.428 32.3466C128.167 35.2809 111.183 40.5971 102.76 58.8241C100.593 63.2119 99.4929 68.0496 99.5497 72.9431V72.9431ZM408.891 108.154C414.656 91.5153 414.38 77.9141 403.644 65.314C396.153 56.5112 386.073 52.783 375.751 48.8821C360.734 43.2207 347.927 47.5013 336.018 56.5457C329.873 61.1715 330.218 63.0356 336.846 66.4187C341.161 68.5935 345.407 70.9754 349.584 73.4955C368.605 84.9909 388.662 94.4841 408.891 108.154ZM271.291 32.8989C271.837 28.9943 271.626 25.0212 270.67 21.1964C269.756 18.3208 267.891 15.8417 265.382 14.1666C262.872 12.4915 259.867 11.7201 256.861 11.9793C249.957 12.2555 249.957 17.5026 249.06 22.3356C248.214 25.8876 248.214 29.5885 249.06 33.1406C249.743 35.0184 249.869 37.0541 249.422 39.0019C248.975 40.9498 247.974 42.7267 246.539 44.1182C242.19 48.9857 243.26 51.3676 249.543 52.921C253.364 53.7673 257.356 53.3681 260.935 51.7818C270.808 47.8119 271.291 40.2864 271.291 32.8989ZM122.333 451.878C118.674 446.873 113.531 446.217 109.25 444.077C107.317 443.11 105.004 443.041 104.141 445.458C100.309 456.263 92.1277 464.858 88.9173 475.94C88.2269 478.252 86.9496 480.807 89.366 482.671C91.7825 484.535 93.9228 482.878 95.925 481.463C107.075 473.523 113.6 461.717 122.333 451.878ZM389.421 442.075C383.863 442.558 377.753 450.567 380.515 453.915C387.212 461.959 391.941 471.762 400.917 477.873C402.539 478.977 404.369 480.393 406.267 478.563C407.648 477.286 407.027 475.525 406.647 473.972C403.989 463.616 398.121 454.744 393.805 445.147C392.942 443.248 391.527 441.867 389.421 442.075ZM64.5455 269.263C62.4418 252.527 64.2135 235.531 69.7237 219.588C80.3906 190.141 94.9929 163.215 120.745 143.883C125.647 140.224 130.446 136.427 135.175 132.561C148.717 121.902 165.313 115.854 182.538 115.3C193.092 114.485 203.577 112.939 213.917 110.674C233.629 106.601 253.651 107.602 273.535 108.741C289.837 109.245 305.964 112.261 321.346 117.682C351.276 129.074 377.615 145.057 394.496 173.537C402.781 187.345 412.516 200.567 418.868 215.687C433.036 248.028 435.478 284.3 425.772 318.248C422.923 330.551 419.019 342.586 414.104 354.219C413.595 355.341 413.157 356.494 412.792 357.671C411.307 362.193 414.104 367.026 410.548 371.721C400.813 384.632 396.74 401.34 383.518 412.076C381.883 413.865 380.04 415.453 378.029 416.805C362.944 423.709 348.756 432.547 333.152 438.692C316.097 445.336 298.187 449.532 279.956 451.154C269.076 452.275 258.11 452.275 247.23 451.154C231.109 449.358 214.746 449.497 198.555 447.701C181.457 446.234 165.149 439.843 151.607 429.302C142.77 422.191 133.553 415.494 124.508 408.589C105.66 394.125 92.2313 375.484 79.6312 355.841C72.7764 345.117 68.5646 332.919 67.3417 320.25C65.7193 303.784 62.6814 287.11 64.5455 269.263ZM247.506 116.785C227.346 116.785 207.98 122.204 188.199 124.724C173.355 126.589 159.305 128.867 146.533 138.809C127.235 153.895 106.523 167.047 99.6187 192.696C98.8632 194.587 97.9509 196.411 96.8916 198.15C88.8482 215.411 79.6312 232.395 77.9396 251.934C76.4936 266.862 76.5746 281.899 78.1813 296.811C81.3917 324.738 90.3326 349.041 109.699 370.444C132.344 395.506 158.58 412.801 191.41 420.637C219.221 426.85 247.596 430.193 276.089 430.614C287.087 430.57 298.035 429.143 308.677 426.368C323.901 422.916 337.674 415.632 352.38 410.868C369.91 405.104 384.492 392.715 393.011 376.347C403.206 356.851 410.598 336.013 414.967 314.451C422.147 283.382 421.664 252.935 409.754 223.281C401.676 203.156 389.318 185.309 376.925 167.634C368.942 156.872 358.838 147.861 347.237 141.156C316.41 122.481 282.303 118.234 247.506 116.923V116.785ZM262.281 264.223C264.997 264.147 267.681 264.826 270.034 266.185C272.387 267.544 274.316 269.53 275.606 271.921C276.856 274.076 277.338 276.59 276.974 279.054C276.611 281.518 275.423 283.786 273.604 285.488C268.771 290.942 263.696 296.673 255.135 295.154C251.674 294.646 248.501 292.937 246.172 290.326C243.843 287.716 242.506 284.369 242.395 280.872C242.284 277.376 243.406 273.951 245.564 271.198C247.723 268.445 250.781 266.538 254.203 265.811C256.965 265.259 259.795 264.845 262.281 264.361V264.223ZM259.692 283.072C264.076 284.59 266.354 282.347 267.356 278.411C267.356 277.721 266.285 275.995 265.491 275.822C261.763 275.028 261.176 278.446 259.761 280.655C259.416 281.035 259.692 281.967 259.692 283.072ZM241.499 422.916C246.16 425.194 249.957 422.052 253.651 419.463C257.076 417.307 259.725 414.115 261.211 410.35C261.945 408.251 262.025 405.978 261.439 403.833C260.854 401.688 259.63 399.771 257.931 398.337C256.596 396.861 254.794 395.888 252.828 395.581C250.862 395.273 248.849 395.649 247.126 396.645C239.877 399.717 238.565 401.892 238.841 412.801C239.704 415.494 236.77 420.465 241.499 422.777V422.916ZM258 134.528C256.205 125.449 248.542 122.342 240.74 127.417C234.595 131.421 234.146 135.357 238.669 145.402C240.913 150.408 249.025 155.517 253.133 154.067C259.209 151.927 258.277 146.645 258 141.812C258.252 139.345 258.252 136.858 258 134.39V134.528ZM115.947 274.062C116.189 265.811 113.772 263.326 104.175 262.359C100.965 262.048 97.6856 262.048 94.4406 262.014C90.0219 262.014 88.1923 265.466 86.5353 268.573C84.4641 272.508 86.777 275.477 89.4006 278.308C93.0943 282.139 97.9963 282.45 102.933 282.45C113.047 282.588 115.671 280.931 115.947 274.062ZM397.706 287.076C403.402 286.317 408.442 284.073 408.546 277.721C408.718 270.817 403.195 269.608 397.603 269.022C394.874 268.25 392.006 268.108 389.214 268.607C384.899 270.161 380.929 272.612 380.342 277.548C379.755 282.485 383.138 284.901 387.005 286.627C388.784 287.252 390.624 287.692 392.494 287.939C394.461 287.594 396.049 287.283 397.637 287.076H397.706ZM163.241 377.175C159.064 376.45 154.576 380.938 154.438 386.496C154.438 391.018 155.266 395.506 160.341 397.094C163.793 398.164 171.077 390.777 171.526 386.22C171.767 383.182 166.969 377.831 163.172 377.175H163.241ZM165.864 146.162C164.207 151.478 167.211 155.379 170.456 158.969C171.114 159.867 171.948 160.621 172.906 161.187C173.865 161.753 174.929 162.118 176.033 162.26C177.137 162.402 178.258 162.318 179.329 162.013C180.4 161.709 181.398 161.19 182.262 160.488C182.706 160.135 183.069 159.69 183.325 159.183C183.581 158.677 183.725 158.121 183.746 157.554C183.746 154.654 171.664 144.436 168.384 144.505C167.728 144.988 166.071 145.333 165.795 146.162H165.864ZM127.201 331.401C125.492 330.695 123.622 330.474 121.795 330.76C119.969 331.046 118.256 331.829 116.845 333.023C115.265 333.949 114.003 335.332 113.227 336.99C112.45 338.648 112.195 340.503 112.495 342.309C112.573 343.113 112.93 343.864 113.504 344.431C114.077 344.999 114.832 345.347 115.636 345.416C120.159 346.279 128.996 339.789 129.445 335.06C129.488 334.294 129.297 333.533 128.896 332.879C128.495 332.225 127.903 331.709 127.201 331.401V331.401ZM332.634 395.644C332.666 394.619 332.482 393.599 332.096 392.649C331.709 391.699 331.128 390.841 330.39 390.129C329.652 389.417 328.773 388.867 327.81 388.515C326.847 388.163 325.821 388.016 324.798 388.084C322.739 387.941 320.708 388.621 319.148 389.973C317.589 391.325 316.629 393.24 316.479 395.299C316.479 401.029 320.863 401.098 325.109 400.891C328.837 400.995 333.083 401.064 332.634 395.748V395.644ZM375.544 340.963C374.992 345.244 382.448 352.32 386.452 351.63C387.052 351.553 387.609 351.282 388.039 350.858C388.469 350.434 388.749 349.88 388.834 349.283C389.49 345.071 382.621 337.338 378.478 337.787C377.713 337.931 377.014 338.318 376.486 338.89C375.957 339.462 375.627 340.189 375.544 340.963V340.963ZM110.976 200.429C110.884 202.282 111.425 204.112 112.511 205.617C113.596 207.123 115.161 208.215 116.948 208.714C120.4 209.577 122.886 206.297 123.196 202.845C123.611 198.53 120.78 196.321 116.292 195.458C113.634 195.803 111.011 196.769 110.976 200.429ZM323.072 156C322.796 158.624 324.211 160.937 327.146 160.419C328.739 160.271 330.238 159.597 331.407 158.503C332.576 157.409 333.348 155.958 333.601 154.378C334.05 151.305 331.461 150.581 328.665 149.752C327.155 149.989 325.774 150.741 324.755 151.879C323.736 153.018 323.141 154.474 323.072 156V156ZM387.005 213.27C386.512 212.935 385.954 212.709 385.367 212.606C384.78 212.503 384.178 212.525 383.6 212.672C383.023 212.819 382.483 213.087 382.016 213.458C381.55 213.829 381.168 214.294 380.895 214.824C379.514 217.447 380.895 219.381 383.725 220.036C384.832 220.51 386.078 220.538 387.204 220.113C388.33 219.688 389.249 218.844 389.766 217.758C390.284 215.411 388.834 214.03 387.005 213.27Z" fill="#231F20"/>
<path d="M90.2635 500C85.6352 499.987 81.0859 498.799 77.042 496.548C74.0767 495.155 71.7837 492.644 70.6645 489.565C69.5454 486.486 69.6911 483.088 71.0699 480.116C73.3137 473.697 76.5394 467.665 80.6322 462.234C85.2847 455.435 88.6218 447.824 90.4706 439.796C91.2899 437.55 91.4187 435.111 90.8405 432.792C90.2622 430.473 89.0033 428.38 87.2257 426.782C82.136 421.596 77.5152 415.97 73.4173 409.97C71.6222 407.484 69.9652 404.999 67.963 402.582C62.4743 395.532 58.5338 387.404 56.3986 378.729C53.5776 366.962 50.1204 355.358 46.0423 343.966C38.1715 322.598 39.725 300.608 41.2439 279.309L41.7272 272.715C42.0724 267.606 42.5212 262.359 43.0045 257.388C43.7639 249.275 44.5579 240.921 44.7305 232.705C45.0969 213.816 50.7019 195.4 60.9208 179.509C65.9471 171.95 69.8865 163.723 72.6234 155.068C76.793 142.286 83.7497 130.589 92.9907 120.823C100.102 112.814 109.561 108.568 118.674 104.495L122.851 102.493C125.44 101.284 128.098 100.214 130.722 99.0406C133.346 97.8669 136.004 96.8658 138.558 95.5885C141.113 94.3113 141.009 93.897 139.318 89.8581L138.8 88.6498C138.247 87.3035 137.557 86.4405 136.867 86.2334C136.332 86.1814 135.792 86.2404 135.281 86.4067C134.77 86.573 134.299 86.8431 133.898 87.2C125.995 93.293 117.296 98.2757 108.042 102.009C106.077 102.935 103.931 103.415 101.759 103.415C99.5867 103.415 97.4412 102.935 95.4762 102.009C93.543 101.008 89.7457 99.0751 90.8504 94.691C91.2571 92.0171 90.7974 89.2832 89.5386 86.8893C89.1934 86.0263 88.8827 85.1632 88.6065 84.3347C86.0901 77.2723 85.607 69.6452 87.2121 62.3217C88.8172 54.9982 92.446 48.2723 97.6855 42.9097C105.663 34.1262 115.647 27.4035 126.786 23.3158C137.925 19.2282 149.888 17.8968 161.653 19.4355C163.178 19.5198 164.676 19.8825 166.071 20.5057C181.537 28.6526 191.893 37.9732 198.21 50.1591C201.421 56.2348 202.111 60.5153 200.454 63.9674C198.797 67.4195 194.758 69.905 187.474 71.4239L185.368 71.8727C179.051 73.219 172.527 74.5653 166.209 76.2914L164.656 76.6366C161.204 77.4306 161.204 77.8103 161.204 78.6388C162.205 85.1287 166.037 84.9906 167.28 84.9216C169.408 84.8037 171.528 84.5732 173.631 84.2312H174.287C192.652 81.5385 211.397 80.3993 229.521 79.2602H231.316C236.563 78.9495 237.909 78.5007 238.22 75.5319C238.22 74.4618 238.496 73.3571 238.703 72.2524C239.532 67.385 239.739 65.3483 235.631 63.6913C233.419 62.8245 231.561 61.2419 230.353 59.1959C229.146 57.1499 228.658 54.7584 228.968 52.4029V50.9185C228.602 45.36 229.353 39.7845 231.178 34.5211C232.808 31.2396 233.647 27.6219 233.629 23.9578C232.144 9.14831 241.396 4.38444 250.578 1.62277C254.524 0.230858 258.721 -0.301352 262.888 0.061835C267.056 0.425021 271.098 1.67521 274.743 3.72854C277.515 5.03915 279.893 7.0562 281.638 9.57701C283.383 12.0978 284.434 15.0336 284.685 18.0892C285.653 25.2465 285.42 32.5152 283.995 39.5957L283.511 41.6324C282.252 45.1458 282.059 48.9532 282.959 52.5755C283.479 54.4314 283.507 56.3905 283.041 58.2606C282.575 60.1307 281.631 61.8475 280.301 63.2425L279.99 63.7258C276.918 68.1444 275.882 72.1834 277.09 75.0831C278.575 78.5352 283.062 80.1922 286.584 80.8481C288.743 81.1809 290.923 81.3654 293.108 81.4005H293.488C310.921 82.0218 329.389 83.9205 346.512 93.6554C347.698 94.3576 348.976 94.8921 350.309 95.2433C351.966 95.623 352.346 94.8636 352.553 94.4839C352.76 94.1041 353.002 93.6208 351.621 92.9304C347.133 90.4314 342.85 87.5803 338.814 84.4038C333.208 79.6683 326.786 75.995 319.862 73.5642C318.797 73.2052 317.812 72.6424 316.962 71.9072L316.237 71.3549L314.476 70.2157L315.27 68.248C326.524 40.1826 347.616 28.6526 376.269 34.9354C386.922 37.1898 397.083 41.3407 406.267 47.1903C426.117 59.963 432.779 83.3681 424.011 109.811C423.1 111.861 421.744 113.683 420.043 115.146C418.341 116.609 416.336 117.675 414.173 118.269C408.373 120.444 399.674 121.341 393.909 118.269C406.095 128.625 414.932 141.812 423.562 154.688L427.014 160.143C435.008 172.571 442.136 185.536 448.348 198.944L449.418 201.153C459.326 221.348 459.775 243.303 460.258 264.534V267.986C460.948 297.743 454.873 327.569 449.142 353.183C442.445 383.113 430.467 405.793 412.55 422.605C404.369 430.268 404.369 430.268 409.512 441.557C411.411 445.734 412.964 449.634 414.829 453.535C417.659 459.956 420.559 466.584 423.666 472.936C424.407 474.039 424.902 475.289 425.118 476.6C425.335 477.911 425.267 479.253 424.92 480.536C424.573 481.819 423.955 483.012 423.108 484.036C422.26 485.059 421.202 485.889 420.007 486.468C418.522 487.366 417.107 488.367 415.657 489.402C413.451 491.039 411.145 492.538 408.753 493.89C399.95 498.447 393.011 496.686 386.901 488.401C380.791 480.116 375.371 472.66 369.641 464.893C366.776 461.095 364.428 459.714 358.007 461.441C351.586 463.167 345.373 464.893 339.228 466.929C328.764 470.387 318.1 473.212 307.296 475.387C293.081 477.889 278.624 478.735 264.214 477.907C249.543 477.113 238.323 476.871 227.795 477.148C203.147 477.734 179.465 470.865 156.82 464.202H156.44L152.988 463.201C148.909 462.073 144.898 460.713 140.975 459.128C139.672 458.488 138.255 458.115 136.807 458.032C135.358 457.948 133.907 458.156 132.54 458.641C131.173 459.127 129.917 459.882 128.846 460.86C127.775 461.839 126.91 463.022 126.303 464.34C124.184 467.589 121.879 470.713 119.399 473.695C115.882 477.74 112.879 482.204 110.458 486.986C109.221 489.769 107.419 492.265 105.167 494.315C102.915 496.365 100.261 497.925 97.3748 498.896C95.0756 499.629 92.6768 500.001 90.2635 500ZM136.314 81.1933C136.968 81.2026 137.618 81.2954 138.247 81.4695C139.497 81.902 140.628 82.6203 141.551 83.5672C142.474 84.5141 143.163 85.6635 143.564 86.9238L144.047 88.0285C145.393 91.2044 147.913 97.142 140.595 100.49C137.971 101.699 135.244 102.803 132.552 103.943C129.859 105.082 127.408 106.048 124.888 107.222L120.745 109.121C111.701 113.16 103.174 116.991 96.788 124.137C88.0471 133.383 81.4679 144.455 77.5253 156.552C74.6638 165.656 70.5386 174.313 65.2704 182.27C55.5164 197.345 50.1936 214.856 49.9086 232.809C49.736 241.197 48.942 249.69 48.1826 257.871C47.6993 262.946 47.216 268.02 46.8708 273.06L46.422 279.619C44.9376 300.332 43.4532 321.873 50.7026 342.24C54.9004 353.796 58.4614 365.574 61.3696 377.52C63.3232 385.487 66.9474 392.947 72.002 399.407C73.9006 401.892 75.7302 404.412 77.5598 406.932C81.446 412.674 85.8236 418.068 90.6432 423.053C93.0711 425.282 94.798 428.17 95.6132 431.363C96.4285 434.557 96.2969 437.919 95.2345 441.039C93.2182 449.683 89.6128 457.877 84.6021 465.203C80.7942 470.177 77.7996 475.723 75.7302 481.635C74.1078 486.71 75.1434 489.471 79.4585 491.992C81.8725 493.425 84.556 494.345 87.3415 494.696C90.1271 495.046 92.9549 494.819 95.6488 494.028C97.8662 493.292 99.9037 492.097 101.629 490.52C103.353 488.944 104.727 487.022 105.66 484.88C108.249 479.713 111.473 474.888 115.257 470.52C117.619 467.697 119.809 464.734 121.816 461.648C123.718 457.971 126.967 455.171 130.884 453.833C134.802 452.495 139.085 452.722 142.839 454.467C146.541 455.899 150.322 457.121 154.162 458.127L157.614 459.162H157.993C180.397 465.721 203.595 472.487 227.38 471.9C238.047 471.624 249.405 471.9 264.214 472.66C278.22 473.493 292.275 472.671 306.088 470.209C316.695 468.086 327.162 465.319 337.433 461.924C343.612 460.025 350.033 458.023 356.419 456.366C364.221 454.329 369.019 455.848 373.473 461.751C379.376 469.553 385.175 477.424 390.94 485.329C395.497 491.508 399.777 492.647 406.233 489.299C408.488 488.067 410.656 486.683 412.723 485.156C414.242 484.086 415.726 483.016 417.314 482.049C420.386 480.185 420.766 478.597 419.04 475.145C415.899 468.69 412.964 461.993 410.134 455.537C408.408 451.671 406.682 447.77 404.956 443.938C398.88 430.613 398.535 428.577 409.029 418.773C426.289 402.686 437.681 380.8 444.137 352.009C449.798 326.671 455.77 297.19 455.114 268.055V264.603C454.666 243.89 454.182 222.556 444.758 203.397L443.688 201.188C437.586 187.996 430.585 175.24 422.734 163.008L419.075 157.553C408.166 140.983 396.705 123.827 378.306 113.919L376.165 112.745C373.444 111.155 370.631 109.726 367.742 108.465C366.919 108.188 366.165 107.736 365.534 107.14C364.902 106.544 364.407 105.818 364.083 105.013C363.864 104.366 363.787 103.679 363.859 103C363.93 102.32 364.148 101.664 364.497 101.077C365.197 99.7708 366.366 98.7775 367.768 98.2973C369.171 97.817 370.703 97.8852 372.057 98.4883C375.159 99.8361 378.149 101.429 380.998 103.252C383.138 104.668 385.244 106.152 387.315 107.671C390.146 109.673 393.046 111.779 396.015 113.539C398.606 114.624 401.387 115.182 404.196 115.182C407.005 115.182 409.786 114.624 412.378 113.539C413.825 113.181 415.184 112.531 416.372 111.629C417.559 110.727 418.549 109.591 419.282 108.292C427.256 84.1276 421.388 63.0699 403.644 51.678C394.976 46.1369 385.372 42.2184 375.302 40.1135C350.102 34.5902 331.392 44.3596 321.104 68.4206L321.553 68.6968C329.117 71.2614 336.14 75.2059 342.266 80.3303C346.01 83.3048 349.98 85.9826 354.141 88.3391C354.919 88.6478 355.625 89.1148 356.213 89.7107C356.802 90.3066 357.26 91.0182 357.558 91.8005C357.857 92.5828 357.99 93.4187 357.948 94.255C357.907 95.0913 357.692 95.9099 357.317 96.6587C356.58 98.0823 355.372 99.2053 353.898 99.8351C352.424 100.465 350.777 100.562 349.239 100.111C347.41 99.6431 345.656 98.9228 344.026 97.9705C327.905 88.7879 310.161 86.9928 293.419 86.406H293.004C290.565 86.3676 288.131 86.1599 285.721 85.7846C277.056 84.1621 273.707 80.0196 272.396 76.8782C271.084 73.7368 270.6 68.179 275.848 60.6189L276.193 60.1011C277.988 57.5465 278.92 56.0967 278.23 54.0945C276.966 49.558 277.099 44.7463 278.609 40.2861L279.058 38.3184C280.374 31.7949 280.584 25.0966 279.679 18.5035C279.501 16.2839 278.732 14.1527 277.451 12.3314C276.17 10.5101 274.424 9.06527 272.396 8.14721C269.341 6.43361 265.953 5.39859 262.462 5.11265C258.971 4.82671 255.459 5.29656 252.166 6.49021C241.361 9.66613 237.875 14.0848 238.841 23.2673C238.937 27.7791 237.967 32.2498 236.011 36.3162C234.434 40.9424 233.789 45.8348 234.112 50.7114V52.1958C234.112 56.0276 234.94 57.7192 237.357 58.5822C245.711 61.62 244.537 68.3861 243.778 72.8738C243.605 73.8404 243.433 74.807 243.363 75.7045C242.708 83.5408 236.045 83.9205 231.661 84.1966H229.9C211.846 85.3013 193.205 86.475 175.047 89.0986H174.425C172.142 89.494 169.836 89.7477 167.521 89.8581C161.446 90.1342 157.165 86.1989 156.164 79.1911C155.232 73.15 161.1 71.8727 163.62 71.3549L164.932 71.0442C171.388 69.3182 177.981 67.9028 184.367 66.5565L186.473 66.1077C191.858 64.9685 194.931 63.4841 195.828 61.5164C196.726 59.5488 196.001 56.649 193.688 52.2649C187.716 41.4253 178.085 32.7951 163.689 25.5112C162.834 25.2007 161.939 25.0147 161.031 24.9589C150.064 23.443 138.893 24.6427 128.498 28.4527C118.104 32.2627 108.803 38.5665 101.414 46.8106C96.8728 51.4872 93.7222 57.3346 92.3139 63.6992C90.9057 70.0637 91.2954 76.6946 93.4394 82.8503C93.6811 83.6098 93.9918 84.3693 94.3024 85.1632C95.9864 88.536 96.5199 92.3673 95.8214 96.0718C95.8214 96.5896 97.0641 97.1765 97.6855 97.4527C99.0239 98.0695 100.487 98.3686 101.96 98.3267C103.433 98.2848 104.876 97.903 106.178 97.211C114.998 93.6347 123.291 88.873 130.826 83.0575C132.416 81.879 134.335 81.2273 136.314 81.1933V81.1933ZM369.192 103.321L369.71 103.563C372.765 104.917 375.749 106.427 378.651 108.085L379.963 108.81L378.306 107.602C375.679 105.919 372.92 104.453 370.055 103.218C369.926 103.119 369.764 103.074 369.602 103.093C369.441 103.113 369.294 103.195 369.192 103.321V103.321ZM91.5063 486.261C90.1475 486.244 88.834 485.77 87.778 484.915C86.5399 483.886 85.7002 482.457 85.4039 480.875C85.1076 479.293 85.3735 477.657 86.1555 476.25L86.3972 475.387C88.4034 469.426 91.1769 463.751 94.6477 458.506C97.418 454.153 99.7317 449.526 101.552 444.698C101.778 443.932 102.17 443.225 102.702 442.628C103.233 442.031 103.889 441.559 104.624 441.246C105.551 440.925 106.535 440.806 107.511 440.895C108.487 440.984 109.433 441.28 110.286 441.764C111.409 442.3 112.561 442.773 113.738 443.179C117.944 444.404 121.662 446.915 124.37 450.359L125.578 452.051L124.198 453.604C121.367 456.78 118.743 460.232 116.154 463.615C110.941 471.179 104.609 477.907 97.3748 483.568C95.715 484.977 93.6706 485.855 91.5063 486.088V486.261ZM106.868 446.217H106.695C104.663 451.444 102.107 456.452 99.0663 461.164C95.8414 466.033 93.2651 471.302 91.4027 476.837L91.092 477.838C90.3326 480.185 90.4706 480.427 91.092 480.807C91.7134 481.186 92.0931 481.29 94.5441 479.633C101.435 474.261 107.455 467.857 112.391 460.647C114.566 457.781 116.81 454.847 119.296 452.051C117.282 450.305 114.932 448.989 112.391 448.185C111.08 447.667 109.768 447.183 108.56 446.562C108.06 446.225 107.471 446.045 106.868 446.044V446.217ZM404.403 482.222C402.686 482.087 401.05 481.437 399.708 480.358C393.604 475.777 388.407 470.099 384.381 463.615C382.517 460.957 380.584 458.23 378.513 455.745C377.775 454.718 377.334 453.509 377.237 452.249C377.139 450.989 377.39 449.726 377.96 448.599C378.953 446.309 380.492 444.297 382.442 442.738C384.391 441.18 386.693 440.122 389.145 439.658C390.638 439.572 392.118 439.974 393.363 440.802C394.608 441.63 395.551 442.839 396.049 444.249C397.43 447.287 398.984 450.359 400.537 453.294C404.126 459.693 406.975 466.479 409.029 473.523V473.868C409.532 475.007 409.688 476.269 409.48 477.496C409.271 478.724 408.706 479.863 407.855 480.772C406.897 481.601 405.67 482.055 404.403 482.049V482.222ZM389.905 444.802H389.663C388.153 445.182 386.748 445.897 385.552 446.895C384.357 447.893 383.402 449.148 382.759 450.566C382.431 451.117 382.332 451.774 382.483 452.396C384.692 455.02 386.694 457.85 388.627 460.612C392.26 466.498 396.94 471.669 402.436 475.87C403.022 476.34 403.673 476.724 404.369 477.009C404.679 476.561 404.369 475.629 404.369 475.145V474.766C402.387 468.108 399.666 461.693 396.256 455.641C394.703 452.638 393.115 449.496 391.665 446.355C391.113 445.319 390.595 444.629 389.905 444.629V444.802ZM280.439 469.311C274.9 469.318 269.366 468.983 263.869 468.31C255.496 467.457 247.068 467.295 238.669 467.827C218.371 468.458 198.121 465.514 178.844 459.128C167.176 455.503 157.51 452.776 148.466 450.497C123.511 444.467 101.555 429.667 86.6043 408.796C77.9741 397.301 68.757 383.182 64.6145 365.921C62.7359 358.114 60.4311 350.416 57.7103 342.861C48.1481 316.556 50.3574 289.25 53.3262 265.811L53.8095 261.944C54.7417 256.136 55.1346 250.254 54.9832 244.373C54.6083 232.201 55.371 220.019 57.2616 207.988L57.4687 206.193C57.8577 203.069 58.7434 200.028 60.0923 197.183C71.7052 172.856 85.6845 149.73 101.828 128.142C109.077 118.89 119.33 114.333 129.238 109.708L131.171 108.845C162.443 94.8068 196.347 87.5929 230.625 87.6833C234.268 87.568 237.9 87.2221 241.499 86.6476C245.961 85.9216 250.477 85.5752 254.997 85.612C261.418 85.8191 267.839 86.5441 274.053 87.2345C280.266 87.9249 286.515 88.5808 292.694 88.7879C318.17 89.6509 340.298 100.594 361.735 111.157L369.399 114.92C384.588 122.308 395.808 135.046 403.92 145.299C418.626 164.043 429.258 185.308 439.545 205.848L440.478 207.781C445.863 218.552 447.002 230.427 448.107 241.922V243.131C448.659 248.792 448.866 254.557 449.108 260.149C449.108 262.635 449.315 265.155 449.453 267.64C450.437 282.514 449.45 297.453 446.519 312.069C445.069 318.731 444.171 325.67 443.308 332.367C442.298 342.636 440.357 352.793 437.509 362.711C424.322 404.308 399.536 433.272 363.6 449.013C341.127 458.575 312.233 469.139 280.439 469.139V469.311ZM249.37 462.407C254.457 462.381 259.54 462.657 264.594 463.236C301.6 467.689 335.914 455.468 361.701 444.284C396.222 429.371 420.007 401.443 432.71 361.434C435.457 351.805 437.34 341.95 438.337 331.987C439.2 325.083 440.098 318.179 441.582 311.275C444.446 297.117 445.398 282.638 444.413 268.227V268.227C444.413 265.707 444.171 263.187 444.068 260.667C443.861 255.178 443.619 249.482 443.101 243.925V242.716C442.066 231.704 440.995 220.312 436.197 210.405L435.23 208.472C425.081 188.139 414.518 167.047 400.192 148.82C392.459 138.981 381.758 126.795 367.535 119.891L359.837 116.094C338.917 105.738 317.307 95.1052 292.935 94.2767C286.549 94.0696 280.128 93.3792 273.914 92.6888C267.701 91.9984 261.452 91.3079 255.239 91.1008C251.007 91.0832 246.78 91.418 242.604 92.1019C238.799 92.7042 234.959 93.0617 231.109 93.1721C197.569 93.103 164.398 100.163 133.794 113.885L131.861 114.748C122.506 118.994 112.875 123.378 106.385 131.663C90.3226 152.864 76.3894 175.596 64.7871 199.531C63.6944 201.84 62.9833 204.312 62.6813 206.849L62.4742 208.644C60.6143 220.354 59.84 232.211 60.1613 244.063C60.3416 250.267 59.9254 256.475 58.9186 262.6L58.4353 266.363C55.6391 289.285 53.4298 315.901 62.4397 341.204C65.2567 348.943 67.6649 356.825 69.6546 364.817C73.5554 381.145 82.4963 394.643 90.7468 405.689C105.026 425.528 125.946 439.589 149.708 445.319C158.856 447.632 168.626 450.394 180.397 454.053C199.091 460.278 218.733 463.164 238.427 462.58C241.672 462.304 245.366 462.2 249.267 462.2L249.37 462.407ZM263.558 454.778C258.046 454.779 252.537 454.479 247.057 453.88C239.325 453.017 231.385 452.603 223.687 452.189C215.402 451.775 206.84 451.326 198.383 450.325C180.778 448.795 163.992 442.201 150.054 431.338C144.289 426.713 138.247 422.156 132.379 417.737C129.238 415.39 126.096 413.042 122.989 410.833C103.312 395.782 89.5731 376.312 77.6634 357.429C70.4723 346.324 66.0453 333.659 64.7526 320.492C64.4074 317.04 63.9931 313.277 63.5444 309.652C61.5232 296.289 60.9791 282.745 61.9219 269.263C59.8592 252.263 61.6889 235.017 67.2726 218.828C80.356 182.788 96.3737 159.072 119.054 141.95C123.956 138.256 128.789 134.494 133.38 130.696C146.463 120.029 162.412 114.195 182.227 112.883C192.677 112.053 203.057 110.508 213.296 108.258C234.008 104.012 254.997 105.22 273.604 106.29C290.169 106.776 306.562 109.803 322.209 115.265C358.076 129.074 381.723 147.025 396.671 172.19C399.122 176.367 401.78 180.544 404.334 184.583C410.803 194.115 416.439 204.187 421.18 214.685C435.495 247.598 437.935 284.46 428.085 318.973C427.429 321.389 426.738 323.806 426.082 326.257C423.721 336.239 420.439 345.982 416.278 355.358C415.812 356.363 415.419 357.402 415.105 358.465C414.73 359.988 414.625 361.565 414.794 363.125C415.341 366.684 414.501 370.317 412.447 373.274C408.919 378.243 405.791 383.483 403.091 388.947C398.362 397.888 393.495 407.139 385.003 414.078C384.382 414.594 383.794 415.147 383.242 415.735C382.037 417.136 380.586 418.306 378.961 419.187C373.058 421.949 367.19 425.021 361.494 427.99C352.526 432.857 343.308 437.247 333.877 441.142C316.612 447.873 298.482 452.127 280.025 453.777C274.432 454.295 268.874 454.571 263.455 454.571L263.558 454.778ZM246.539 110.467C235.768 110.325 225.011 111.285 214.435 113.332C203.981 115.628 193.381 117.197 182.71 118.027C165.978 118.488 149.836 124.308 136.66 134.632C131.999 138.463 127.132 142.295 122.161 146.023C100.344 162.594 84.8783 185.584 72.1401 220.623C66.7542 236.236 65.0298 252.878 67.1 269.263V269.815C66.1798 282.963 66.7123 296.172 68.688 309.204C69.1367 312.863 69.551 316.487 69.8962 320.112C71.17 332.33 75.3097 344.075 81.9785 354.391C93.6466 372.825 107.075 391.777 126.303 406.345C129.376 408.727 132.517 411.075 135.624 413.422C141.527 417.841 147.603 422.397 153.437 427.23C166.515 437.421 182.276 443.586 198.797 444.974C207.048 445.941 215.54 446.389 223.756 446.838C231.972 447.287 239.566 447.667 247.437 448.53C258.144 449.637 268.937 449.637 279.645 448.53C297.629 446.917 315.295 442.768 332.117 436.206C341.372 432.385 350.417 428.075 359.215 423.295C364.946 420.292 370.884 417.185 376.89 414.389C377.928 413.769 378.86 412.988 379.652 412.076C380.334 411.342 381.06 410.65 381.827 410.004C389.49 403.722 393.909 395.333 398.604 386.461C401.44 380.748 404.718 375.266 408.408 370.064C409.734 368.024 410.217 365.549 409.754 363.16C409.509 360.972 409.685 358.757 410.272 356.635C410.671 355.361 411.156 354.116 411.722 352.907C415.718 343.807 418.895 334.368 421.215 324.703C421.871 322.252 422.527 319.801 423.217 317.35C432.673 283.943 430.233 248.288 416.313 216.481C411.678 206.251 406.181 196.435 399.881 187.138C397.292 183.064 394.599 178.887 392.114 174.641C377.615 150.201 355.453 133.216 320.241 119.891C305.094 114.615 289.224 111.704 273.19 111.261C264.835 110.985 255.791 110.467 246.539 110.467ZM278.437 433.513H276.02C247.338 433.129 218.774 429.762 190.788 423.468C159.064 415.873 132.103 399.303 107.938 372.515C89.5386 352.148 79.3204 328.294 75.7993 297.432C74.0953 282.344 73.9449 267.121 75.3505 252.002C76.9039 234.535 84.2224 219.07 91.3337 204.122L94.5441 197.218C94.911 196.445 95.3261 195.695 95.7868 194.974C96.3331 194.104 96.7844 193.178 97.1332 192.212C103.45 168.669 121.298 155.137 138.282 142.088L144.945 136.945C157.959 126.795 172.078 124.31 187.888 122.342C194.793 121.445 201.697 120.202 208.359 118.89C221.248 116.204 234.347 114.656 247.506 114.264V114.264C280.922 115.507 316.272 119.373 348.307 138.843C360.31 145.763 370.739 155.11 378.927 166.287C390.491 182.754 403.575 201.395 412.032 222.453C423.493 250.932 425.219 281.138 417.383 315.176C412.93 334.369 406.82 356.842 395.152 377.762C386.317 394.716 371.221 407.558 353.071 413.56C347.375 415.39 341.679 417.668 336.156 419.912C327.454 423.711 318.461 426.804 309.264 429.164C299.178 431.736 288.84 433.194 278.437 433.513V433.513ZM247.126 119.511C234.357 119.882 221.648 121.408 209.153 124.068C202.249 125.276 195.345 126.554 188.441 127.52C172.872 129.488 159.996 131.766 148.017 141.122L141.32 146.265C124.059 159.383 107.904 171.776 102.035 193.628C101.585 195.053 100.946 196.411 100.136 197.667C99.7693 198.246 99.4351 198.845 99.1354 199.462L95.9249 206.366C89.0208 220.899 81.8749 235.95 80.3905 252.486C78.9964 267.258 79.1236 282.134 80.7703 296.88C84.2224 326.602 93.9572 349.524 111.632 369.063C135.037 394.988 161.342 411.144 191.996 418.462C219.643 424.674 247.86 427.994 276.193 428.37C286.972 428.324 297.702 426.909 308.125 424.158C317.083 421.897 325.845 418.919 334.326 415.252C339.918 412.973 345.718 410.66 351.586 408.762C368.483 403.154 382.527 391.179 390.733 375.38C402.09 355.013 407.993 332.988 412.447 314.14C420.041 281.311 418.384 252.002 407.338 224.386C399.087 203.88 386.176 185.481 374.784 169.152C367.006 158.573 357.106 149.731 345.718 143.193C314.649 124.31 280.128 120.582 247.471 119.339L247.126 119.511ZM244.813 426.16C243.289 426.148 241.788 425.782 240.429 425.09V425.09C238.822 424.232 237.543 422.866 236.794 421.204C236.044 419.543 235.866 417.681 236.287 415.908C236.389 415.186 236.389 414.454 236.287 413.733L236.114 412.835C235.838 401.133 237.599 397.819 245.987 394.263C248.209 393.011 250.793 392.561 253.307 392.988C255.822 393.416 258.112 394.694 259.795 396.61C261.824 398.395 263.27 400.747 263.947 403.363C264.624 405.978 264.501 408.737 263.593 411.282C261.94 415.572 258.935 419.208 255.032 421.638L254.099 422.294C251.438 424.489 248.179 425.835 244.744 426.16H244.813ZM241.361 412.352C241.66 413.654 241.718 414.999 241.534 416.322C241.327 419.014 241.534 419.774 242.777 420.43C245.504 421.776 247.817 420.43 251.303 417.979L252.304 417.323C255.281 415.449 257.589 412.682 258.898 409.418C260.106 406.242 259.347 403.618 256.102 400.097C254.341 398.164 252.304 397.232 248.093 399.027C242.19 401.478 241.016 402.306 241.223 412.352H241.361ZM323.521 403.653C322.194 403.786 320.855 403.653 319.58 403.262C318.306 402.871 317.122 402.229 316.099 401.374C315.345 400.572 314.771 399.618 314.414 398.576C314.057 397.535 313.925 396.429 314.028 395.333C314.188 392.629 315.402 390.095 317.409 388.275C319.416 386.455 322.056 385.494 324.764 385.598C326.123 385.503 327.487 385.69 328.771 386.148C330.054 386.605 331.229 387.324 332.221 388.257C333.213 389.191 334.002 390.32 334.536 391.574C335.071 392.827 335.34 394.178 335.327 395.54V395.54C335.484 396.548 335.424 397.578 335.15 398.56C334.876 399.543 334.395 400.455 333.739 401.236C332.608 402.176 331.293 402.87 329.878 403.275C328.464 403.679 326.981 403.784 325.523 403.584L323.521 403.653ZM325.489 390.742H325.074C323.348 390.742 319.309 391.536 319.171 395.471C319.1 396.249 319.295 397.028 319.724 397.68C320.69 398.613 323.59 398.509 325.143 398.405H325.489C327.111 398.405 329.32 398.405 329.907 397.75C330.202 397.2 330.299 396.567 330.183 395.954V395.954C329.976 394.366 329.182 390.742 325.351 390.742H325.489ZM161.135 399.786C160.63 399.793 160.127 399.711 159.65 399.545C154.334 397.922 151.745 393.503 151.918 386.427C151.95 384.581 152.376 382.764 153.168 381.097C153.96 379.43 155.099 377.952 156.509 376.761C157.493 375.904 158.649 375.27 159.9 374.9C161.151 374.531 162.467 374.436 163.758 374.621V374.621C168.522 375.449 174.667 381.525 174.115 386.461C172.995 391.233 170.06 395.381 165.933 398.026C164.503 399.096 162.782 399.71 160.997 399.786H161.135ZM162.412 379.695C161.443 379.749 160.519 380.126 159.789 380.765C158.96 381.483 158.292 382.367 157.828 383.361C157.364 384.354 157.114 385.434 157.096 386.53C157.096 392.468 158.96 393.918 161.169 394.608C162.861 394.884 168.695 389.292 169.006 385.978C169.178 384.459 165.553 380.178 162.895 379.73L162.412 379.695ZM386.038 354.253C382.646 353.733 379.527 352.09 377.179 349.586C374.832 347.082 373.393 343.864 373.093 340.445V340.445C373.257 339.128 373.837 337.898 374.751 336.935C375.664 335.973 376.861 335.327 378.167 335.094C379.856 335.123 381.519 335.514 383.043 336.241C384.568 336.967 385.919 338.013 387.005 339.306C388.446 340.615 389.594 342.215 390.374 344C391.153 345.785 391.546 347.714 391.527 349.662C391.356 350.791 390.828 351.836 390.02 352.643C389.213 353.45 388.168 353.978 387.039 354.15L386.038 354.253ZM378.236 341.273C378.556 343.285 379.63 345.1 381.24 346.348C382.488 347.841 384.248 348.813 386.176 349.075C386.591 347.832 385.417 345.312 383.277 343.068C381.136 340.825 379.583 340.307 379.065 340.376C378.839 340.393 378.628 340.496 378.474 340.662C378.321 340.828 378.236 341.047 378.236 341.273V341.273ZM116.741 348.178C116.281 348.212 115.82 348.212 115.36 348.178C113.982 348.02 112.703 347.384 111.744 346.382C110.786 345.379 110.209 344.072 110.113 342.689C109.812 340.414 110.193 338.101 111.206 336.042C112.22 333.984 113.822 332.272 115.809 331.124C117.568 329.719 119.675 328.817 121.905 328.513C124.136 328.209 126.407 328.515 128.478 329.398C129.637 329.933 130.608 330.806 131.261 331.903C131.914 333 132.22 334.269 132.137 335.543C131.314 339.165 129.142 342.338 126.062 344.415C123.337 346.538 120.047 347.811 116.603 348.074L116.741 348.178ZM123.921 333.403C121.965 333.583 120.093 334.286 118.502 335.439C117.307 336.105 116.354 337.131 115.777 338.371C115.201 339.611 115.031 341.001 115.291 342.344C115.291 342.585 115.291 342.93 116.327 343.103C118.779 342.977 121.11 342 122.92 340.341C124.843 339.045 126.229 337.095 126.821 334.853C126.809 334.625 126.73 334.406 126.596 334.222C126.461 334.038 126.275 333.897 126.062 333.817V333.817C125.355 333.464 124.573 333.287 123.783 333.299L123.921 333.403ZM257.862 298.122C256.798 298.112 255.736 298.02 254.686 297.846C250.573 297.303 246.787 295.317 244.003 292.241C241.219 289.166 239.617 285.201 239.485 281.055C239.352 276.908 240.696 272.849 243.278 269.602C245.86 266.355 249.512 264.13 253.582 263.325C255.549 262.842 257.552 262.497 259.45 262.152L262.246 261.668C265.421 261.559 268.563 262.342 271.315 263.928C274.067 265.515 276.319 267.841 277.815 270.644C279.372 273.254 279.994 276.317 279.58 279.328C279.166 282.339 277.74 285.12 275.537 287.214C271.291 292.185 266.009 298.122 257.862 298.122ZM262.523 267.054L260.348 267.468C258.553 267.779 256.689 268.124 254.824 268.573C252.046 269.219 249.578 270.809 247.84 273.072C246.103 275.334 245.205 278.13 245.299 280.981C245.392 283.832 246.472 286.562 248.354 288.706C250.236 290.85 252.803 292.275 255.618 292.737C262.73 294.014 267.079 289.285 271.671 283.9C273.067 282.61 273.995 280.892 274.307 279.017C274.62 277.142 274.3 275.216 273.397 273.544C272.379 271.54 270.822 269.86 268.9 268.695C266.979 267.53 264.77 266.926 262.523 266.95V267.054ZM392.355 290.7H391.838L390.422 290.459C388.877 290.213 387.362 289.808 385.9 289.251C379.824 286.558 377.063 282.622 377.684 277.479C378.616 269.884 385.9 267.123 388.282 266.398C390.675 265.726 393.207 265.726 395.6 266.398L397.81 266.777C401.814 267.192 411.273 268.158 411.066 278.066C411.066 282.726 408.615 288.422 397.982 289.941L394.772 290.459L392.355 290.7ZM391.596 270.885C391.054 270.873 390.514 270.967 390.008 271.162C385.417 272.784 383.104 274.89 382.828 278.066C382.621 279.895 382.828 282.277 387.971 284.452C389.083 284.877 390.242 285.167 391.423 285.315L392.563 285.522L393.943 285.281C395.186 285.039 396.291 284.832 397.396 284.694C404.921 283.727 405.957 280.551 405.991 277.79C405.991 273.889 403.989 272.404 397.361 271.748C396.509 271.748 395.646 271.61 394.772 271.334C393.732 271.053 392.669 270.868 391.596 270.782V270.885ZM262.246 286.006C261.069 285.996 259.901 285.786 258.794 285.384L257.034 284.763V283.071C257.052 282.841 257.052 282.611 257.034 282.381C256.813 281.306 256.998 280.187 257.552 279.239C257.809 278.829 258.04 278.403 258.242 277.962C258.718 276.361 259.774 274.995 261.205 274.133C262.636 273.271 264.337 272.974 265.975 273.302C267.316 273.706 268.452 274.607 269.151 275.822C269.474 276.29 269.702 276.818 269.82 277.375C269.939 277.932 269.946 278.507 269.841 279.067C269.609 280.347 269.111 281.564 268.379 282.64C267.648 283.717 266.7 284.628 265.595 285.315C264.552 285.814 263.402 286.051 262.246 286.006ZM264.387 278.135C263.938 278.135 263.662 278.515 262.833 280.137C262.739 280.366 262.623 280.586 262.488 280.793C262.693 280.832 262.904 280.832 263.109 280.793C263.873 280.217 264.401 279.382 264.594 278.445V278.445L264.387 278.135ZM103.968 285.039H102.829C97.4784 285.039 91.8515 284.659 87.4673 280.102C85.5342 278.1 80.9774 273.405 84.0152 267.364C85.7068 264.223 88.2268 259.424 94.3715 259.424H94.9583C98.0652 259.424 101.241 259.424 104.383 259.804C115.257 260.874 118.812 264.499 118.502 274.13C118.191 283.071 113.392 285.039 104.037 285.039H103.968ZM102.795 279.861C113.151 279.861 113.151 278.238 113.151 273.992C113.358 267.537 112.46 265.811 103.692 264.948C100.792 264.637 97.72 264.637 94.7512 264.603H94.1989C91.6098 264.603 90.4706 266.26 88.6065 269.781C87.5364 271.817 88.1577 273.509 91.0575 276.512C93.9572 279.516 98.1688 279.619 102.864 279.861H102.795ZM385.866 222.901C384.957 222.895 384.053 222.779 383.173 222.556C382.161 222.377 381.202 221.974 380.366 221.376C379.53 220.779 378.838 220.003 378.34 219.104C377.982 218.253 377.824 217.332 377.878 216.41C377.932 215.488 378.196 214.591 378.651 213.788C379.087 212.968 379.684 212.245 380.405 211.662C381.127 211.078 381.959 210.646 382.852 210.392C383.745 210.137 384.68 210.065 385.601 210.18C386.522 210.295 387.41 210.595 388.213 211.061C389.702 211.554 390.955 212.583 391.727 213.949C392.499 215.314 392.735 216.918 392.39 218.448L392.183 219.035C391.626 220.244 390.72 221.258 389.582 221.947C388.444 222.636 387.125 222.968 385.797 222.901H385.866ZM384.485 215.169C384.218 215.164 383.956 215.241 383.734 215.389C383.512 215.537 383.34 215.749 383.242 215.997C383.087 216.245 383.015 216.535 383.035 216.826C383.397 217.22 383.885 217.476 384.416 217.551C386.452 218.034 387.005 217.551 387.384 216.929C387.764 216.308 387.177 216.204 385.935 215.583C385.472 215.317 384.949 215.174 384.416 215.169H384.485ZM118.087 211.441C117.492 211.443 116.899 211.362 116.327 211.199C113.976 210.573 111.909 209.165 110.466 207.208C109.023 205.25 108.289 202.859 108.387 200.428V200.428C108.387 197.977 109.423 193.731 116.051 192.868H116.465H116.914C125.302 194.56 126.096 199.98 125.785 203.225C125.669 204.569 125.278 205.875 124.637 207.063C123.995 208.25 123.118 209.294 122.057 210.129C120.901 210.966 119.514 211.424 118.087 211.441ZM113.565 200.463C113.486 201.725 113.835 202.977 114.556 204.017C115.276 205.057 116.326 205.823 117.535 206.193C117.792 206.274 118.064 206.291 118.329 206.243C118.593 206.195 118.842 206.083 119.054 205.917C119.55 205.488 119.948 204.959 120.222 204.363C120.496 203.768 120.639 203.121 120.642 202.465C120.642 201.257 120.953 199.013 116.292 197.943C113.565 198.392 113.565 199.393 113.565 200.325V200.463ZM176.876 164.906C175.251 164.854 173.657 164.451 172.203 163.724C170.749 162.997 169.47 161.964 168.453 160.695C165.692 157.622 161.1 152.479 163.344 145.368C163.635 144.683 164.073 144.071 164.628 143.575C165.183 143.08 165.841 142.713 166.555 142.502L166.969 142.295L167.556 141.985H168.246C172.872 141.985 186.024 153.169 186.266 157.45C186.28 158.471 186.049 159.48 185.592 160.393C185.136 161.306 184.467 162.096 183.642 162.697C181.659 164.094 179.302 164.864 176.876 164.906V164.906ZM168.143 147.473C167.314 150.925 168.902 153.445 172.32 157.243C172.775 157.906 173.365 158.466 174.051 158.886C174.737 159.307 175.504 159.578 176.302 159.682C177.1 159.786 177.911 159.721 178.682 159.491C179.453 159.261 180.167 158.872 180.777 158.347C180.914 158.121 181.018 157.877 181.088 157.622C177.672 153.395 173.462 149.877 168.695 147.266C168.505 147.318 168.32 147.387 168.143 147.473V147.473ZM326.524 163.077C325.053 163.113 323.626 162.567 322.554 161.558C321.805 160.794 321.243 159.866 320.913 158.847C320.584 157.829 320.496 156.748 320.656 155.689C320.775 153.602 321.608 151.618 323.016 150.072C324.424 148.526 326.321 147.511 328.388 147.197H328.941H329.528C332.393 148.026 337.088 149.407 336.432 154.688C336.099 156.805 335.081 158.755 333.535 160.238C331.989 161.722 329.999 162.659 327.871 162.904L326.524 163.077ZM328.699 152.444C327.866 152.683 327.133 153.186 326.611 153.877C326.088 154.568 325.803 155.41 325.799 156.276C325.741 156.537 325.739 156.807 325.793 157.069C325.846 157.331 325.954 157.578 326.11 157.795C326.11 157.795 326.662 157.795 326.869 157.795C327.912 157.709 328.897 157.285 329.676 156.587C330.455 155.889 330.985 154.955 331.185 153.929C331.115 153.445 331.15 153.204 328.561 152.444H328.699ZM251.683 156.759C248.484 156.393 245.42 155.26 242.752 153.458C240.083 151.655 237.889 149.235 236.356 146.403C231.937 136.53 231.178 130.558 239.394 125.173C241.213 123.678 243.405 122.706 245.735 122.362C248.065 122.017 250.444 122.313 252.618 123.218C254.793 124.122 256.68 125.601 258.078 127.496C259.476 129.392 260.332 131.631 260.555 133.976V133.976C260.795 135.832 260.795 137.712 260.555 139.568C260.555 140.293 260.555 141.018 260.555 141.743V142.779C260.866 147.197 261.314 153.825 253.892 156.587C253.168 156.749 252.424 156.807 251.683 156.759V156.759ZM248.231 127.417C246.124 127.512 244.088 128.207 242.362 129.419C238.013 132.284 236.77 134.321 241.223 144.194C243.087 148.302 249.991 152.341 252.477 151.478C255.929 150.304 255.929 148.233 255.722 143.055V141.812C255.722 140.845 255.722 140.051 255.722 139.223C255.881 137.789 255.881 136.342 255.722 134.908V134.908C255.547 133.453 255.018 132.063 254.181 130.859C253.345 129.656 252.226 128.675 250.924 128.004C250.035 127.6 249.068 127.399 248.093 127.417H248.231ZM410.479 112.193L407.683 110.294C395.462 101.975 383.069 95.1398 371.091 88.5463C363.634 84.4383 355.901 80.1577 348.514 75.7045C344.406 73.219 340.194 70.8716 335.948 68.8003C332.738 67.1779 329.597 65.3483 329.32 62.2414C329.044 59.1345 331.288 57.1668 334.706 54.5778C349.135 43.6692 362.529 41.1491 376.925 46.5689H377.304C387.661 50.4007 398.017 54.3706 405.922 63.5877C416.278 75.9807 418.212 89.9616 411.584 108.948L410.479 112.193ZM334.533 61.8271C335.73 62.6963 337 63.4586 338.33 64.1055C342.68 66.3148 347.03 68.7313 351.241 71.2513C358.525 75.67 365.878 79.7435 373.645 84.024C384.795 90.1688 396.291 96.5206 407.786 104.081C412.55 88.5118 410.755 77.258 401.987 67.0053C394.703 58.6857 385.21 55.2337 375.199 51.4364H374.819C362.253 46.707 350.413 49.0199 337.571 58.7548C334.602 60.9986 334.119 61.8271 334.119 61.9652L334.533 61.8271ZM105.591 89.7545C104.501 89.7642 103.425 89.5157 102.449 89.0296C98.9628 87.2 98.2033 82.8503 97.0296 75.9462C96.9645 75.1996 96.9645 74.4488 97.0296 73.7023V73.0809C96.9649 67.8053 98.1477 62.589 100.482 57.8572C109.457 38.422 127.201 32.9332 145.048 29.8953C162.067 26.9611 173.424 38.1804 182.296 49.5377C184.644 52.5755 185.99 54.9575 185.299 57.443C184.609 59.9285 181.537 61.62 178.085 62.9663C176.044 63.8476 173.914 64.5072 171.733 64.934C152.884 68.3861 135.486 76.7747 118.674 85.0597L115.74 86.5095C112.633 88.3162 109.169 89.4236 105.591 89.7545V89.7545ZM150.468 34.5211C148.987 34.532 147.51 34.6589 146.049 34.9009C129.583 37.7316 113.254 42.7026 105.28 59.963C103.227 63.9578 102.151 68.3824 102.139 72.8738V72.8738C102.157 73.1727 102.157 73.4724 102.139 73.7714C102.139 74.2201 102.139 74.6344 102.139 74.876C102.898 79.2256 103.658 83.7134 104.969 84.3693C105.694 84.749 107.8 84.6109 113.531 81.8147L116.465 80.3648C133.725 71.9072 151.331 63.1044 170.904 59.6523C172.731 59.2954 174.514 58.7397 176.22 57.9953C179.673 56.649 180.19 55.9931 180.294 55.786C179.795 54.5153 179.07 53.3457 178.154 52.3339C170.697 43.1168 162.205 34.5211 150.468 34.5211ZM253.444 55.9241C251.913 55.8885 250.393 55.6565 248.921 55.2337C245.987 54.5087 242.5 53.3005 241.534 50.2281C241.34 48.743 241.519 47.233 242.056 45.8346C242.592 44.4363 243.469 43.1937 244.606 42.2193C245.749 41.1576 246.547 39.7777 246.898 38.2578C247.249 36.7379 247.136 35.1477 246.574 33.6926C245.587 29.7673 245.528 25.6661 246.401 21.7139L246.608 20.4021C247.299 16.1215 248.334 9.63161 256.654 9.2864C260.264 8.9524 263.878 9.87181 266.89 11.89C269.902 13.9081 272.126 16.9019 273.19 20.3676C274.241 24.4699 274.487 28.7372 273.914 32.9332C273.914 39.4921 273.914 49.3651 261.97 53.8873C259.226 55.1083 256.273 55.7881 253.271 55.8895L253.444 55.9241ZM246.539 49.0199C246.539 49.0199 247.057 49.7103 250.199 50.5043C253.548 51.229 257.042 50.8286 260.141 49.3651C268.115 46.2928 268.736 40.6659 268.771 33.0713V32.657C269.294 29.0785 269.118 25.4325 268.253 21.921C267.485 19.582 265.939 17.5766 263.873 16.2387C261.806 14.9008 259.344 14.3112 256.896 14.5681C253.133 14.5681 252.546 16.3286 251.787 21.4723L251.545 22.8531C250.82 26.0109 250.82 29.2921 251.545 32.4499C252.364 34.7541 252.51 37.2439 251.966 39.6282C251.422 42.0124 250.21 44.1923 248.473 45.913C246.47 48.1569 246.505 48.9854 246.505 48.9854L246.539 49.0199Z" fill="#231F20"/>
</g>
<defs>
<clipPath id="clip0">
<rect width="500" height="500" fill="white"/>
</clipPath>
</defs>
</svg>
