<svg width="500" height="500" viewBox="0 0 500 500" fill="none" xmlns="http://www.w3.org/2000/svg">
<g clip-path="url(#clip0)">
<path d="M497.689 152.437C497.043 149.786 496.398 147.238 496.024 144.689C494.427 134.29 488.411 128.003 477.401 125.454C474.002 124.604 470.162 123.755 466.424 123.211C449.874 120.832 433.29 122.328 417.25 123.789H416.638C399.443 125.352 382.077 127.901 365.289 130.382C358.051 131.435 350.778 132.523 343.506 133.508C342.146 133.678 340.107 133.916 338.986 133.95C338.785 132.587 338.66 131.215 338.612 129.838C338.612 127.153 338.34 124.503 338.238 121.818C337.966 116.007 337.66 109.992 337.185 104.078C336.387 92.1231 333.356 80.4233 328.247 69.5851C325.929 64.6105 322.266 60.3832 317.672 57.3806C313.078 54.378 307.736 52.7198 302.25 52.5933C296.404 52.6476 290.761 50.4583 286.481 46.4763C284.026 44.2276 281.256 42.35 278.257 40.903C268.47 36.4172 256.27 40.0194 252.26 48.6512C247.604 58.6424 243.424 70.5027 247.91 82.6348C249.338 85.8115 249.793 89.3398 249.219 92.775C248.644 96.2101 247.065 99.3982 244.681 101.937C243.359 103.829 242.221 105.844 241.283 107.953C240.569 109.312 239.89 110.603 239.108 111.793C238.454 112.98 237.604 114.049 236.593 114.953C235.296 114.568 234.077 113.959 232.991 113.152C224.019 107.477 215.082 101.7 206.144 95.9563L191.463 86.5769C162.407 68.0219 131.618 64.3177 99.9115 75.6682C94.8741 77.7496 90.2654 80.7453 86.3181 84.5039C83.4543 87.1877 80.2424 89.4737 76.7687 91.3006C72.1809 93.4416 72.045 98.9469 71.943 102.583V103.569C71.5207 117.204 74.772 130.702 81.3565 142.65L84.5849 148.699C91.9362 163.493 100.495 177.655 110.175 191.042C110.884 191.896 111.489 192.831 111.976 193.829C110.9 194.44 109.761 194.93 108.577 195.29C100.795 197.975 93.0128 200.558 85.2306 203.14C78.887 205.202 72.5434 207.309 66.1998 209.461C64.9945 210.045 63.6569 210.303 62.321 210.207C60.985 210.112 59.6976 209.667 58.5875 208.918C55.044 206.606 51.0217 205.13 46.8243 204.6C42.6269 204.07 38.364 204.501 34.3572 205.859C31.2647 206.675 27.9683 207.286 24.7739 207.83L23.7884 207.966C19.6336 208.602 15.6715 210.151 12.187 212.502C8.70248 214.852 5.78217 217.946 3.63611 221.56C1.57917 225.274 0.374767 229.4 0.11026 233.638C-0.154246 237.876 0.527772 242.12 2.10685 246.062C2.44669 246.979 2.85449 247.897 3.22831 248.814C4.28751 250.941 4.94424 253.245 5.16537 255.611C5.1892 265.836 8.97547 275.695 15.8022 283.308C17.2673 285.161 18.4893 287.194 19.4385 289.357L19.8802 290.24C31.0948 312.466 50.6693 326.535 76.4289 331.021C106.504 336.084 131.244 335.472 154.319 329.185C156.274 328.585 158.274 328.142 160.3 327.86C161.35 327.741 162.411 327.741 163.461 327.86C163.46 329.001 163.346 330.14 163.121 331.258C162.067 336.39 160.776 341.657 159.519 346.721L158.125 351.649C152.982 371.295 149.481 391.335 147.658 411.562C146.967 419.859 148.276 428.201 151.475 435.888C154.674 443.575 159.67 450.383 166.044 455.74C169.725 459.487 174.725 461.646 179.977 461.755C182.656 461.708 185.31 461.214 187.827 460.294C200.339 455.697 211.4 447.849 219.873 437.559C224.563 432.156 227.996 429.641 233.705 430.966C236.427 431.399 239.211 431.215 241.853 430.427C244.494 429.639 246.924 428.267 248.963 426.412C253.024 423.278 256.13 419.073 257.931 414.27C259.733 409.467 260.157 404.257 259.158 399.226C258.744 396.547 258.902 393.812 259.623 391.199C260.343 388.586 261.61 386.156 263.338 384.069C269.208 376.158 274.478 367.82 279.107 359.125C280.11 357.033 281.329 355.051 282.743 353.212C284.846 353.908 286.838 354.903 288.656 356.168C302.757 364.222 316.374 373.096 329.436 382.744C345.407 394.784 363.561 403.612 382.893 408.741L385.781 409.658C388.058 410.372 390.403 411.086 392.578 412.037C404.54 416.897 417.76 417.407 434.208 413.669C453.238 409.285 462.55 396.065 460.409 376.287C459.632 368.178 457.887 360.191 455.21 352.498C453.272 347.027 453.748 344.308 457.181 341.182C463.977 335.065 465.948 326.399 462.04 319.602C455.244 308.15 447.019 295.814 430.639 295.814C428.413 295.86 426.214 295.319 424.263 294.245C422.312 293.171 420.679 291.602 419.527 289.697L416.672 285.958C409.875 277.259 403.079 268.287 396.282 259.621L395.976 259.247C394.039 257.085 392.331 254.727 390.879 252.213C393.448 250.403 396.191 248.855 399.069 247.591C431.489 231.483 458.302 217.651 483.688 198.791C488.453 195.367 492.389 190.919 495.206 185.772C498.023 180.626 499.65 174.913 499.966 169.055C500.144 163.427 499.374 157.81 497.689 152.437ZM474.24 190.397L470.366 193.013C455.551 203.782 439.798 213.199 423.299 221.152C416.094 224.312 409.06 227.948 402.263 231.347C397.064 234.065 391.66 236.886 386.291 239.435C379.766 242.527 379.766 242.527 375.62 236.75C364.827 221.304 352.014 207.371 337.524 195.324C334.977 193.589 333.096 191.039 332.188 188.094C331.28 185.149 331.401 181.982 332.529 179.114C334.507 171.775 335.95 164.301 336.845 156.753C336.84 155.035 337.486 153.379 338.652 152.119C339.818 150.858 341.419 150.085 343.132 149.956C344.462 149.684 345.778 149.344 347.074 148.937C348.524 148.446 350.013 148.082 351.526 147.849C360.429 146.796 369.503 145.572 378.237 144.451C401.587 140.794 425.134 138.524 448.753 137.654H449.568C455.364 137.825 461.132 138.531 466.798 139.761C469.041 140.169 471.284 140.577 473.595 140.917C475.033 141.065 476.396 141.63 477.519 142.541C478.642 143.453 479.474 144.671 479.916 146.048C483.314 156.243 486.169 166.982 482.702 177.857C481.531 182.94 478.516 187.408 474.24 190.397V190.397ZM267.077 106.967C281.588 110.093 287.059 105.846 294.501 94.495C298.873 88.0855 300.934 80.3797 300.346 72.6436C300.346 70.2988 300.686 69.4152 300.89 69.2453C301.094 69.0753 302.318 68.8715 304.9 69.9249C310.543 72.5893 314.929 77.3414 317.134 83.1785C321.718 94.5629 324.171 106.692 324.373 118.963V119.371C324.373 128.071 324.577 132.964 322.98 134.935C321.382 136.907 316.557 138.334 308.503 140.169C305.478 140.917 302.419 141.562 299.361 142.242C295.215 143.126 290.899 144.043 286.685 145.199C284.741 145.824 282.668 145.936 280.668 145.526C278.667 145.115 276.807 144.194 275.267 142.854C268.81 137.576 261.998 132.75 254.877 128.411C250.017 125.522 249.915 125.182 252.328 119.813C253.067 118.268 253.919 116.78 254.877 115.361C255.726 114.002 256.542 112.676 257.255 111.249C258.989 107.851 260.654 106.457 263.848 106.457C264.939 106.515 266.021 106.686 267.077 106.967V106.967ZM141.881 203.99C143.954 203.242 146.095 202.699 148.372 202.087C149.731 201.713 151.091 201.373 152.416 200.966C159.213 198.994 166.01 197.159 172.806 195.426C183.783 192.538 195.099 189.581 206.076 185.775C207.17 185.361 208.312 185.087 209.474 184.959C209.387 186.11 209.182 187.249 208.863 188.358C206.994 195.392 204.955 202.495 202.984 209.393L201.352 215.069L199.653 214.593L198.736 217.991C197.852 221.05 197.036 224.142 196.187 227.201C194.216 234.371 192.177 241.78 189.9 248.916C189.613 249.996 189.19 251.035 188.643 252.009C187.608 251.532 186.638 250.927 185.754 250.208C169.145 237.526 154.149 222.861 141.1 206.539C140.454 205.757 140.08 205.179 139.842 204.84C140.496 204.497 141.178 204.213 141.881 203.99ZM229.967 290.886C222.354 283.681 214.436 276.579 206.79 269.68L204.411 267.539C203.286 266.771 202.482 265.617 202.15 264.296C201.818 262.975 201.982 261.578 202.61 260.369C205.563 253.095 207.838 245.564 209.407 237.872C211.03 229.247 213.748 220.864 217.495 212.928C219.855 208.064 221.645 202.944 222.83 197.669C223.883 193.059 225.386 188.563 227.316 184.246C229.151 180.473 230.408 178.163 233.025 177.143L240.094 174.458C250.941 169.899 262.194 166.372 273.703 163.923C274.703 163.752 275.714 163.661 276.728 163.652C279.664 163.684 282.52 164.609 284.918 166.302C292.955 171.842 300.629 177.892 307.891 184.416L311.561 187.576C313.305 188.926 314.623 190.75 315.358 192.829C316.093 194.908 316.214 197.154 315.707 199.3C314.756 204.024 313.838 208.748 312.818 213.437C310.576 223.633 308.333 233.828 306.26 243.411L304.221 253.096C303.881 254.49 303.609 255.645 303.337 256.665C302.886 258.342 302.534 260.044 302.284 261.762C301.366 268.559 297.764 272.875 290.151 275.593C284.714 277.53 279.311 279.603 273.907 281.642C263.236 285.754 252.192 289.968 241.011 293.095C239.162 293.885 237.118 294.096 235.147 293.702C233.175 293.308 231.369 292.326 229.967 290.886ZM319.037 174.594C318.902 175.15 318.696 175.687 318.426 176.192C317.567 175.91 316.763 175.485 316.047 174.934C310.915 170.754 305.852 166.438 300.618 161.85L297.424 159.098C304.994 155.989 313.039 154.196 321.212 153.796H321.654C321.958 153.744 322.268 153.744 322.572 153.796C322.774 154.38 322.774 155.014 322.572 155.597V156.175C321.718 162.373 320.538 168.521 319.037 174.594V174.594ZM194.93 284.055C195.059 283.614 195.266 283.2 195.541 282.832C196.329 282.923 197.073 283.242 197.682 283.749C201.629 286.533 205.243 289.76 208.455 293.367C210.358 295.304 212.329 297.309 214.436 299.28C206.577 302.891 198.301 305.516 189.798 307.096L187.861 307.538C190.308 298.974 192.857 290.478 194.93 284.055ZM314.959 265.296C318.494 248.848 322.085 232.4 325.732 215.952L327.533 207.762C327.975 205.689 328.179 204.976 328.587 204.704L330.354 206.029C343.726 216.847 355.489 229.514 365.289 243.649C366.323 244.903 367.191 246.285 367.872 247.761C366.582 248.658 365.19 249.399 363.726 249.97C348.673 256.924 333.066 262.607 317.066 266.962C316.242 267.195 315.402 267.366 314.552 267.471C314.647 266.739 314.783 266.013 314.959 265.296V265.296ZM263.984 150.84C257.857 153.486 251.527 155.634 245.055 157.263C242.303 158.044 239.482 158.826 236.661 159.709C237.588 154.88 239.262 150.225 241.623 145.912C242.71 143.567 243.866 141.188 244.783 138.708C245.04 138.744 245.291 138.812 245.531 138.912C252.504 141.483 258.826 145.555 264.052 150.84H263.984ZM228.505 135.343C225.753 142.854 222.626 150.398 219.602 157.704L217.766 162.156C217.021 164.109 215.801 165.846 214.217 167.211C212.633 168.575 210.735 169.524 208.693 169.973L173.316 179.182L137.429 188.528C131.414 190.091 127.438 188.528 122.85 182.75C108.421 164.23 97.0935 143.491 89.3086 121.342C84.8908 109.312 85.9103 105.438 96.1054 96.9419C101.64 92.6227 107.984 89.4565 114.762 87.6304C122.292 85.317 130.131 84.1709 138.007 84.232C144.281 84.2627 150.538 84.877 156.698 86.0671L164.956 89.4655C173.87 92.6483 182.379 96.8686 190.308 102.039C195.405 105.608 200.707 108.836 205.872 112.234C212.431 116.38 219.228 120.696 225.583 125.522C227.338 126.59 228.9 127.945 230.204 129.532C229.973 131.552 229.398 133.517 228.505 135.343V135.343ZM248.895 305.057C250.615 303.986 252.437 303.087 254.333 302.372L258.615 300.673C269.218 296.935 280.194 293.095 291.035 289.561C292.055 289.2 293.1 288.916 294.161 288.711C294.069 289.926 293.876 291.131 293.584 292.313C293.108 294.454 292.496 296.527 291.851 298.736C291.545 299.722 291.239 300.741 290.967 301.727C288.432 309.699 285.25 317.45 281.452 324.903C279.447 328.778 278.291 329.389 278.053 329.491C277.815 329.593 276.558 329.491 273.669 327.316C269.591 324.19 265.683 320.52 261.911 317.121C257.598 312.999 253.06 309.119 248.318 305.499L248.895 305.057ZM114.287 318.651C110.575 317.985 106.807 317.689 103.038 317.767H99.1639C96.921 317.767 94.6441 317.767 92.3672 317.767C65.9619 316.985 47.237 305.363 35.2408 282.322C34.3572 280.657 33.3717 278.924 32.4202 277.428C31.4686 275.933 30.5171 274.336 29.7015 272.705C29.1695 271.73 28.5793 270.788 27.9343 269.884C27.1456 268.862 26.5365 267.713 26.1332 266.486C27.0148 266.402 27.9023 266.402 28.7839 266.486C29.7915 266.537 30.8009 266.537 31.8085 266.486C40.554 266.115 49.0689 263.568 56.5825 259.077C66.3697 253.232 70.4478 244.736 69.4622 232.332C69.0136 229.803 69.0136 227.215 69.4622 224.686C71.2814 223.34 73.3315 222.338 75.5113 221.729L76.2929 221.424C83.5314 218.569 91.1438 216.36 98.5182 214.253C103.752 212.724 109.155 211.161 114.422 209.359C120.879 207.185 124.618 208.272 128.016 213.234C128.484 213.929 129.044 214.558 129.681 215.103C129.885 215.307 130.191 215.544 130.259 215.646C142.119 234.269 158.159 247.727 176.375 262.204C178.614 263.565 180.26 265.719 180.984 268.237C181.708 270.756 181.458 273.455 180.283 275.797C177.19 284.599 174.234 294.148 170.869 305.839C170.485 307.597 169.567 309.193 168.241 310.41C166.915 311.627 165.245 312.404 163.461 312.635L154.863 314.64C140.964 318.277 127.982 321.403 114.117 318.718L114.287 318.651ZM252.973 377.068C252.112 378.266 250.921 379.19 249.547 379.726C248.172 380.263 246.671 380.39 245.225 380.093C240.828 379.304 236.305 379.574 232.033 380.88C227.76 382.186 223.86 384.491 220.655 387.603C217.873 390.822 215.921 394.672 214.967 398.818C214.013 402.964 214.088 407.281 215.184 411.392C217.019 420.431 214.13 424.985 208.183 430.083C202.23 435.689 195.325 440.188 187.793 443.37C186 444.203 183.988 444.441 182.05 444.05C180.112 443.658 178.35 442.658 177.02 441.195C167.539 432.563 163.427 420.805 164.718 406.498C167.262 380.069 172.639 353.989 180.758 328.71C181.209 326.911 182.16 325.276 183.501 323.995C184.843 322.714 186.519 321.839 188.337 321.471C201.522 317.869 212.465 314.674 222.762 311.854C223.79 311.556 224.853 311.396 225.923 311.378C227.891 311.391 229.797 312.074 231.326 313.315C235.03 316.102 238.768 318.786 242.54 321.505C251.197 327.482 259.514 333.937 267.45 340.842C270.849 344.002 271.562 345.158 270.849 347.367C269.32 350.085 267.892 352.838 266.465 355.625C262.865 363.299 258.334 370.502 252.973 377.068ZM409.604 308.489C406.164 315.234 405.282 322.997 407.123 330.341C409.604 342.949 414.939 348.08 427.513 350.017C429.919 350.378 432.353 350.526 434.785 350.459C436.499 350.227 438.237 350.656 439.645 351.66C441.053 352.664 442.025 354.167 442.364 355.863C444.929 362.895 446.429 370.272 446.816 377.748C447.099 381.408 446.189 385.061 444.223 388.161C442.256 391.261 439.339 393.64 435.907 394.944C426.307 399.253 415.543 400.234 405.322 397.73C400.7 396.643 395.976 395.249 391.422 393.924L385.067 392.055L380.106 390.662L371.1 388.147C358.73 384.749 348.467 377.952 337.626 370.645C332.189 366.975 326.582 363.203 320.635 359.975C315.98 357.248 311.548 354.157 307.381 350.731C302.655 346.827 297.595 343.347 292.258 340.332C289.404 338.837 289.336 337.681 290.287 335.642C297.858 319.647 304.021 303.023 308.706 285.958C309.008 284.89 309.605 283.928 310.429 283.182C311.252 282.437 312.269 281.939 313.362 281.744C333.976 275.877 354.174 268.633 373.819 260.063C374.629 259.686 375.508 259.478 376.402 259.451C377.289 259.51 378.153 259.767 378.929 260.202C379.705 260.637 380.374 261.24 380.888 261.966C391.201 273.51 400.737 285.726 409.434 298.532C410.526 299.954 411.132 301.69 411.163 303.483C411.194 305.276 410.647 307.031 409.604 308.489V308.489Z" fill="#231F20"/>
<path d="M310.882 221.356C313.01 214.853 313.728 207.971 312.989 201.169C312.255 194.412 309.215 188.113 304.38 183.335C299.546 178.556 293.213 175.59 286.447 174.934C267.281 173.881 250.765 180.032 239.992 192.368C234.606 198.859 230.778 206.497 228.798 214.696C226.819 222.896 226.742 231.439 228.573 239.673C231.224 253.572 239.72 260.607 253.789 260.607H254.877C270.815 260.233 285.258 254.014 299.055 241.644C305.32 236.533 309.522 229.326 310.882 221.356V221.356ZM292.259 225.468C287.589 231.171 281.412 235.45 274.431 237.817C267.45 240.184 259.945 240.544 252.77 238.857C250.066 238.209 247.699 236.583 246.124 234.292C244.549 232.002 243.878 229.209 244.24 226.453C245.18 219.686 248.1 213.349 252.634 208.238C256.772 203.376 261.564 199.11 266.873 195.562L270.509 192.843C272.425 191.469 274.746 190.776 277.102 190.872C279.73 190.976 282.339 191.364 284.884 192.028V192.028C287.6 192.492 290.11 193.772 292.083 195.695C294.055 197.619 295.397 200.097 295.929 202.801C297.122 206.604 297.412 210.633 296.775 214.568C296.138 218.503 294.591 222.235 292.259 225.468Z" fill="#231F20"/>
</g>
<defs>
<clipPath id="clip0">
<rect width="500" height="422.993" fill="white" transform="translate(0 39)"/>
</clipPath>
</defs>
</svg>
