<svg width="500" height="500" viewBox="0 0 500 500" fill="none" xmlns="http://www.w3.org/2000/svg">
<g clip-path="url(#clip0)">
<path d="M264.954 226.188C263.938 224.293 261.679 222.877 259.305 222.649C258.118 222.535 256.931 222.42 255.419 222.574C253.256 223.264 250.768 224.223 248.28 225.181C244.28 226.293 241.849 226.658 240.719 225.95C239.589 225.243 238.956 222.486 238.112 218.811C235.848 208.112 234.56 196.608 234.899 183.763C234.802 181.657 235.088 178.69 235.373 175.723C236.455 155.163 236.771 136.326 231.773 132.251C230.643 131.544 229.188 131.104 227.944 131.583C227.025 131.794 225.513 131.948 223.675 132.37C203.252 136.094 181.796 141.215 179.426 150.271C178.49 153.774 179.985 156.913 184.446 160.337C188.315 163.704 192.851 163.243 196.795 162.724C201.657 161.994 205.274 161.744 208.053 167.102C209.547 170.241 208.114 175.793 206.795 180.158C205.973 182.475 205.745 184.849 205.573 186.629C205.059 191.97 206.919 197.54 208.453 203.378C210.409 211.053 212.902 219.379 209.363 225.027C207.24 228.417 203.719 230.773 200.198 233.129C195.107 236.233 189.691 239.604 188.737 246.401C188.28 251.148 189.45 254.555 191.595 257.157C191.863 257.483 192.399 258.133 192.668 258.459C199.275 264.485 211.966 263.311 223.852 261.162L228.714 260.432C246.975 257.399 262.804 254.73 266.048 233.48C266.659 230.245 266.295 227.814 264.954 226.188Z" fill="#231F20"/>
<path d="M321.938 259.526C323.354 257.266 324.444 255.275 325.859 253.015C326.949 251.024 328.365 248.765 329.723 247.099C344.186 227.528 346.951 205.034 338.994 178.812L332.36 157.51C328.219 144.533 323.217 131.174 310.464 123.657C307.343 121.859 304.929 118.931 303.167 115.467C296.098 104.904 285.451 97.2903 272.624 93.6594C269.713 92.7802 266.535 91.5757 263.089 90.046C259.049 88.4591 254.741 86.5469 250.319 85.8216C248.27 85.3249 246.222 84.8282 244.173 84.3314C230.752 80.6433 217.063 76.63 202.803 78.5511C187.299 80.9514 170.761 84.7496 153.134 90.5391C131.18 97.709 113.711 114.295 105.337 135.949C92.4705 170.049 95.7413 204.504 116.244 246.608L116.512 246.933C119.673 251.43 123.159 255.659 126.645 259.888C148.902 286.887 176.363 309.596 218.248 310.036C263.424 310.493 298.275 293.783 321.938 259.526ZM194.848 294.905C184.394 291.503 175.471 284.654 165.953 277.748L163.426 276.007C148.91 265.026 138.356 250.234 128.663 235.824C116.78 206.829 107.192 172.664 124.978 137.242C131.748 122.92 143.458 113.266 161.257 105.696C197.888 89.1585 240.788 91.4924 275.925 112.245C292.66 121.943 305.532 137.557 314.596 158.495C318.909 169.691 321.612 178.935 323.722 188.123C327.96 203.205 326.149 218.903 318.632 231.656C314.214 240.215 308.667 248.066 303.445 255.649C302.354 257.64 300.671 259.574 299.581 261.566C281.79 287.704 228.639 304.747 194.848 294.905Z" fill="#231F20"/>
<path d="M410.188 462.683C411.603 460.423 411.889 457.456 410.509 453.13C403.163 423.673 388.946 397.148 375.266 371.274C372.488 365.915 369.71 360.557 366.663 354.873C362.544 347.888 357.985 342.358 352.183 337.307C346.974 332.313 342.033 327.645 338.336 322.497C335.711 318.651 334.753 316.163 335.518 314.44C336.283 312.716 338.771 311.758 343.039 310.971C346.982 310.452 350.925 309.934 354.6 309.09C359.519 307.766 363.098 304.817 364.953 301.102C366.482 297.656 365.964 293.713 363.339 289.866C359.699 284.125 360.961 280.353 367.085 275.852C370.28 273.764 373.533 271.082 376.136 268.937C380.365 265.451 383.943 262.501 388.383 259.934C391.847 258.171 393.587 255.644 394.467 252.734C395.02 250.092 394.119 247.01 391.438 243.757C387.415 238.878 385.864 236.332 386.035 234.552C386.206 232.772 389.134 230.358 393.956 226.93C395.908 225.321 398.453 223.769 400.999 222.217C401.917 222.006 402.568 221.47 402.893 221.202C405.113 219.918 406.586 217.065 407.14 214.423C407.694 211.781 406.735 209.293 405.395 207.667C403.364 203.877 400.682 200.624 398.48 198.615C395.952 196.875 394.668 194.655 394.572 192.549C394.475 190.443 395.622 187.859 397.956 185.388C399.258 184.315 400.291 182.918 401.592 181.845C402.893 180.772 404.251 179.106 405.553 178.034C409.896 173.361 411.694 170.24 411.061 167.483C410.753 164.459 408.014 161.799 402.308 158.854C391.758 153.346 391.758 153.346 395.925 141.17L398.391 134.22C400.207 127.806 400.607 123.652 398.787 120.781C396.967 117.911 392.87 116.917 386.399 115.695C374.262 114.227 370.182 109.941 370.292 99.47C370.072 79.9829 369.536 79.3323 350.603 76.9103L347.636 76.6246C344.075 76.2817 341.758 75.4597 341.011 73.8903C339.938 72.5892 339.516 70.7517 340.07 68.1097C340.681 64.8743 340.91 62.5005 340.545 60.0696C340.312 53.1592 338.606 49.1018 335.542 46.7104C332.478 44.319 327.999 44.1872 321.51 46.2577C319.998 46.4116 318.754 46.8908 317.51 47.3699L316.591 47.5809C311.022 49.4404 307.25 48.1788 305.333 43.2027C303.149 37.9012 300.159 31.6239 294.933 29.9227C292.022 29.0435 288.998 29.3512 285.859 30.8459C282.07 32.8768 278.624 31.3471 275.177 29.8173C271.463 27.9623 266.887 25.7248 262.007 29.7471C261.682 30.0152 261.357 30.2834 261.031 30.5515C260.381 31.0878 259.787 31.0307 259.462 31.2988C250.793 37.3521 242.753 36.8774 234.155 29.7605C225.345 21.7248 222.532 22.9513 213.366 31.053C209.406 34.8643 203.893 36.1304 198.341 34.6973C196.886 34.2578 194.837 33.761 193.382 33.3215C191.659 32.5566 189.879 32.3851 188.156 31.6203C177.913 29.1366 171.042 32.0688 166.836 41.5464C161.099 54.4705 160.448 55.0068 147.392 53.7496C139.409 52.6815 131.906 52.8574 124.556 54.5454C116.612 56.1764 113.245 60.0448 112.885 66.8981C113.197 79.2066 106.902 85.4885 93.0239 86.548C91.5117 86.7018 90.2677 87.181 88.4302 87.603C88.4874 87.0096 86.9752 87.1634 85.7311 87.6426C78.3812 89.3307 73.405 91.2474 71.4928 95.5554C69.9059 99.5952 71.4972 104.84 75.0228 111.768C79.7749 121.509 79.6034 123.289 70.3413 129.285C67.7961 130.837 65.519 132.714 62.9738 134.266C57.8833 137.369 53.061 140.798 48.2387 144.227C43.7417 147.388 40.7569 150.395 41.0646 153.419C41.3724 156.443 43.8429 158.778 48.3048 162.202C67.6645 175.746 67.6645 175.746 58.5431 195.831C53.2461 207.3 52.7494 209.348 63.6074 217.881C69.2562 221.419 71.5377 228.826 69.0716 235.776C68.1353 239.28 67.199 242.784 66.588 246.019C64.2583 257.774 67.0365 263.132 78.2945 267.511C80.6112 268.333 83.196 269.48 86.1632 269.766C95.065 270.623 100.274 275.616 102.27 285.991C104.169 294.26 107.638 301.781 110.416 307.14C115.168 316.881 122.54 321.184 134.523 321.14C142.62 321.022 147.847 322.723 150.146 326.837C152.771 330.684 151.931 336.293 148.278 343.129C139.711 360.572 129.653 384.16 127.732 410.329C126.664 418.312 125.328 425.97 123.666 433.896C122.941 438.318 123.785 441.993 125.93 444.595C126.198 444.921 126.466 445.246 127.003 445.897C129.741 448.556 133.895 448.956 138.546 447.308C142.547 446.195 145.742 444.107 148.019 442.23C152.459 439.663 156.631 436.77 161.071 434.203C164.86 432.172 168.707 429.548 172.496 427.517L172.821 427.249C173.146 426.981 174.065 426.77 174.39 426.502C179.098 424.26 184.325 425.961 186.835 430.994C188.387 433.539 189.939 436.085 190.897 438.573C191.856 441.061 192.871 442.955 193.829 445.443C195.478 450.094 197.72 454.802 199.962 459.51C203.333 464.926 210.609 467.124 216.293 464.078C218.187 463.062 219.546 461.396 219.717 459.616C220.596 456.706 218.451 454.103 216.899 451.558C209.083 439.425 202.032 425.569 195.957 410.909L195.689 410.584L195.42 410.258C195.152 409.933 195.209 409.34 194.941 409.014C193.658 406.794 191.455 404.786 188.813 404.232C186.171 403.678 183.472 403.717 180.927 405.269C177.731 407.357 174.861 409.177 171.665 411.265L171.014 411.802C168.794 413.085 166.249 414.637 164.029 415.921C158.613 419.292 153.198 422.664 145.962 423.165C146.028 400.711 149.14 383.94 156.617 368.489C162.354 355.565 166.983 347.924 182.795 348.549L184.575 348.72C192.673 348.601 198.664 348.579 204.467 353.63C207.531 356.021 210.92 358.145 214.309 360.268C221.356 364.84 229.436 368.013 238.162 361.367C232.887 378.827 229.717 396.191 229.629 412.654C229.005 428.466 226.007 444.05 220.425 458.486C218.341 464.574 217.176 470.452 217.198 476.443C217.238 479.142 217.203 485.727 223.348 487.218C223.616 487.543 224.21 487.6 224.803 487.657C227.177 487.886 229.34 487.196 231.292 485.587C233.243 483.978 234.334 481.986 234.237 479.881C235.573 472.223 237.503 464.622 239.433 457.022C243.064 444.195 246.484 430.449 245.424 416.571C244.422 402.099 248.818 387.549 253.539 372.73C254.475 369.226 256.005 365.78 256.941 362.277C258.915 366.659 260.62 370.717 262.326 374.774C266.159 384.726 269.839 393.167 275.088 400.859C281.198 408.935 285.357 418.619 289.247 427.978C293.885 438.906 298.523 449.834 306.893 459.325C307.697 460.301 307.851 461.813 308.273 463.65C308.427 465.163 308.906 466.407 309.385 467.651C310.88 470.789 312.7 473.66 314.902 475.669C318.234 478.386 321.412 479.59 324.437 479.282C326.6 478.592 329.738 477.097 331.765 471.603C335.264 463.255 338.877 453.72 342.108 445.047C343.37 441.275 344.842 438.422 345.761 438.211C347.005 437.732 349.858 439.204 353.247 441.328C365.732 448.519 375.249 455.425 383.579 462.217C387.927 466.828 393.958 469.505 400.869 469.272C405.959 466.169 408.772 464.942 410.188 462.683ZM231.528 340.064C225.005 348.72 225.005 348.72 215.966 343.058C209.781 338.869 203.922 334.411 198.062 329.954C194.404 327.505 187.09 322.608 179.876 329.101C176.566 332.376 173.599 332.09 169.251 327.479C163.237 321.509 158.411 315.654 155.153 309.051C150.823 301.148 145.328 299.121 137.156 303.126C127.147 307.553 124.83 306.731 120.135 296.396C116.935 289.2 115.19 282.443 114.688 275.208C112.385 261.809 110.451 260.125 96.8013 258.811C95.2891 258.965 94.1022 258.85 92.9153 258.736C87.3061 257.897 84.396 257.017 83.0552 255.391C81.7144 253.764 82.3254 250.529 83.165 244.92C83.6046 243.465 84.0442 242.01 84.2156 240.229C84.6552 238.774 84.7695 237.587 85.2091 236.132L85.2662 235.539C87.3674 226.158 88.3037 222.654 85.0859 218.751C83.2088 216.474 80.413 214.408 75.6258 211.252C75.3576 210.926 75.0895 210.601 74.496 210.544C74.496 210.544 74.2279 210.219 73.9597 209.893C72.83 209.186 72.0826 207.616 71.9288 206.104C72.3683 204.649 72.5398 202.869 73.841 201.796C75.2564 199.536 76.3466 197.545 77.4368 195.554L77.9335 193.505C85.5076 180.159 84.202 171.948 72.5966 161.846C71.4669 161.138 70.6624 160.162 69.5327 159.454C67.2731 158.039 64.7455 156.298 63.4619 154.078C67.2687 148.755 73.0097 145.115 78.4255 141.743C79.9948 140.996 81.296 139.923 83.1906 138.908C96.3564 129.694 97.1784 127.377 90.8349 112.392C89.1293 108.334 87.9028 105.521 88.2853 104.659C88.6677 103.798 91.7492 102.896 95.7495 101.784C98.5057 101.151 101.262 100.518 104.075 99.2917C105.913 98.8696 108.076 98.1795 109.913 97.7575C122.833 94.2099 128.859 87.6027 129.945 76.3272C130.459 70.9861 133.387 68.5728 139.168 67.632C144.891 67.2847 150.021 66.8802 154.826 66.7439L159.631 66.6076C172.476 66.946 180.437 62.0225 183.246 51.5118C183.799 48.8699 184.832 47.472 186.402 46.7247C187.971 45.9773 190.67 45.9378 193.848 47.1422C203.92 51.4062 214.487 53.6217 224.743 43.5286C226.427 41.5943 228.743 42.4164 232.458 44.2714C247.202 52.8785 265.273 54.9181 281.657 49.6077C283.82 48.9175 285.925 48.8208 287.917 49.911C289.64 50.6758 290.981 52.3023 291.996 54.197L292.533 54.8476C293.28 56.4169 294.027 57.9862 295.368 59.6127L296.441 60.9139C301.918 66.2329 307.663 71.8772 317.519 65.9383C319.414 64.9228 320.658 64.4437 321.519 64.8261C322.649 65.5338 323.071 67.3713 323.111 70.0704C322.658 84.1022 325.608 87.6805 339.468 89.9135C340.923 90.3531 342.11 90.4674 343.297 90.5816C344.484 90.6959 345.671 90.8102 346.858 90.9245C355.97 92.7004 356.181 93.6191 356.243 102.31C356.397 103.822 355.957 105.277 355.518 106.732C354.907 109.968 354.239 113.796 356.269 117.586C359.47 124.782 366.248 129.028 373.37 129.714C376.337 130 378.654 130.822 379.401 132.391C379.88 133.635 379.383 135.684 377.643 138.211L377.317 138.479C376.056 142.251 375.062 146.348 374.394 150.177C372.082 158.639 374.21 164.534 381.102 167.593C383.955 169.066 385.89 170.75 386.043 172.262C386.465 174.099 384.131 176.57 381.797 179.04C381.472 179.309 381.089 180.17 380.764 180.438C380.113 180.975 380.056 181.568 379.406 182.104C371.963 190.971 372.482 194.914 380.373 203.161C384.184 207.122 386.061 209.399 386.483 211.236C386.312 213.017 383.709 215.162 378.887 218.591C377.911 219.395 376.61 220.468 375.634 221.272C374.333 222.345 373.089 222.824 371.788 223.897C363.655 230.6 361.532 233.99 367.528 243.252C371.973 249.969 370.232 252.496 364.702 257.055C363.075 258.396 361.124 260.005 359.229 261.02C356.627 263.165 354.349 265.042 351.479 266.862C343.461 272.379 340.727 279.004 343.87 286.794C345.096 289.607 345.193 291.713 344.485 292.842C343.778 293.972 342.208 294.719 339.509 294.759C324.444 295.704 316.848 303.059 314.94 316.651C314.255 323.772 307.555 324.924 303.938 325.175C301.832 325.271 300.052 325.1 297.946 325.197C295.84 325.293 294.06 325.122 291.954 325.219C282.995 324.955 271.817 325.975 266.08 338.899C264.933 341.484 263.9 342.882 262.33 343.629C260.493 344.051 258.444 343.554 255.323 341.756C254.787 341.106 253.657 340.398 253.121 339.747C252.584 339.097 251.455 338.389 250.593 338.007C245.863 334.257 243.335 332.516 240.311 332.824C237.287 333.132 234.952 335.602 231.528 340.064ZM336.064 414.517C331.738 415.897 329.922 422.311 326.406 433.951L326.292 435.138C326.063 437.512 325.509 440.154 323.289 441.438C320.551 438.778 320.032 434.835 319.513 430.892C319.359 429.38 318.937 427.542 318.515 425.705C317.671 422.03 316.559 418.03 314.145 415.102C312.268 412.825 309.741 411.084 305.587 410.684C303.481 410.781 301.815 409.422 300.474 407.796C291.796 395.281 284.956 382.344 280.011 368.391C279.743 368.066 279.8 367.472 279.532 367.147L279.263 366.822C285.558 360.54 290.724 353.55 285.378 343.752C286.029 343.216 287.655 341.875 289.493 341.453C294.948 340.78 301.322 339.897 308.501 339.989L309.419 339.778C315.411 339.756 321.077 340.002 326.071 334.793C328.405 332.322 330.186 332.494 334.054 335.861C340.929 342.213 346.35 348.125 350.2 354.785C352.02 357.656 353.515 360.794 355.335 363.665C366.888 383.644 378.383 404.217 386.146 426.227C388.542 432.448 390.019 438.879 390.52 446.115C380.449 441.851 372.387 435.384 364.536 429.837C361.74 427.771 358.944 425.705 356.417 423.964C346.038 416.675 340.389 413.137 336.064 414.517Z" fill="#231F20"/>
</g>
<defs>
<clipPath id="clip0">
<rect width="500" height="500" fill="white"/>
</clipPath>
</defs>
</svg>
