<svg width="500" height="500" viewBox="0 0 500 500" fill="none" xmlns="http://www.w3.org/2000/svg">
<path d="M494.003 360.342C490.449 355.011 485.118 349.68 479.787 346.126C488.672 339.018 492.226 330.133 494.003 319.471C495.78 308.809 492.226 298.147 485.118 289.262C481.564 285.708 478.01 282.154 474.456 278.6C490.449 262.608 490.449 235.953 474.456 219.96C472.679 218.183 470.902 216.406 469.125 214.629C465.571 212.852 462.017 211.075 458.463 209.298C470.902 191.528 470.902 168.427 456.686 152.434C469.125 127.557 462.017 97.3477 438.916 81.3548C419.369 72.4699 399.822 63.5849 380.275 58.254C366.06 52.923 350.067 45.8151 335.851 38.7071C323.412 33.3761 310.973 28.0452 298.534 22.7142C296.757 20.9372 293.203 20.9372 291.426 22.7142C278.987 19.1602 262.994 17.3832 248.778 20.9372C231.008 24.4912 213.239 31.5991 197.246 42.2611C183.03 47.592 168.814 54.7 156.375 61.8079C142.159 67.1389 127.943 74.2469 115.504 81.3548C104.842 84.9088 94.1804 90.2397 83.5184 93.7937C72.8565 99.1247 60.4176 104.456 49.7557 109.787C31.9858 116.895 15.9929 125.78 1.77699 138.218C0 139.995 0 141.772 0 145.326C0 148.88 1.77699 148.88 3.55398 150.657L5.33096 152.434C15.9929 157.765 14.2159 170.204 10.6619 180.866C10.6619 184.42 8.88494 187.974 8.88494 189.751V191.528L7.10795 193.305C3.55398 196.859 1.77699 202.19 5.33096 205.744L7.10795 207.521C19.5469 218.183 15.9929 227.068 10.6619 237.73C8.88494 241.284 8.88494 243.061 7.10795 246.615L5.33096 248.392C3.55398 250.169 1.77699 251.946 1.77699 253.723C1.77699 257.277 3.55398 259.054 5.33096 262.608C7.10795 264.385 8.88494 266.162 10.6619 267.939C21.3239 278.6 31.9858 289.262 19.5469 305.255C17.7699 308.809 17.7699 310.586 15.9929 314.14C15.9929 315.917 15.9929 315.917 15.9929 317.694C15.9929 321.248 17.7699 326.579 23.1008 326.579C23.1008 328.356 24.8778 330.133 24.8778 330.133C24.8778 333.687 24.8778 335.464 24.8778 339.018C24.8778 346.126 19.5469 355.011 15.9929 362.119C14.2159 365.673 12.4389 367.45 12.4389 371.004C12.4389 372.781 12.4389 374.558 12.4389 376.335C10.6619 379.889 12.4389 385.22 15.9929 388.774C30.2088 399.436 31.9858 417.206 23.1008 431.421C21.3239 433.198 21.3239 433.198 19.5469 434.975C17.7699 436.752 17.7699 438.529 17.7699 442.083C17.7699 443.86 19.5469 445.637 21.3239 447.414C21.3239 447.414 23.1008 447.414 23.1008 449.191C24.8778 450.968 26.6548 452.745 30.2088 452.745C47.9787 454.522 65.7486 458.076 83.5184 461.63C94.1804 461.63 106.619 461.63 119.058 463.407C127.943 465.184 136.828 465.184 147.49 466.961C186.584 472.292 227.454 474.069 266.548 475.846C286.095 475.846 303.865 475.846 323.412 477.623C328.743 477.623 335.851 479.4 341.182 479.4C348.29 481.177 357.175 481.177 364.283 481.177C369.614 481.177 374.944 481.177 380.275 479.4C394.491 472.292 410.484 465.184 422.923 456.299C431.808 450.968 440.693 447.414 447.801 443.86C458.463 438.529 469.125 433.198 479.787 427.867C481.564 426.091 483.341 424.314 483.341 422.537C501.111 404.767 504.665 379.889 494.003 360.342ZM463.794 410.098C460.24 410.098 456.686 415.429 456.686 418.983C451.355 422.537 446.024 424.314 440.693 427.867C435.362 431.421 430.031 433.198 424.7 436.752C419.369 438.529 414.038 442.083 408.707 445.637C396.268 452.745 383.829 461.63 369.613 463.407C376.721 456.299 383.829 447.414 385.606 436.752C390.937 417.206 385.606 397.659 371.391 383.443C387.383 379.889 405.153 376.335 421.146 371.004C424.7 371.004 426.477 369.227 430.031 367.45C447.801 362.119 467.348 355.011 481.564 369.227C486.895 374.558 486.895 381.666 483.341 390.551C478.01 401.213 470.902 408.321 463.794 410.098ZM385.606 77.8008C387.383 77.8008 389.16 79.5778 392.714 79.5778C412.261 86.6858 440.693 97.3477 447.801 115.118C451.355 122.226 449.578 131.11 444.247 141.772C426.477 134.664 408.707 131.11 389.16 129.333C378.498 127.556 367.837 125.78 358.952 122.226C348.29 118.672 337.628 116.895 328.743 115.118C342.959 99.1247 346.513 77.8008 337.628 58.254C337.628 56.477 335.851 56.477 335.851 54.7C337.628 56.477 341.182 56.477 342.959 58.254C353.621 63.5849 366.06 68.9159 378.498 72.4699L385.606 77.8008ZM39.0937 321.248C62.1946 317.694 85.2954 317.694 108.396 317.694H110.173C142.159 315.917 174.145 314.14 206.131 312.363C236.339 310.586 262.994 308.809 287.872 305.255C289.649 305.255 293.203 305.255 294.98 303.478C309.196 301.701 319.858 299.924 332.297 310.586C341.182 317.694 348.29 331.91 348.29 342.572C348.29 351.457 344.736 358.565 337.628 365.673L335.851 367.45C323.412 367.45 310.973 367.45 298.534 369.227C261.217 371.004 223.9 371.004 184.807 371.004C177.699 371.004 170.591 371.004 161.706 371.004C136.828 371.004 110.173 369.227 83.5184 369.227C63.9716 369.227 46.2017 369.227 26.6548 371.004C33.7628 360.342 37.3167 346.126 35.5398 331.91C40.8707 326.579 40.8707 324.802 39.0937 321.248ZM99.5113 184.42C87.0724 186.197 76.4105 187.974 65.7486 191.528C62.1946 191.528 60.4176 193.305 60.4176 195.082C58.6406 196.859 58.6406 198.636 60.4176 200.413C62.1946 203.967 63.9716 207.521 69.3025 207.521H71.0795C119.058 195.082 167.037 186.197 215.016 177.312C234.562 173.758 255.886 170.204 277.21 166.65C282.541 164.873 286.095 159.542 284.318 155.988C284.318 150.657 278.987 148.88 275.433 150.657C254.109 154.211 231.008 159.542 209.685 163.096C174.145 170.204 138.605 175.535 103.065 184.42C120.835 179.089 136.828 173.758 152.821 170.204C161.706 166.65 170.591 164.873 181.253 161.319C195.469 157.765 211.462 154.211 227.454 150.657C241.67 147.103 255.886 145.326 268.325 141.772H271.879C287.872 138.218 302.088 134.664 314.527 145.326C323.412 152.434 328.743 170.204 325.189 186.197C323.412 193.305 321.635 203.967 310.973 207.521H307.419C305.642 207.521 303.865 209.298 302.088 211.075C287.872 209.298 273.656 209.298 259.44 211.075C231.008 212.852 202.577 216.406 174.145 218.183C152.821 219.96 131.497 221.737 108.396 223.514C97.7343 223.514 87.0724 227.068 76.4105 228.845C65.7486 230.622 55.0866 232.399 44.4247 234.176C37.3167 234.176 30.2088 235.953 24.8778 235.953C28.4318 223.514 33.7628 214.629 23.1008 200.413C49.7557 193.305 74.6335 186.197 99.5113 184.42ZM438.916 203.967C437.139 203.967 437.139 205.744 435.362 205.744C428.254 205.744 421.146 205.744 414.038 207.521C406.93 207.521 401.599 209.298 396.268 209.298C387.383 209.298 378.498 209.298 369.613 207.521C360.729 207.521 351.844 205.744 342.959 205.744C341.182 205.744 339.405 205.744 337.628 205.744C348.29 180.866 344.736 150.657 326.966 131.11C337.628 132.887 350.067 136.441 360.729 138.218C371.39 141.772 383.829 143.549 394.491 145.326C401.599 147.103 410.484 148.88 417.592 150.657C422.923 152.434 426.477 152.434 431.808 154.211C442.47 155.988 447.801 168.427 449.578 177.312C449.578 187.974 447.801 200.413 438.916 203.967ZM90.6264 248.392C108.396 244.838 126.166 244.838 143.936 243.061C152.821 243.061 161.706 241.284 170.591 241.284C181.253 239.507 191.915 239.507 204.354 237.73C220.347 235.953 236.339 234.176 252.332 234.176C262.994 234.176 275.433 232.399 286.095 232.399C298.534 230.622 309.196 232.399 319.858 237.73C330.52 255.5 328.743 267.939 314.527 276.823C310.973 278.6 310.973 282.154 310.973 285.708H309.196C291.426 287.485 271.879 289.262 254.109 291.039C222.124 294.593 190.138 296.37 158.152 298.147C117.281 298.147 78.1875 299.924 37.3167 305.255C40.8707 298.147 40.8707 291.039 40.8707 283.931C37.3167 275.047 31.9858 266.162 24.8778 259.054C46.2017 251.946 69.3025 250.169 90.6264 248.392ZM465.571 335.464C463.794 337.241 463.794 337.241 463.794 339.018C463.794 340.795 463.794 340.795 463.794 342.572C456.686 342.572 449.578 342.572 444.247 344.349C430.031 346.126 417.592 351.457 403.376 355.011C390.937 358.565 376.721 362.119 364.283 365.673C371.391 355.011 373.167 342.572 369.613 330.133C366.06 315.917 357.175 303.478 342.959 294.593L396.268 292.816L431.808 291.039L451.355 289.262C460.24 287.485 465.571 289.262 469.125 294.593C472.679 303.478 472.679 317.694 465.571 335.464ZM467.348 259.054C465.571 264.385 463.794 267.939 458.463 269.716C456.686 269.716 454.909 271.493 453.132 275.047C440.693 275.047 428.254 275.047 415.815 276.823C390.937 278.6 366.06 278.6 335.851 278.6C344.736 267.939 346.513 251.946 339.405 237.73C337.628 232.399 334.074 228.845 328.743 225.291C351.844 225.291 373.167 225.291 396.268 227.068H438.916C446.024 225.291 453.132 227.068 460.24 232.399C467.348 237.73 469.125 250.169 467.348 259.054ZM300.311 116.895L298.534 118.672C294.98 118.672 291.426 118.672 287.872 120.449C264.771 127.556 241.67 131.11 218.57 136.441C193.692 141.772 167.037 147.103 142.159 154.211C127.943 157.765 113.727 161.319 99.5113 164.873C74.6335 170.204 49.7557 173.758 28.4318 184.42C28.4318 182.643 28.4318 179.089 30.2088 177.312C31.9858 163.096 33.7628 152.434 23.1008 143.549C40.8707 132.887 58.6406 124.003 78.1875 116.895C97.7343 108.01 115.504 99.1247 133.274 90.2398C143.936 84.9088 152.821 79.5778 163.483 76.0238C172.368 72.4699 179.476 68.9159 188.361 63.5849C206.131 54.7 223.9 45.8151 243.447 40.4841C273.656 29.8222 307.419 45.815 318.081 65.3619C326.966 83.1318 321.635 100.902 300.311 116.895ZM37.3167 385.22C90.6264 383.443 145.713 383.443 200.8 386.997C234.562 388.774 268.325 386.997 300.311 385.22C314.527 385.22 328.743 383.443 341.182 383.443C355.398 388.774 366.06 401.213 366.06 417.206C367.837 429.644 362.506 442.083 353.621 449.191C350.067 449.191 348.29 452.745 346.513 454.522C346.513 456.299 346.513 458.076 346.513 459.853C318.081 458.076 287.872 456.299 252.332 456.299C209.685 454.522 167.037 450.968 124.389 445.637C111.95 443.86 99.5113 442.083 88.8494 440.306C71.0795 436.752 53.3096 433.198 37.3167 433.198C46.2017 417.206 44.4247 399.436 37.3167 385.22Z" fill="#231F20"/>
<path d="M273.657 84.9079C275.434 81.3539 275.434 77.7999 273.657 76.0229C271.88 72.4689 268.326 70.692 264.772 72.4689C266.549 70.692 266.549 68.915 266.549 67.138C266.549 63.584 262.995 60.03 257.664 60.03C231.009 65.361 204.354 74.2459 177.699 84.9079C168.814 86.6849 163.483 88.4618 156.375 90.2388C138.605 95.5698 120.836 99.1238 108.397 109.786C104.843 111.563 104.843 115.117 104.843 118.671C104.843 122.225 108.397 124.002 110.174 125.779H111.951C113.728 125.779 115.505 125.779 117.282 124.002C127.943 115.117 143.936 111.563 159.929 106.232C163.483 104.455 167.037 104.455 170.591 102.678C163.483 106.232 152.821 109.786 143.936 113.34C138.605 115.117 136.828 120.448 138.605 124.002C138.605 127.556 142.159 131.11 145.713 131.11C145.713 131.11 147.49 131.11 149.267 131.11C159.929 125.779 172.368 122.225 181.253 118.671C181.253 122.225 183.03 124.002 186.584 125.779C188.361 125.779 190.138 125.779 191.915 125.779C202.577 122.225 213.239 118.671 222.124 116.894C238.117 111.563 254.11 106.232 270.103 100.901C273.656 99.1238 277.21 93.7928 275.434 90.2388C275.434 88.4618 273.657 86.6849 273.657 84.9079ZM243.448 79.5769C231.009 84.9079 220.347 86.6849 207.908 90.2388C220.347 86.6849 231.009 83.1309 243.448 79.5769Z" fill="#231F20"/>
<path d="M154.598 211.076C179.475 207.522 204.353 200.414 225.677 195.083H229.231C247.001 189.752 264.771 184.421 282.541 184.421C286.095 184.421 287.872 182.644 287.872 182.644C289.649 180.867 289.649 179.09 289.649 177.313C289.649 171.982 286.095 168.428 280.764 168.428C264.771 170.205 248.778 173.759 234.562 179.09C223.9 180.867 211.461 184.421 200.799 186.198C184.806 189.752 170.59 193.306 154.598 196.86C151.044 196.86 149.267 198.637 147.49 202.191C145.713 205.745 147.49 209.299 149.267 211.076C149.267 211.076 152.821 211.076 154.598 211.076Z" fill="#231F20"/>
<path d="M220.347 198.637C215.016 200.414 213.239 203.968 215.016 209.299C216.793 212.853 218.57 216.407 223.901 216.407H225.678C248.778 209.299 271.879 207.522 296.757 207.522C302.088 207.522 303.865 203.968 303.865 200.414C303.865 195.083 300.311 191.529 294.98 191.529C270.102 187.975 245.225 191.529 220.347 198.637Z" fill="#231F20"/>
<path d="M360.729 152.435C358.952 150.658 355.398 150.658 351.844 150.658C348.29 150.658 346.513 152.435 344.736 152.435C342.959 154.212 342.959 155.989 342.959 157.766C342.959 163.097 346.513 166.651 351.844 166.651H353.621C355.398 170.205 351.844 182.644 350.067 184.421C348.29 189.752 350.067 195.083 355.398 196.86H357.175C364.283 198.637 373.168 198.637 380.276 198.637C387.384 198.637 394.492 198.637 401.6 200.414H403.377C405.154 200.414 406.931 200.414 408.708 198.637C410.485 196.86 412.262 195.083 412.262 193.306V191.529C412.262 189.752 412.262 187.975 412.262 186.198C412.262 177.313 414.039 168.428 406.931 161.32C390.938 154.212 374.945 150.658 360.729 152.435ZM369.614 170.205C376.722 170.205 385.607 171.982 390.938 173.759C392.715 175.536 394.492 179.09 392.715 184.421C389.161 184.421 385.607 184.421 383.83 184.421C382.053 184.421 380.276 184.421 380.276 184.421C376.722 184.421 373.168 184.421 369.614 184.421C369.614 179.09 369.614 173.759 369.614 170.205Z" fill="#231F20"/>
<path d="M428.254 310.587C428.254 305.256 422.923 301.702 419.369 303.479H417.592C412.262 305.256 406.931 305.256 399.823 307.033C394.492 307.033 389.161 308.81 385.607 308.81C382.053 307.033 378.499 308.81 374.945 310.587C373.168 314.141 373.168 317.695 374.945 321.249C378.499 326.58 380.276 333.688 378.499 339.019C378.499 340.796 378.499 344.349 380.276 346.126C382.053 347.903 383.83 349.68 385.607 349.68H387.384C389.161 349.68 390.938 349.68 390.938 347.903C392.715 347.903 392.715 347.903 394.492 349.68C406.931 349.68 417.592 347.903 428.254 344.349C431.808 342.572 433.585 340.796 433.585 337.242C431.808 326.58 430.031 317.695 428.254 310.587ZM414.039 328.357C408.708 330.134 401.6 331.911 394.492 331.911C394.492 328.357 394.492 326.58 392.715 323.026C396.269 323.026 399.823 323.026 403.377 321.249C406.931 321.249 410.485 321.249 412.262 319.472C414.039 323.026 414.039 324.803 414.039 328.357Z" fill="#231F20"/>
<path d="M387.383 237.73H385.606C383.829 239.507 382.052 241.284 382.052 244.838C380.275 241.284 380.275 237.73 376.721 234.176C374.944 230.622 371.39 230.622 367.836 230.622C364.282 230.622 362.505 232.399 360.728 235.953C358.951 237.73 360.728 241.284 362.505 243.061C366.059 248.392 366.059 253.723 366.059 259.054C366.059 264.385 369.613 266.162 373.167 266.162C378.498 266.162 382.052 262.608 382.052 257.277C382.052 253.723 382.052 250.169 382.052 246.615C383.829 250.169 383.829 253.723 383.829 257.277C383.829 260.831 385.606 262.608 387.383 264.385C389.16 264.385 390.937 266.162 390.937 266.162C392.714 266.162 394.491 266.162 396.268 264.385C399.822 262.608 399.822 260.831 399.822 257.277C399.822 251.946 398.045 246.615 396.268 241.284C396.268 237.73 390.937 235.953 387.383 237.73Z" fill="#231F20"/>
</svg>
