<svg width="500" height="500" viewBox="0 0 500 500" fill="none" xmlns="http://www.w3.org/2000/svg">
<path d="M327.922 295C324.778 283.682 321.005 269.218 318.804 258.528C314.717 234.004 311.887 223.314 308.743 219.541C307.171 216.711 303.712 214.51 298.996 213.881C293.022 212.938 284.218 214.196 279.188 218.912L267.869 226.458L275.1 244.694C277.301 249.096 281.389 266.074 285.79 283.996C287.362 290.599 288.935 297.201 290.507 303.49C296.795 334.931 299.939 348.451 307.171 355.368C311.572 359.77 314.717 361.342 319.118 361.342C321.948 361.342 325.092 360.399 329.494 359.141L329.809 358.827C337.983 354.74 338.298 339.333 331.381 308.206C330.752 304.747 329.494 300.031 327.922 295ZM290.507 228.659C291.45 227.715 294.594 227.401 297.109 227.401C300.254 227.401 301.826 234.318 311.572 275.192L315.974 294.057C317.546 308.206 319.118 320.783 320.376 330.215C321.319 339.019 322.263 345.621 322.263 347.194C322.263 348.137 321.948 348.766 321.634 349.08C320.691 349.709 318.49 349.709 314.717 347.822C312.83 344.993 310 333.045 306.542 311.979V311.35C300.568 294.372 293.965 268.59 293.965 252.554V251.926C291.45 242.179 288.62 230.86 290.507 228.659Z" fill="#231F20"/>
<path d="M233.912 269.533V268.904C234.54 260.415 232.025 251.926 226.994 245.008C211.274 216.711 188.007 208.222 154.364 218.597L153.421 218.912C147.447 222.999 140.53 224.886 133.298 224.571H130.154V227.716C130.154 239.663 130.783 254.755 134.242 258.214L135.185 259.157H136.443C141.159 258.843 145.875 257.899 149.963 255.699C165.998 251.297 183.605 253.812 190.522 258.843C191.465 259.786 192.723 260.729 192.723 262.301C192.723 268.275 190.522 271.419 170.085 274.878L147.447 278.651L151.535 291.228C151.849 295.944 153.107 300.346 154.993 304.433L155.936 306.32H158.137C163.797 306.005 169.142 305.062 174.487 303.175C188.321 300.346 196.81 302.547 209.387 311.979C219.763 319.839 221.021 326.757 214.732 342.477C208.758 350.967 185.492 359.141 168.199 353.482H167.57C154.05 351.281 150.277 350.652 148.39 353.796C146.818 356.312 148.076 359.141 151.535 363.858V376.749L152.478 377.692C154.05 379.264 160.653 379.893 169.456 379.893C190.522 379.893 224.165 376.434 231.711 372.032C243.973 367.631 249.947 347.194 252.462 335.246C255.921 318.582 249.004 298.459 235.798 285.254C231.396 279.909 231.082 278.337 233.912 269.533ZM241.458 331.473C240.514 343.421 234.855 353.482 226.051 360.085L225.737 360.399C220.706 365.43 215.99 365.744 193.666 365.744C205.3 362.286 216.933 356.941 223.536 352.539L224.165 352.224C231.711 344.678 234.54 324.241 231.082 314.494L230.767 313.866L230.139 313.237C229.51 312.608 228.252 311.35 227.309 309.778C223.85 305.376 218.191 298.774 210.959 294.057C203.413 288.398 197.754 285.883 190.837 285.883C185.177 285.883 178.889 287.455 170.4 290.284L170.085 290.599C169.456 290.913 168.827 291.228 168.513 291.228C168.513 290.913 168.513 290.599 168.513 290.284C168.513 288.083 168.513 287.14 168.827 286.826C169.771 286.197 173.229 285.254 178.26 283.996C197.439 283.996 206.243 277.079 206.243 261.987C206.243 256.642 204.356 252.24 200.583 248.781C193.981 242.808 182.033 240.921 165.369 243.122C145.875 243.122 143.045 240.921 142.417 240.292C142.417 240.292 142.417 239.035 145.561 235.89C154.993 229.916 182.033 224.257 189.893 227.087C201.841 230.231 221.964 251.297 221.964 258.528C221.964 263.559 220.077 268.59 216.619 272.048C211.902 276.764 210.016 278.651 211.274 281.166C212.217 283.053 213.789 283.682 216.619 283.682C217.876 285.568 220.077 287.455 222.593 289.655C224.479 291.228 226.994 293.114 229.195 295.315C237.999 304.747 242.715 318.267 241.458 331.473Z" fill="#231F20"/>
<path d="M466.265 382.408C463.75 376.435 457.147 375.177 448.029 375.177C439.225 375.177 439.225 375.177 431.68 359.771C428.221 353.168 425.391 346.251 422.876 339.019C422.247 335.246 420.989 331.787 419.732 328.643L419.103 327.071C418.16 324.87 417.216 322.041 416.273 319.211C403.382 283.682 400.867 236.205 400.867 161.06C400.867 130.876 400.867 85.2853 402.753 79.6258L403.068 78.997C404.64 76.1673 406.526 72.3943 404.011 68.3069C400.867 63.5906 397.094 63.5906 372.255 63.5906H348.045L350.246 45.6689L354.019 19.8868L338.612 8.25342C323.835 -2.75114 320.691 -2.75114 305.913 8.25342L290.507 19.8868L293.965 45.3545V46.2978C295.223 51.6428 296.166 56.9879 296.795 62.6474C288.306 63.5906 267.554 63.5906 253.091 63.5906H252.462C241.143 64.8483 229.824 65.4771 219.763 66.106C203.099 67.0492 193.981 67.9925 188.95 69.5645H180.776V47.5554C180.776 23.3454 178.26 15.485 167.884 10.4543L166.627 9.8255H146.504C140.53 9.51108 134.242 11.3976 129.84 16.1138C123.866 22.7166 122.294 34.0355 124.181 54.1582V55.4158C125.753 61.0753 126.382 66.7348 126.067 72.7087H101.228C68.2146 75.8529 56.2668 83.3988 45.5766 108.238V110.124C42.4325 130.247 39.2883 272.992 45.5766 338.39C48.7208 363.229 48.7208 396.872 48.7208 419.195C48.7208 447.807 45.8911 454.724 40.546 468.244L33 490.253V491.196C33 493.712 34.2577 496.227 36.4586 497.799H36.773C39.2883 499.057 41.8036 500 44.319 500C44.6334 500 44.9478 500 45.2622 500C49.9785 500 54.6947 499.057 59.0965 497.485C63.1839 497.485 69.4723 497.17 77.3327 496.856L81.1056 496.541C97.1409 495.598 121.665 494.341 146.504 494.341C210.959 491.511 264.41 488.367 313.459 478.62C326.35 477.991 339.241 475.79 351.503 472.331C357.163 472.017 362.822 471.388 368.482 470.445C371.94 469.816 375.399 469.502 378.858 469.187C387.032 469.187 394.578 463.213 403.068 450.322L403.382 449.693C404.954 446.549 407.469 444.663 410.614 443.72C422.876 443.405 446.457 426.427 450.544 418.252L450.859 417.623C453.06 411.649 455.89 405.675 459.348 400.016C460.606 398.129 461.549 395.928 462.492 394.042C467.523 389.326 467.208 384.924 466.265 382.408ZM61.2974 350.024C55.3235 233.061 55.638 142.509 61.2974 112.325C61.2974 113.897 61.2974 115.469 61.2974 117.041C58.1533 151.627 58.1533 240.292 61.2974 275.193C71.0443 328.643 79.2192 361.971 86.7651 376.749C87.394 378.321 88.3372 379.893 89.5949 381.78C92.4246 386.81 95.8832 393.413 95.8832 397.5V398.129C96.8265 403.474 99.3418 408.505 103.115 412.278L104.058 413.221H105.001C106.259 414.479 108.46 419.195 109.718 422.025C110.346 423.911 111.29 425.483 111.918 427.055C114.434 434.601 117.578 442.147 121.351 449.379L121.665 450.322L122.609 450.637C129.84 454.095 130.155 456.611 130.155 457.239C130.155 458.497 130.155 461.012 132.041 462.899C136.128 466.672 144.618 466.358 196.182 463.528C275.1 460.384 325.407 457.239 347.73 450.951C368.796 445.606 383.888 443.405 389.862 443.405H390.177C387.661 446.864 378.543 451.58 362.194 454.095H361.565C354.962 456.296 340.184 458.497 325.721 460.698C319.747 461.641 313.773 462.585 308.428 463.528C254.663 474.218 204.671 478.934 170.714 476.104C163.797 476.104 153.107 476.733 141.159 477.362C126.067 478.305 109.403 479.249 95.2544 479.249L50.2929 482.078L54.0659 474.532C67.5858 454.41 67.5858 431.457 61.2974 350.024ZM144.932 145.339C158.766 152.256 160.653 151.942 171.029 138.107C177.946 127.731 177.946 127.103 177.946 107.923L174.802 91.5737L185.177 89.0583L185.492 88.7439C188.322 86.8574 206.872 84.0277 240.829 82.4556C266.926 81.1979 291.45 81.5123 298.367 82.4556C299.939 84.3421 299.939 87.4862 299.939 101.321L296.481 125.845L308.114 129.618C313.459 132.133 319.433 133.077 325.092 133.077L326.036 132.762C336.411 129.304 347.102 113.268 347.102 92.2025V77.1105L362.194 79.6258H383.259C384.517 84.0277 384.517 100.063 384.517 117.041L381.687 155.715L374.141 158.23L373.827 158.544C368.167 161.374 341.757 161.374 318.49 161.374C290.507 161.374 255.292 161.374 233.283 164.518C222.278 166.09 207.815 167.662 193.981 169.234C180.147 170.806 165.684 172.379 154.679 173.951C142.102 173.951 126.696 174.894 113.176 175.837C103.115 176.466 94.3111 177.095 88.966 177.095L67.2713 179.925L70.1011 152.256C73.2453 110.753 76.075 100.692 77.3327 98.4908C79.5336 98.1764 80.7912 96.9187 81.7345 95.9755C82.3633 95.3466 82.3633 95.3466 82.6777 95.3466H85.8219V93.1457C87.394 92.5169 91.4814 91.8881 95.2544 91.2592C98.7129 90.6304 103.115 90.0016 108.145 89.0583H127.325V104.465C124.181 130.561 127.639 138.736 144.932 145.339ZM162.225 128.36C158.452 133.391 155.937 136.85 154.365 137.164C152.792 137.478 149.648 136.221 144.618 133.391L136.757 128.36L139.901 79.9403V79.6258C139.901 55.1014 139.901 31.8346 141.788 26.1751H155.308L161.911 28.6905L165.055 76.7961C165.055 115.469 165.055 122.701 162.225 128.36ZM334.211 75.8529C331.695 105.408 331.381 110.753 326.036 118.928C322.577 124.273 321.005 124.587 320.691 124.587C320.376 124.587 318.804 124.273 315.346 118.928L315.031 118.613C309.686 111.696 310.001 33.0923 315.346 24.9175C317.861 20.8301 319.747 18.9436 321.319 18.9436H321.634C323.52 18.9436 326.665 20.8301 329.809 22.7166L330.123 23.031C334.839 24.9175 334.839 31.2058 334.839 67.0492L334.211 75.8529ZM422.876 381.465C422.247 382.723 416.273 383.666 410.299 384.609C405.269 384.609 395.836 386.496 383.574 388.382C379.172 389.011 374.141 389.954 369.111 390.898L368.482 391.212C353.39 397.186 325.407 400.33 306.542 400.33C238.942 403.474 225.423 406.304 198.383 412.592L187.693 415.108C166.627 419.824 162.854 420.453 159.395 427.37L158.766 427.999V428.628C158.766 433.344 153.421 439.003 150.592 441.833C147.133 443.72 144.303 446.235 142.102 449.379C137.386 444.348 126.067 428.942 120.722 417.937C82.6777 341.849 73.8741 306.949 70.7299 220.799C67.9002 194.702 67.9002 194.702 72.302 192.501C76.7038 190.3 80.4768 188.414 84.2498 188.414C85.5075 188.414 87.0796 188.728 88.3372 189.357L88.966 189.671H89.5949C105.001 189.671 179.518 183.698 231.396 177.095C271.956 173.951 275.1 173.951 321.948 173.951C335.783 176.152 349.617 175.208 359.678 174.579C363.451 174.265 366.91 173.951 369.425 173.951L382.316 171.435L385.146 205.392C388.29 280.538 397.723 328.643 416.902 367.002C420.361 373.919 423.505 380.208 422.876 381.465ZM161.911 451.58C161.911 451.266 161.911 450.951 161.911 450.637H163.168L164.111 449.693C167.884 445.606 170.4 440.89 171.343 435.545V434.916C171.343 432.086 171.343 428.628 181.09 428.628C191.151 427.684 200.898 425.483 209.702 422.339C234.541 416.051 256.864 416.051 287.677 416.051L298.367 415.108C334.525 412.278 371.626 409.134 391.749 403.474C406.212 399.701 436.71 393.727 444.571 393.413C442.998 399.072 432.308 416.68 427.278 419.51C417.531 422.654 333.267 441.204 289.878 444.348C239.257 450.637 174.173 452.838 161.911 451.58Z" fill="#231F20"/>
</svg>
