<svg width="500" height="500" viewBox="0 0 500 500" fill="none" xmlns="http://www.w3.org/2000/svg">
<path d="M497.402 370.579C496.065 365.231 494.728 361.219 494.728 357.208V355.871C496.065 319.769 494.728 283.668 490.716 248.903C486.705 211.464 482.694 172.688 478.682 135.249C474.671 100.485 459.963 77.7538 435.895 71.0683C422.524 68.3941 407.816 68.3941 394.445 71.0683C371.714 72.4054 351.658 73.7425 332.938 73.7425H331.601C327.59 64.3828 320.904 56.3602 311.545 53.686C311.545 37.6408 311.545 16.2471 291.488 6.88743C282.128 4.21323 271.432 2.87613 260.735 2.87613C252.712 2.87613 243.353 1.53902 235.33 1.53902C229.982 1.53902 224.633 0.201923 219.285 0.201923C196.554 -1.13518 173.823 4.21323 153.767 14.91C135.047 26.944 136.384 51.0118 136.384 68.3941C136.384 71.0683 136.384 75.0796 136.384 77.7538C136.384 80.428 135.047 81.7651 133.71 84.4393C133.71 84.4393 133.71 84.4393 133.71 85.7764C132.373 85.7764 131.036 85.7764 129.699 85.7764C123.013 85.7764 116.328 85.7764 109.642 85.7764C105.631 85.7764 101.62 85.7764 97.6084 85.7764C68.1922 84.4393 24.0678 83.1022 6.68551 108.507C4.01131 108.507 1.3371 111.181 0 112.518V115.193V116.53C0 148.62 4.01131 179.374 8.02261 210.127C10.6968 230.183 13.371 251.577 14.7081 271.634C16.0452 285.005 16.0452 299.713 16.0452 313.084C16.0452 326.455 17.3823 339.826 17.3823 351.86C17.3823 358.545 18.7194 365.231 18.7194 371.916C20.0565 389.299 21.3936 406.681 21.3936 425.4C21.3936 430.749 24.0678 434.76 28.0791 436.097C40.1131 449.468 56.1583 452.142 73.5406 452.142C81.5632 452.142 90.9229 450.805 97.6084 450.805C102.957 450.805 108.305 449.468 113.654 449.468C161.789 446.794 209.925 444.12 258.061 441.445L278.117 440.108C331.601 437.434 387.76 433.423 442.581 425.4C445.255 425.4 447.929 424.063 450.603 424.063C463.974 422.726 477.345 421.389 489.379 410.692C504.087 399.995 500.076 383.95 497.402 370.579ZM216.611 424.063C188.531 426.737 159.115 428.074 129.699 429.412C123.013 429.412 114.991 430.749 105.631 430.749C82.9003 433.423 54.8212 436.097 42.7873 422.726C42.7873 353.197 34.7646 283.668 28.0791 215.475C25.4049 184.722 21.3936 153.969 18.7194 123.215V121.878C24.0678 107.17 49.4728 104.496 64.1809 104.496H66.8551C77.5519 103.159 89.5858 104.496 101.62 104.496C108.305 104.496 113.654 104.496 120.339 104.496C144.407 104.496 168.475 101.822 191.206 100.485C200.565 99.1475 208.588 99.1475 217.948 97.8103C252.712 96.4733 287.477 93.799 323.579 93.799C344.972 93.799 365.029 92.4619 386.422 91.1248C397.119 89.7877 407.816 89.7877 418.513 89.7877C450.603 88.4506 455.952 124.552 457.289 161.991V163.328C458.626 183.385 461.3 202.104 463.974 220.824C465.311 234.195 467.986 247.566 469.323 260.937C473.334 295.701 473.334 330.466 471.997 363.894C471.997 367.905 473.334 370.579 476.008 373.253C480.02 387.961 480.02 394.647 473.334 398.658L470.66 399.995C450.603 405.344 430.547 408.018 410.49 409.355C370.377 414.703 330.264 417.378 291.488 418.715L264.746 420.052C247.364 421.389 231.319 422.726 216.611 424.063ZM168.475 30.9553C184.52 24.2698 201.902 20.2584 220.622 21.5956C229.982 21.5956 239.341 22.9327 248.701 22.9327C256.724 22.9327 263.409 24.2698 271.432 24.2698C286.14 24.2698 290.151 28.2811 291.488 40.315C291.488 44.3263 291.488 48.3376 291.488 52.3489C290.151 51.0118 290.151 49.6747 288.814 48.3376C283.466 40.315 278.117 32.2924 267.42 28.2811C259.398 25.6069 251.375 24.2698 243.353 24.2698C238.004 24.2698 232.656 24.2698 227.307 25.6069C221.959 25.6069 216.611 26.944 211.262 26.944C208.588 26.944 205.914 26.944 203.239 26.944C191.206 26.944 175.16 25.6069 164.464 36.3037C161.789 40.315 159.115 42.9892 157.778 47.0005C159.115 38.9779 161.789 33.6295 168.475 30.9553ZM298.174 73.7425C299.511 72.4054 300.848 72.4054 302.185 72.4054C303.522 72.4054 306.196 72.4054 307.533 73.7425H298.174ZM185.857 47.0005C199.228 45.6634 211.262 45.6634 224.633 45.6634H225.97H227.307C240.678 42.9892 254.049 44.3263 264.746 48.3376C268.757 49.6747 271.432 55.0231 274.106 59.0344C275.443 61.7086 278.117 65.7199 280.791 68.3941C280.791 69.7312 279.454 72.4054 279.454 75.0796C258.061 76.4167 236.667 77.7538 213.936 79.0909L183.183 81.7651C180.509 77.7538 177.835 75.0796 175.16 72.4054C173.823 57.6973 176.497 49.6747 185.857 47.0005Z" fill="#231F20"/>
<path d="M308.87 357.208C307.533 341.162 307.533 325.117 308.87 310.409C312.881 307.735 320.904 307.735 326.252 307.735C332.938 307.735 336.949 306.398 339.623 306.398C347.646 303.724 352.994 295.701 352.994 286.341C351.657 266.285 347.646 246.228 340.96 226.172C339.623 222.16 335.612 219.486 330.264 219.486C318.23 220.823 307.533 220.823 295.499 220.823H291.488C290.151 220.823 288.813 220.823 287.476 220.823C287.476 219.486 287.476 219.486 286.139 216.812C286.139 203.441 283.465 190.07 278.117 176.699C268.757 156.642 242.015 161.991 223.295 166.002C216.61 167.339 211.262 168.676 207.25 168.676C201.902 168.676 197.891 174.025 197.891 179.373C196.553 194.081 197.89 208.789 199.228 223.497C185.857 222.16 167.137 223.497 157.777 231.52C148.418 240.88 151.092 255.588 153.766 268.959C153.766 272.97 155.103 275.644 155.103 278.319C156.44 309.072 173.823 315.757 183.182 315.757C187.194 315.757 191.205 315.757 195.216 315.757C205.913 314.42 209.924 315.757 211.262 318.432C215.273 333.14 217.947 347.848 217.947 363.893C217.947 369.242 223.295 374.59 228.644 374.59C232.655 374.59 236.666 374.59 240.678 374.59C251.375 374.59 262.071 373.253 272.768 371.916C282.128 370.579 290.151 369.242 299.51 369.242C304.859 367.904 308.87 362.556 308.87 357.208ZM288.813 302.386C287.476 309.072 287.476 315.757 287.476 321.106V347.848C271.431 350.522 255.386 351.859 239.341 351.859C238.004 334.477 233.992 318.432 229.981 302.386C227.307 297.038 223.295 294.364 217.947 294.364C205.913 294.364 193.879 294.364 181.845 293.027C176.497 291.69 175.16 282.33 175.16 271.633C175.16 270.296 175.16 267.622 175.16 266.285C175.16 263.611 173.823 260.936 173.823 256.925C172.486 252.914 171.148 246.228 172.486 246.228C183.182 242.217 193.879 242.217 204.576 244.891C207.25 246.228 209.924 244.891 212.599 244.891C217.947 244.891 221.958 240.88 223.295 235.531C223.295 232.857 223.295 228.846 220.621 227.509C220.621 220.823 220.621 214.138 219.284 207.452C219.284 202.104 219.284 198.093 219.284 192.744C219.284 191.407 219.284 188.733 219.284 187.396C232.655 186.059 246.026 184.722 259.397 183.384C262.071 184.722 264.746 192.744 266.083 223.497C266.083 227.509 266.083 230.183 266.083 232.857C267.42 238.206 272.768 240.88 276.78 240.88H307.533C312.881 240.88 318.23 240.88 323.578 240.88C323.578 243.554 324.915 246.228 324.915 248.902C324.915 250.239 324.915 251.577 324.915 252.914C328.926 263.611 331.601 275.644 331.601 286.341C328.926 287.678 319.567 287.678 315.555 287.678C314.218 287.678 311.544 287.678 310.207 287.678C295.499 289.015 290.151 297.038 288.813 302.386Z" fill="#231F20"/>
</svg>
