<svg width="500" height="500" viewBox="0 0 500 500" fill="none" xmlns="http://www.w3.org/2000/svg">
<g clip-path="url(#clip0)">
<path d="M495.933 103.015C491.642 98.226 489.203 92.061 489.057 85.6322V84.8574L488.572 82.5816C484.215 69.5563 477.968 57.4025 461.699 56.6277C440.054 51.2045 379.382 93.3796 367.228 101.999L365.63 103.112C364.468 89.4091 363.161 66.8931 363.161 56.5793L357.06 13H309.897C269.708 13 234.892 18.1327 176.545 32.756L175.576 33.0465C153.109 42.0529 124.637 42.0529 77.4743 42.0529H0V76.6258C0.387372 82.4848 0.823165 95.4617 1.25896 108.003C1.69475 121.367 2.08212 134.054 2.51792 139.574C6.34321 188.964 9.63587 231.574 9.68429 323.575C10.798 339.457 11.6696 365.363 12.3959 386.233C12.7833 397.902 13.1222 408.41 13.4612 415.285C15.7854 462.884 16.4633 474.36 21.4023 479.492C22.1611 480.701 23.1094 481.78 24.2107 482.688C28.5367 485.428 33.6306 486.702 38.7372 486.32C47.6493 486.002 56.4993 484.703 65.1269 482.446C80.299 479.053 95.826 477.508 111.369 477.846C120.95 476.856 130.378 474.727 139.454 471.503C149.138 468.598 160.323 465.353 171.364 463.126L173.3 462.545C204.92 449.035 232.762 443.951 276.341 443.951H277.358C322.39 437.511 343.599 433.201 352.944 428.505L354.397 427.778L355.51 426.665C356.237 425.938 358.851 424.679 368.003 424.679C372.845 424.679 387.372 424.679 387.372 303.626V220.389L399.332 208.429L399.961 207.654C409.064 195.549 432.985 179.909 452.208 167.319C460.488 161.896 468.332 156.812 474.385 152.357C486.975 147.273 496.32 132.698 499.177 120.738C501.453 111.053 498.741 105.776 495.933 103.015ZM42.9498 441.094C38.7372 422.646 34.1371 305.417 29.7792 192.159L24.2107 79.3858L63.7226 66.2636H135.58C160.354 65.246 184.987 62.0049 209.181 56.5793L210.004 56.3372C231.89 47.4761 264.575 42.0529 295.371 42.0529H334.592L343.792 132.117L296.969 174.243C264.672 206.395 246.949 224.069 241.575 223.391C239.88 223.149 237.362 218.549 234.65 213.997C233.827 212.545 232.907 211.044 231.939 209.397C222.254 185.768 178.046 134.054 164.633 134.054C158.871 134.054 115.195 163.107 107.641 178.456C106.754 178.922 106.008 179.617 105.48 180.468C104.952 181.32 104.662 182.297 104.639 183.298C104.639 188.721 112.241 191.82 119.795 192.111C136.984 201.844 179.159 260.676 198.818 314.908V315.392C204.36 326.251 211.153 336.424 219.059 345.704C227.871 354.517 236.829 349.335 269.514 316.651C297.587 288.635 327.514 262.541 359.094 238.547C361.789 260.103 363.147 281.805 363.161 303.529V386.184C363.175 389.325 362.194 392.39 360.359 394.939C358.523 397.488 355.927 399.39 352.944 400.372C352.121 400.653 351.313 400.976 350.523 401.34C341.517 405.214 319.582 410.056 296.824 410.056C295.591 410.054 294.36 410.152 293.143 410.346C279.876 412.574 267.625 414.511 256.198 416.351C218.913 422.307 189.425 427.003 163.132 434.509C149.816 439.109 122.216 448.212 103.622 448.793C101.989 448.853 100.366 449.08 98.7798 449.471C83.7964 453.358 68.5984 456.366 53.2636 458.477C50.029 458.601 46.7898 458.455 43.5793 458.042V446.566C43.5908 444.723 43.3795 442.886 42.9498 441.094V441.094ZM267.141 295.83C264.769 298.009 260.411 301.301 256.15 304.497C251.888 307.693 246.853 311.47 244.093 314.181C239.816 316.561 235.706 319.231 231.793 322.171C229.953 323.478 227.581 325.222 225.644 326.432C221.823 316.372 217.492 306.514 212.667 296.895C198.528 263.533 169.475 214.336 143.86 188.77L132.772 177.633L143.279 167.126C151.365 163.107 161.05 158.264 164.633 158.264C172.235 159.717 213.684 203.829 223.174 227.604C229.711 246.972 235.231 255.107 242.543 255.107H244.819L246.272 253.413C263.951 232.757 283.13 213.433 303.651 195.597C380.786 118.462 441.749 79.0953 457.195 84.8574C462.135 89.9499 466.413 95.6439 469.93 101.805L473.901 121.706L457.825 129.744L457.05 130.277C446.301 138.605 436.423 146.111 426.835 153.374C393.559 177.971 361.559 204.25 330.961 232.107C324.811 237.337 274.211 280.964 267.141 295.878V295.83Z" fill="#231F20"/>
</g>
<defs>
<clipPath id="clip0">
<rect width="500" height="473.32" fill="white" transform="translate(0 13)"/>
</clipPath>
</defs>
</svg>
