<svg width="288" height="279" viewBox="0 0 288 279" fill="none" xmlns="http://www.w3.org/2000/svg">
<g clip-path="url(#clip0)">
<path d="M7.54564 170.462C7.28209 170.188 7.11857 169.833 7.08149 169.455C7.0444 169.077 7.13593 168.697 7.34128 168.377C27.5216 138.289 54.578 112.936 81.5077 98.6971C89.5028 94.4874 130.246 74.4937 147.564 94.499C148.967 96.1362 150.161 97.9415 151.119 99.8735C155.073 107.772 154.39 115.876 153.614 124.497C153.142 130.064 152.633 135.848 153.537 141.506C154.289 146.971 156.551 152.118 160.067 156.368C162.329 159.037 165.228 161.09 168.496 162.338C171.764 163.586 175.294 163.988 178.759 163.506C185.896 162.736 193.357 160.034 201.571 155.251C208.815 151.03 215.463 145.738 221.9 140.629C229.088 134.922 236.517 129.02 244.76 124.622C252.222 120.692 260.256 117.959 268.567 116.525L268.536 115.097C256.374 113.554 244.123 112.821 231.864 112.904C231.632 112.922 231.399 112.887 231.181 112.803C230.964 112.718 230.769 112.586 230.609 112.416C230.403 112.126 230.278 111.786 230.248 111.431C230.217 111.076 230.282 110.719 230.435 110.398C230.585 110.027 230.839 109.708 231.166 109.479C231.494 109.25 231.88 109.12 232.279 109.105C250.484 108.378 268.695 110.385 286.304 115.058C286.559 115.12 286.791 115.255 286.971 115.446C287.125 115.663 287.215 115.92 287.23 116.185C287.245 116.451 287.184 116.716 287.054 116.948C286.934 117.223 286.738 117.458 286.488 117.625C286.239 117.791 285.947 117.883 285.647 117.889L285.398 117.892L285.242 117.895L285.007 117.914L284.818 118.077C282.258 120.055 279.485 121.848 276.8 123.59C274.413 125.141 271.929 126.749 269.606 128.495C267.022 130.415 264.57 132.564 262.208 134.648C259.846 136.732 257.165 139.014 254.497 141.019C254.233 141.211 253.906 141.297 253.582 141.259C253.257 141.221 252.959 141.063 252.746 140.815C252.588 140.639 252.498 140.412 252.492 140.175C252.486 139.938 252.563 139.707 252.712 139.522C257.77 131.996 266.666 124.427 275.94 119.785L275.541 118.423C261.179 119.984 247.292 125.684 234.241 135.329C230.414 138.165 226.664 141.213 223.028 144.163C215.137 150.571 206.974 157.2 197.705 161.878C190.514 165.458 176.854 170.961 165.523 166.948C161.509 165.484 157.949 162.993 155.196 159.725C150.449 154.01 147.586 146.967 146.999 139.561C146.801 135.261 146.954 130.952 147.459 126.677C148.359 116.64 149.237 106.211 143.255 99.3003C141.311 97.1186 138.88 95.4256 136.16 94.3586C124.543 89.6018 108.532 92.4049 87.2349 102.945C64.0726 114.385 47.6241 131.733 30.2465 150.07C23.7407 156.932 17.0191 164.033 9.95917 170.714C9.81703 170.859 9.64638 170.974 9.45788 171.051C9.26939 171.127 9.06712 171.164 8.86368 171.159C8.6083 171.138 8.35989 171.065 8.13338 170.945C7.90687 170.826 7.70694 170.661 7.54564 170.462Z" fill="#1C93B1"/>
</g>
<defs>
<clipPath id="clip0">
<rect width="152.77" height="247.27" fill="white" transform="translate(187.866 0.963867) rotate(49.118)"/>
</clipPath>
</defs>
</svg>
