<svg width="500" height="500" viewBox="0 0 500 500" fill="none" xmlns="http://www.w3.org/2000/svg">
<g clip-path="url(#clip0)">
<path d="M111.179 270.326C102.173 279.332 93.6203 288.489 86.0232 296.589C72.5396 311.129 60.8672 323.707 51.7105 329.795L50.9558 330.449C45.4718 335.983 40.1387 342.473 42.604 348.41C44.1637 352.184 48.2389 354.096 54.5782 354.096C54.5782 361.24 60.8169 368.434 72.6905 369.189C79.9858 375.227 87.7841 373.415 97.0918 368.736L97.6453 368.434C108.211 361.391 113.343 361.34 114.399 361.944C115.456 362.548 114.953 363.051 114.953 364.208C114.953 376.233 140.813 422.117 156.46 437.966C172.509 458.946 233.437 489.535 269.762 494.919C284.919 498.824 300.559 500.518 316.2 499.95H316.854H317.458C333.306 496.026 383.518 480.228 390.209 473.486L391.668 472.027V469.914C392.408 467.069 393.708 464.401 395.492 462.065C397.102 459.499 399.014 456.38 400.976 452.556C420.396 427.652 441.98 376.535 441.98 344.033C441.98 336.788 435.641 325.669 425.78 315.708C414.309 298.752 411.793 298.752 381.606 298.752L378.99 299.054C335.369 304.085 326.263 304.89 326.263 344.033V344.788C330.64 374.975 319.722 389.565 284.403 399.678C273.862 402.928 262.881 404.523 251.851 404.407C245.17 401.363 237.957 399.654 230.62 399.376C225.589 399.376 225.589 399.376 225.589 389.314V374.22H220.557C220.054 374.22 219.4 373.264 218.947 372.258C216.908 366.405 216.697 360.071 218.344 354.096H235.701C240.866 353.597 245.692 351.3 249.336 347.605L250.795 346.146V344.033C250.795 328.94 241.839 308.815 219.803 275.86C216.583 270.829 212.91 266.301 209.388 261.723C202.546 252.818 195.452 243.661 195.452 238.378V236.466L193.993 235.007C191.883 232.715 190.028 230.202 188.458 227.511C192.445 228.057 196.46 228.376 200.483 228.467H224.985L230.62 188.972V188.217C230.62 153.703 230.62 150.081 244.254 136.446C259.348 121.353 288.277 102.687 301.056 102.687C307.949 102.687 335.319 124.271 341.306 134.182V135.842C339.243 135.289 336.275 134.232 332.854 133.176L332.099 132.874H297.987L301.66 140.169C305.923 148.066 311.331 155.289 317.71 161.602C336.929 180.821 356.45 224.894 356.45 238.529C356.45 249.346 370.99 264.842 379.795 268.465C381.372 269.188 383.091 269.549 384.826 269.521C386.194 269.541 387.545 269.212 388.75 268.565C396.85 266.905 406.611 255.132 411.592 240.793C421.812 225.252 433.252 210.548 445.804 196.82L446.357 196.267L446.76 195.512C451.791 185.098 457.325 174.331 457.325 163.061C457.325 146.559 456.218 137.905 432.169 137.905H427.138C430.612 129.981 432.328 121.399 432.169 112.749C432.169 97.0016 421.805 81.0527 400.523 63.8963C375.626 35.2632 343.447 13.8976 307.396 2.06294C286.114 -2.96825 229.362 2.06294 198.621 12.3769C147.655 32.7532 106.249 77.8327 84.9666 136.396L74.1999 174.029L90.5513 195.764L101.57 217.851L139.404 223.234H140.109C148.46 223.234 156.762 223.838 164.56 224.593C144.452 236.908 126.433 252.346 111.179 270.326V270.326ZM421.855 152.848C425.671 153.376 429.206 155.144 431.918 157.879C424.618 171.944 416.206 185.404 406.762 198.129L376.575 233.347L361.481 203.16C351.419 183.035 341.356 167.941 341.356 162.91C336.325 152.848 336.325 147.817 341.356 147.817C346.387 147.817 356.45 152.848 356.45 157.879C361.481 162.91 361.481 157.879 361.481 152.848C361.481 132.723 331.294 87.4423 316.2 87.4423H306.138C296.076 67.3175 245.764 77.3799 220.608 102.536C200.483 117.629 190.42 132.723 190.42 157.879C185.389 183.035 180.358 183.035 130.046 178.004L94.8278 172.973L99.859 157.879C109.921 107.567 150.171 57.2551 190.42 37.1304C215.576 27.068 230.67 22.0368 260.857 22.0368C301.107 22.0368 316.2 22.0368 341.356 37.1304C376.575 52.2239 406.762 102.536 401.731 132.723C396.699 147.817 406.762 152.848 421.855 152.848ZM436.949 178.004C436.582 181.867 434.788 185.455 431.918 188.066C421.855 193.097 421.855 193.097 426.887 183.035C436.949 178.004 436.949 172.973 436.949 178.004V178.004ZM406.762 218.253L396.699 233.347L386.637 243.409C381.606 243.409 386.637 233.347 391.668 228.316L406.762 218.253ZM200.483 167.941C200.483 142.785 220.608 112.598 245.764 102.536C248.986 99.1478 252.902 96.495 257.243 94.7584C261.584 93.0219 266.249 92.2425 270.92 92.4735C275.951 92.4735 275.951 92.4735 265.888 97.5047C251.033 104.376 238.164 114.903 228.485 128.102C218.806 141.301 212.633 156.739 210.545 172.973C205.514 198.129 200.483 188.066 200.483 167.941V167.941ZM109.921 188.066C123.48 188.29 136.974 189.977 150.171 193.097C190.42 193.097 200.483 198.129 200.483 208.191C200.483 218.253 104.89 203.16 104.89 193.097C104.89 188.066 104.89 188.066 109.921 188.066V188.066ZM200.483 379.251C190.42 374.22 185.389 359.127 185.389 349.064C180.358 339.002 180.358 328.94 185.389 328.94C190.42 328.94 195.452 344.033 200.483 359.127C200.483 369.189 205.514 379.251 205.514 384.283C210.545 389.314 205.514 389.314 200.483 379.251ZM210.545 333.971C205.514 333.971 200.483 328.94 190.42 323.908C180.358 313.846 180.358 313.846 190.42 313.846C210.545 313.846 225.639 318.877 225.639 323.908C230.67 333.971 230.67 333.971 225.639 339.002C222.907 339.341 220.134 339.066 217.522 338.195C214.911 337.325 212.527 335.881 210.545 333.971V333.971ZM195.452 298.752H170.296C165.264 303.784 175.327 359.127 185.389 379.251C185.389 389.314 200.483 399.376 210.545 409.439C230.67 419.501 235.701 424.532 260.857 419.501C286.013 419.501 296.076 414.47 311.169 404.407C336.325 389.314 341.356 374.22 346.387 344.033V318.877H376.575L411.793 313.846L406.762 333.971C396.699 404.407 311.169 474.844 245.764 464.782C216.531 459.79 189.789 445.217 169.75 423.356C149.711 401.495 137.513 373.589 135.077 344.033C135.202 335.386 133.487 326.811 130.046 318.877H109.921C94.8278 323.908 84.7654 323.908 84.7654 318.877C97.922 308.646 109.753 296.815 119.984 283.659C150.171 253.472 175.327 233.347 175.327 243.409C175.327 248.44 185.389 263.534 195.452 278.628L215.576 303.784L195.452 298.752ZM301.107 479.875H270.92L291.044 474.844C336.325 459.751 386.637 414.47 406.762 374.22C412.972 364.792 418.039 354.659 421.855 344.033C426.887 344.033 416.824 389.314 406.762 414.47C381.606 459.751 351.419 484.907 301.107 479.875ZM69.6718 344.033C74.703 339.002 114.953 328.94 119.984 328.94C125.015 339.002 119.984 344.033 99.859 349.064C79.7342 354.096 59.6094 349.064 69.6718 344.033Z" fill="#231F20"/>
</g>
<defs>
<clipPath id="clip0">
<rect width="415.073" height="500" fill="white" transform="translate(42)"/>
</clipPath>
</defs>
</svg>
