<svg width="78" height="136" viewBox="0 0 78 136" fill="none" xmlns="http://www.w3.org/2000/svg">
<g clip-path="url(#clip0)">
<path d="M25.2601 86.2222C20.5194 85.2592 17.5194 82.9444 16.3712 79.3333C15.9701 77.8605 15.7646 76.3413 15.7601 74.8148C15.7351 73.8234 15.6548 72.8342 15.5194 71.8518C15.6255 71.1127 15.5621 70.3592 15.3342 69.6481C15.2804 69.4751 15.1789 69.3207 15.0413 69.2028C14.9037 69.0849 14.7356 69.0081 14.5564 68.9815C14.4113 68.952 14.2611 68.9586 14.1191 69.0006C13.977 69.0425 13.8474 69.1186 13.7416 69.2222C13.6111 69.2643 13.4912 69.3337 13.3897 69.4259C13.2805 69.5388 13.1926 69.6705 13.1305 69.8148C13.106 69.937 13.106 70.0629 13.1305 70.1852C13.0598 70.3027 13.0215 70.4369 13.0194 70.574C13.1495 74.1517 12.0815 77.6703 9.98484 80.5721C7.88818 83.4739 4.88281 85.5927 1.44529 86.5926C1.17645 86.68 0.927913 86.8206 0.714429 87.0059C0.500945 87.1913 0.326861 87.4176 0.202506 87.6715C0.0781503 87.9254 0.00605685 88.2017 -0.00949754 88.484C-0.0250519 88.7662 0.0162497 89.0488 0.111957 89.3148C0.173102 89.5732 0.289103 89.8154 0.452091 90.0251C0.61508 90.2347 0.821245 90.4068 1.0566 90.5297C1.29196 90.6527 1.55101 90.7236 1.81617 90.7376C2.08134 90.7517 2.34642 90.7085 2.59344 90.6111C4.44529 90.037 7.76011 91.8333 8.76011 93.5185C9.41368 94.7181 9.89969 96.0017 10.2045 97.3333C10.8608 100.072 11.2944 102.858 11.5008 105.667C11.5431 105.94 11.6786 106.191 11.8844 106.377C12.0902 106.562 12.3537 106.671 12.6305 106.685V106.685C12.8608 106.686 13.0833 106.602 13.2545 106.447C13.4257 106.293 13.5334 106.081 13.5564 105.852C14.8157 98.1481 19.4453 91.1481 25.5194 88.2592C25.7161 88.1598 25.8759 88.0003 25.9758 87.8038C26.0757 87.6073 26.1104 87.3842 26.0749 87.1666C26.0571 86.9431 25.9684 86.731 25.8219 86.5612C25.6754 86.3914 25.4786 86.2726 25.2601 86.2222V86.2222ZM7.07492 88.4444C10.2421 86.3792 12.6481 83.336 13.9268 79.7778C14.5777 81.6226 15.6471 83.2915 17.0512 84.6538C18.4552 86.0161 20.1557 87.0346 22.0194 87.6296C17.149 90.7407 15.2231 95.6481 13.2786 100.833C12.7416 95.9074 11.3897 91.2037 7.07492 88.4444V88.4444Z" fill="#6E4ACC"/>
<path d="M76.4815 17.3333C69.7038 15.4814 67.8334 9.11105 66.0186 2.9629L65.8704 2.44438C65.8351 2.34237 65.7917 2.2433 65.7408 2.14809C65.7408 1.79624 65.7408 1.44438 65.7408 1.09253C65.7152 0.808246 65.5894 0.542303 65.3859 0.342172C65.1824 0.142042 64.9144 0.0207478 64.6297 -5.95374e-05C64.3734 -0.0275198 64.1163 0.0432016 63.9101 0.197847C63.7039 0.352492 63.564 0.579561 63.5186 0.833274L63.1853 2.35179C61.6482 9.2592 60.0927 16.537 52.2408 18.1481C51.8403 18.2601 51.4891 18.5037 51.2438 18.8396C50.9986 19.1756 50.8736 19.5843 50.889 19.9999C50.8782 20.3983 51.0105 20.7873 51.2619 21.0964C51.5133 21.4056 51.8672 21.6144 52.2593 21.6851C59.9445 22.9259 60.889 31.0925 61.6482 37.6666V37.9259C61.6809 38.35 61.8728 38.746 62.1854 39.0345C62.4979 39.323 62.908 39.4827 63.3334 39.4814V39.4814C63.7511 39.4767 64.1507 39.31 64.4479 39.0163C64.745 38.7226 64.9164 38.325 64.926 37.9073C65.5186 30.4999 70.5741 22.537 76.7038 19.3888C76.8967 19.2839 77.0543 19.124 77.1565 18.9296C77.2586 18.7351 77.3009 18.5147 77.2778 18.2962C77.2523 18.076 77.1635 17.8678 77.0222 17.6969C76.8809 17.5261 76.6931 17.3997 76.4815 17.3333ZM73.2223 18.8333C71.0208 20.2608 69.131 22.1191 67.6667 24.2962C66.2928 26.5029 65.1863 28.8652 64.3704 31.3333V31.4999C64.0708 29.2531 63.3309 27.0874 62.1934 25.1268C61.0558 23.1662 59.5427 21.4492 57.7408 20.074C59.5489 18.8924 61.1049 17.3644 62.3191 15.5781C63.5333 13.7917 64.3815 11.7826 64.8149 9.66661C65.468 11.7126 66.5582 13.5922 68.01 15.175C69.4617 16.7578 71.2402 18.0061 73.2223 18.8333Z" fill="#6E4ACC"/>
<path d="M64.7038 114.574C59.852 115.556 58.2964 112.111 57.0186 108.241V107.963C57.0186 107.463 56.852 106.982 56.8149 106.482C56.796 106.266 56.796 106.049 56.8149 105.833C56.8258 105.091 56.6474 104.358 56.2964 103.704V103.704C56.3121 103.408 56.213 103.118 56.0197 102.894C55.8265 102.669 55.5541 102.528 55.2594 102.5C54.9631 102.443 54.6564 102.502 54.4018 102.664C54.1472 102.825 53.9638 103.078 53.889 103.37C53.7506 104.09 53.6886 104.823 53.7038 105.556C53.6116 106.393 53.6116 107.237 53.7038 108.074C53.1059 110.469 51.8791 112.66 50.1503 114.421C48.4215 116.183 46.2534 117.45 43.8705 118.093C43.6351 118.174 43.4331 118.33 43.2958 118.538C43.1585 118.745 43.0936 118.992 43.1112 119.241C43.1172 119.466 43.2021 119.682 43.3509 119.851C43.4998 120.02 43.7033 120.132 43.926 120.167C50.0186 121.241 51.8149 127.759 52.852 134.648C52.9025 135.02 53.0901 135.358 53.378 135.598C53.6659 135.838 54.0332 135.962 54.4075 135.944H54.5557C54.9995 135.915 55.4178 135.726 55.734 135.413C56.0503 135.1 56.2433 134.684 56.2779 134.241C56.2699 130.84 57.1747 127.5 58.8978 124.568C60.621 121.637 63.0993 119.221 66.0742 117.574C66.4174 117.385 66.6812 117.079 66.8172 116.712C66.9532 116.345 66.9524 115.941 66.8149 115.574C66.6315 115.19 66.3214 114.881 65.9369 114.699C65.5525 114.517 65.117 114.473 64.7038 114.574V114.574ZM60.5742 117.37C57.7114 119.81 55.5187 122.939 54.2038 126.463C53.6803 124.843 52.8369 123.344 51.7236 122.056C50.6102 120.767 49.2496 119.716 47.7223 118.963C50.7665 117.475 53.2573 115.055 54.8335 112.056C56.0395 114.465 58.0796 116.353 60.5742 117.37V117.37Z" fill="#6E4ACC"/>
</g>
<defs>
<clipPath id="clip0">
<rect width="77.3148" height="136" fill="white"/>
</clipPath>
</defs>
</svg>
