<svg width="272" height="225" viewBox="0 0 272 225" fill="none" xmlns="http://www.w3.org/2000/svg">
<path d="M184.417 201.308C193.452 171.19 164.542 143.426 139.984 132.692C101.956 116.469 60.1709 110.634 18.6549 116.025C18.1081 115.827 17.9104 116.374 17.9104 116.374C17.166 116.723 16.4215 117.072 16.0262 118.165C15.8285 118.712 16.1775 119.457 16.7243 119.654C17.0734 120.399 17.6201 120.596 18.7136 120.992C19.2604 121.189 19.8071 121.387 21.0983 121.236C41.1305 129.097 59.7201 135.819 77.0309 149.497C94.3416 163.175 105.848 180.936 121.275 196.406C136.352 211.131 174.196 234.706 184.417 201.308ZM89.6062 154.044C77.2161 142.145 62.7442 132.584 46.9347 125.013C70.2349 127.256 92.9421 131.139 115.603 136.859C131.854 141.499 148.606 148.174 160.251 160.422C169.908 171.332 184.917 203.343 161.978 208.65C130.897 215.959 108.465 171.99 89.6062 154.044Z" fill="#2A325E"/>
<path d="M113.982 91.7593C122.23 92.8867 131.071 92.3739 139.213 90.3721C156.604 93.5691 174.239 94.3814 192.224 95.9382C206.532 97.4022 222.48 99.4594 237.276 96.1541C253.713 93.4418 264.762 78.2717 262.248 61.2885C261.794 57.4149 260.048 53.6927 257.756 49.7727C245.598 28.6843 216.144 29.7811 197.289 40.8923C183.098 49.3624 172.642 62.8923 158.102 70.6179C143.563 78.3436 128.068 80.16 112.481 85.6523C109.503 87.0486 111.051 91.3176 113.982 91.7593ZM168.398 78.05C187.649 65.8452 203.896 41.4266 229.93 44.6576C243.494 46.4707 258.223 60.4514 252.687 75.7605C247.547 89.976 229.866 91.0017 217 90.6774C193.456 90.8197 169.411 88.9263 145.716 87.7773C153.858 85.7756 161.303 82.285 168.398 78.05Z" fill="#2A325E"/>
</svg>
