<svg width="381" height="267" viewBox="0 0 381 267" fill="none" xmlns="http://www.w3.org/2000/svg">
<path d="M183.223 24.459C167.168 56.2385 193.88 92.932 219.124 109.777C258.294 135.417 303.716 150.222 351.068 152.461C351.638 152.79 351.967 152.219 351.967 152.219C352.866 151.978 353.765 151.737 354.423 150.597C354.752 150.026 354.511 149.127 353.941 148.798C353.699 147.899 353.129 147.57 351.989 146.912C351.419 146.583 350.848 146.254 349.379 146.166C328.609 133.423 309.221 122.237 292.641 103.55C276.061 84.8632 266.762 62.7771 252.638 42.4674C238.756 23.0569 201.252 -10.7418 183.223 24.459ZM279.526 95.983C290.974 111.709 305.208 125.241 321.328 136.822C295.799 129.693 271.257 120.854 247.131 109.975C229.937 101.574 212.589 90.8051 202.04 74.8381C193.443 60.7573 183.07 22.0904 209.695 20.7313C245.796 18.7584 262.068 72.2298 279.526 95.983Z" fill="#2A325E"/>
<path d="M27.2199 24.8978C11.5433 52.155 33.3462 85.789 54.8021 101.849C88.1189 126.331 127.466 141.558 169.115 145.794C169.603 146.111 169.92 145.624 169.92 145.624C170.724 145.454 171.529 145.285 172.164 144.31C172.481 143.823 172.311 143.019 171.824 142.701C171.654 141.897 171.167 141.579 170.193 140.945C169.706 140.627 169.219 140.31 167.927 140.162C150.221 127.933 133.658 117.142 119.93 99.8711C106.202 82.6002 99.0569 62.6796 87.5724 44.0949C76.2576 26.3147 44.8007 -5.28215 27.2199 24.8978ZM108.726 92.5716C118.07 106.986 129.975 119.6 143.637 130.582C121.465 123.076 100.245 114.109 79.4907 103.362C64.7292 95.1329 49.9455 84.8073 41.4059 70.223C34.4974 57.3953 27.1977 22.8017 50.7423 22.8754C82.6714 22.8605 94.4661 70.791 108.726 92.5716Z" fill="#2A325E"/>
<path d="M139.741 249.688C127.22 227.917 144.634 201.053 161.771 188.225C188.382 168.671 219.809 156.51 253.076 153.126C253.465 152.873 253.718 153.262 253.718 153.262C254.361 153.397 255.003 153.533 255.51 154.311C255.764 154.7 255.628 155.343 255.239 155.596C255.104 156.239 254.714 156.492 253.936 156.999C253.547 157.253 253.158 157.506 252.126 157.624C237.984 167.392 224.755 176.011 213.79 189.805C202.825 203.6 197.119 219.511 187.946 234.355C178.908 248.556 153.783 273.793 139.741 249.688ZM204.841 195.636C212.305 184.123 221.814 174.048 232.725 165.276C215.016 171.271 198.068 178.434 181.491 187.017C169.7 193.59 157.892 201.837 151.072 213.486C145.554 223.732 139.723 251.362 158.529 251.303C184.031 251.315 193.452 213.032 204.841 195.636Z" fill="#2A325E"/>
</svg>
