<svg width="500" height="500" viewBox="0 0 500 500" fill="none" xmlns="http://www.w3.org/2000/svg">
<path d="M279.289 236.437C282.592 236.383 285.886 236.089 289.147 235.557C297.069 233.978 305.268 234.525 312.911 237.141C314.153 237.82 315.544 238.183 316.96 238.197C317.892 238.358 318.844 238.358 319.776 238.197C321.671 237.403 323.228 235.97 324.177 234.149C324.753 233.165 325.119 232.073 325.253 230.941C325.387 229.809 325.285 228.661 324.954 227.57C324.624 226.48 324.071 225.469 323.332 224.602C322.592 223.734 321.681 223.029 320.657 222.53C310.471 218.55 299.386 217.454 288.618 219.362C285.098 219.362 281.577 219.362 278.233 219.362C277.162 219.361 276.102 219.577 275.118 219.997C274.133 220.416 273.243 221.032 272.503 221.805C271.763 222.578 271.187 223.494 270.81 224.496C270.433 225.498 270.263 226.566 270.311 227.635C270.311 228.806 270.544 229.965 270.997 231.045C271.451 232.124 272.115 233.102 272.951 233.922C273.787 234.742 274.778 235.386 275.866 235.818C276.955 236.25 278.118 236.46 279.289 236.437Z" fill="#231F20"/>
<path d="M286.33 241.541C285.218 241.529 284.115 241.74 283.086 242.164C282.058 242.587 281.125 243.214 280.345 244.006C279.112 245.549 278.486 247.49 278.584 249.463C278.537 250.648 278.729 251.83 279.15 252.939C279.571 254.048 280.212 255.06 281.034 255.915C281.856 256.77 282.843 257.45 283.934 257.914C285.026 258.378 286.2 258.617 287.386 258.616H323.825C324.94 258.65 326.049 258.448 327.081 258.023C328.112 257.599 329.042 256.961 329.81 256.152C331.092 254.625 331.779 252.688 331.746 250.695C331.77 249.501 331.555 248.315 331.114 247.205C330.673 246.096 330.016 245.085 329.18 244.233C328.344 243.38 327.346 242.703 326.245 242.241C325.145 241.779 323.963 241.541 322.769 241.541H286.33Z" fill="#231F20"/>
<path d="M276.12 290.303C292.491 290.303 308.686 290.303 325.234 289.071C326.818 289.071 329.282 289.071 332.099 289.071C344.245 289.071 362.553 289.951 367.305 282.558C368.13 281.205 368.566 279.652 368.566 278.069C368.566 276.485 368.13 274.932 367.305 273.58C366.669 272.146 365.668 270.903 364.401 269.977C363.135 269.05 361.648 268.472 360.088 268.299C358.542 268.114 356.981 268.488 355.687 269.355H353.575H344.597C335.619 269.355 326.994 270.411 317.312 270.763H317.488C303.229 270.763 289.323 271.82 275.24 271.82C273.857 271.81 272.496 272.162 271.292 272.841C270.087 273.521 269.082 274.504 268.375 275.692C267.604 277.095 267.2 278.669 267.2 280.269C267.2 281.869 267.604 283.444 268.375 284.846C268.952 286.439 270.004 287.817 271.389 288.793C272.774 289.769 274.426 290.296 276.12 290.303Z" fill="#231F20"/>
<path d="M355.335 330.262C351.06 331.342 346.584 331.342 342.309 330.262H339.316H334.739H330.691C337.672 328.673 344.861 328.198 351.991 328.854C353.455 329.045 354.945 328.872 356.326 328.35C357.708 327.828 358.94 326.973 359.912 325.861C360.85 324.587 361.467 323.107 361.713 321.544C361.958 319.981 361.823 318.383 361.32 316.883C360.806 315.583 359.942 314.451 358.823 313.612C357.705 312.773 356.375 312.26 354.983 312.13C353.227 311.955 351.458 311.955 349.702 312.13H355.511C356.575 312.133 357.627 311.916 358.603 311.495C359.579 311.073 360.457 310.454 361.184 309.678C361.91 308.902 362.469 307.985 362.826 306.983C363.183 305.982 363.329 304.917 363.257 303.857C363.281 302.694 363.07 301.539 362.636 300.46C362.202 299.382 361.554 298.402 360.732 297.58C359.91 296.758 358.93 296.11 357.852 295.676C356.773 295.242 355.618 295.031 354.455 295.055C349.452 295.144 344.458 295.497 339.492 296.111C328.901 297.673 318.119 297.375 307.63 295.231C306.37 294.805 305.017 294.728 303.716 295.007C302.415 295.286 301.213 295.91 300.237 296.815C299.106 297.946 298.298 299.358 297.896 300.905C297.494 302.452 297.512 304.079 297.949 305.617C298.281 307.125 299.038 308.505 300.13 309.597C301.221 310.689 302.602 311.445 304.11 311.778C309.844 313.35 315.768 314.12 321.713 314.067H331.395H328.93C323.515 314.992 318.047 315.58 312.559 315.827C311.192 315.772 309.837 316.107 308.653 316.792C307.468 317.478 306.503 318.486 305.87 319.7C305.099 321.07 304.694 322.616 304.694 324.189C304.694 325.761 305.099 327.307 305.87 328.677C306.604 329.855 307.612 330.838 308.807 331.542C310.002 332.247 311.35 332.653 312.735 332.726C311.607 334.122 310.986 335.86 310.975 337.655C310.904 338.863 311.077 340.073 311.485 341.212C311.893 342.351 312.527 343.396 313.35 344.284C314.172 345.172 315.165 345.885 316.269 346.379C317.374 346.873 318.567 347.139 319.777 347.161C323.902 347.265 328.016 347.618 332.099 348.217C336.944 348.89 341.821 349.301 346.71 349.449C352.779 349.755 358.828 348.545 364.313 345.929C365.728 345.327 366.907 344.278 367.67 342.943C368.433 341.608 368.737 340.06 368.538 338.535C368.573 336.963 368.203 335.409 367.463 334.021C366.723 332.634 365.638 331.46 364.313 330.614C362.993 329.736 361.457 329.239 359.874 329.177C358.29 329.115 356.72 329.49 355.335 330.262Z" fill="#231F20"/>
<path d="M481.903 389.761C482.686 387.843 482.686 385.695 481.903 383.776C480.261 378.655 478.261 373.655 475.918 368.813C475.537 366.183 474.371 363.729 472.573 361.772C453.798 330.211 430.016 301.911 402.16 277.98C385.8 262.752 370.397 246.526 356.039 229.395C334.563 201.758 334.211 171.304 333.331 139.09C333.331 133.105 333.331 127.12 333.331 121.487C333.331 115.854 332.275 111.101 331.571 104.94V102.475C332.644 101.815 333.521 100.879 334.109 99.7641C334.698 98.6494 334.976 97.3972 334.915 96.1382C334.913 94.3754 334.439 92.6453 333.541 91.1282C332.643 89.6111 331.355 88.3626 329.81 87.5126C327.654 76.7837 328.884 65.65 333.331 55.6506C334.353 54.2636 334.964 52.6161 335.091 50.8977C347.44 50.619 359.746 49.3238 371.882 47.025C373.429 47.6341 375.129 47.7409 376.74 47.3301C378.352 46.9194 379.793 46.012 380.86 44.7366C381.955 44.0433 382.854 43.0803 383.471 41.9398C384.087 40.7993 384.401 39.5196 384.381 38.2234C386.812 32.9743 387.333 27.041 385.854 21.4485C384.376 15.8559 380.99 10.9554 376.283 7.59359C353.644 -0.116253 329.426 -1.99312 305.87 2.13657C296.716 2.13657 288.266 3.54483 280.521 3.54483C259.573 3.54483 238.449 3.54483 217.853 4.60103C200.25 4.60103 181.59 5.48119 163.283 5.48119H157.298C138.777 4.10664 120.175 6.68686 102.728 13.0506H97.4466C95.521 13.1445 93.6855 13.8941 92.2446 15.1749C90.8037 16.4557 89.8441 18.1907 89.5251 20.0919V21.5002C88.4578 23.0545 87.8866 24.8957 87.8866 26.7812C87.8866 28.6667 88.4578 30.5079 89.5251 32.0622C96.0383 63.9242 139.695 63.9242 157.298 63.3961C157.212 63.9207 157.212 64.4557 157.298 64.9804C157.298 90.8572 159.058 117.79 160.466 142.435C161.875 167.08 163.107 189.26 163.459 212.848C160.818 245.238 130.717 271.115 104.488 293.999C98.8548 298.928 93.3978 303.505 88.2928 308.258C68.1623 325.919 49.9855 345.689 34.0746 367.229L29.1457 368.637C27.2996 368.942 25.6067 369.85 24.3324 371.22C23.058 372.59 22.2744 374.344 22.1044 376.207C21.8465 377.491 21.904 378.819 22.2719 380.076C22.6399 381.333 23.3072 382.482 24.2168 383.424C24.2168 384.832 22.6325 386.241 21.9284 387.649C18.9533 392.997 17.2758 398.969 17.0312 405.085C16.7866 411.2 17.9817 417.287 20.5201 422.856C38.1234 459.471 115.754 475.666 144.976 482.355C191.928 493.244 239.899 499.145 288.09 499.958C328.509 500.608 368.692 493.682 406.561 479.538C429.269 470.737 467.468 447.324 479.966 418.807C484.328 409.736 485.022 399.331 481.903 389.761ZM276.12 20.0919H328.93C350.934 20.0919 366.601 21.6762 369.77 26.2531C370.044 26.9306 370.044 27.688 369.77 28.3655C367.95 28.4118 366.205 29.0974 364.841 30.3019C348.053 32.6777 331.071 33.3853 314.143 32.4143C303.933 32.4143 293.547 32.4143 283.337 32.4143C258.798 33.8667 234.353 36.6285 210.108 40.6878C189.16 43.8564 172.965 45.6167 157.298 46.4969C148.003 46.8891 138.692 46.4176 129.485 45.0886C125.212 44.5113 121.018 43.4482 116.986 41.92C116.986 41.92 113.114 39.8076 106.424 29.7738C127.724 18.1556 162.579 19.7399 190.92 20.62C200.074 20.62 208.523 20.62 215.917 20.62C235.985 20.444 256.404 20.444 276.12 20.62V20.0919ZM179.126 225.699C179.601 225.034 180.014 224.327 180.358 223.586V222.706C181.472 221.305 182.078 219.567 182.078 217.777C182.078 215.987 181.472 214.25 180.358 212.848C180.358 189.084 178.598 164.967 177.366 142.435C176.133 119.903 174.901 89.625 174.901 63.9242C174.987 63.4587 174.987 62.9814 174.901 62.5159C189.864 61.2837 204.651 59.1713 219.261 57.0589C229.471 55.6506 240.209 54.0663 250.771 52.8341C268.326 51.2316 285.962 50.7026 303.581 51.2498H317.312C313.85 62.6458 312.889 74.655 314.495 86.4564C309.603 86.6556 304.725 87.1258 299.885 87.8647C292.667 87.8647 285.274 89.449 277.88 89.449H245.314C244.199 89.4152 243.09 89.6173 242.059 90.042C241.027 90.4667 240.097 91.1044 239.329 91.9134C238.048 93.4398 237.36 95.3776 237.393 97.3705C237.382 99.56 238.187 101.675 239.652 103.303C241.117 104.93 243.136 105.953 245.314 106.172H274.008C282.07 106.102 290.122 105.573 298.124 104.588L315.728 103.18C315.728 105.292 315.728 107.58 315.728 109.869C307.19 109.684 298.652 110.214 290.203 111.453C283.69 111.453 277.176 112.861 270.663 113.037C269.528 112.975 268.394 113.182 267.354 113.641C266.314 114.099 265.397 114.798 264.678 115.678C263.423 117.287 262.741 119.27 262.742 121.311C262.742 123.645 263.669 125.884 265.32 127.535C266.97 129.185 269.209 130.113 271.543 130.113C277.88 130.113 284.218 129.056 290.379 128.352C298.75 126.937 307.246 126.406 315.728 126.768V132.929C314.393 132.649 313.014 132.649 311.679 132.929H281.577C280.465 132.917 279.362 133.128 278.334 133.552C277.305 133.975 276.373 134.602 275.592 135.394C274.362 136.949 273.681 138.868 273.656 140.851C273.608 142.036 273.801 143.218 274.222 144.327C274.643 145.436 275.284 146.448 276.106 147.303C276.928 148.158 277.914 148.838 279.006 149.302C280.097 149.767 281.271 150.005 282.457 150.004H312.735C313.724 150.186 314.738 150.186 315.728 150.004C315.728 152.997 315.728 155.989 315.728 158.806H283.161C282.032 158.783 280.91 159.007 279.876 159.463C278.843 159.92 277.921 160.596 277.176 161.447C275.895 162.973 275.207 164.911 275.24 166.904C275.216 168.089 275.432 169.267 275.875 170.367C276.317 171.467 276.978 172.467 277.816 173.305C278.655 174.144 279.654 174.804 280.754 175.247C281.854 175.689 283.032 175.905 284.218 175.881H316.96C316.96 179.05 316.96 182.218 318.192 185.739C307.278 185.739 295.66 185.739 284.746 187.323C273.832 188.908 265.734 188.908 256.228 189.084C254.862 189.056 253.512 189.381 252.309 190.029C251.106 190.677 250.091 191.624 249.363 192.78C248.593 194.183 248.189 195.757 248.189 197.357C248.189 198.957 248.593 200.532 249.363 201.934C250.111 203.23 251.19 204.304 252.489 205.046C253.788 205.788 255.26 206.172 256.757 206.159C266.438 206.159 276.296 205.103 285.802 204.399C297.503 203.272 309.254 202.744 321.009 202.814C332.979 241.894 363.433 270.411 393.006 298.048C411.336 314.108 428.185 331.782 443.352 350.858C426.254 349.273 409.047 349.273 391.95 350.858C383.5 350.858 376.459 351.738 371.178 350.858L338.788 349.978C288.971 348.394 237.393 346.809 186.519 349.978L154.657 352.09C139.166 353.147 123.147 354.379 107.304 355.083C91.4614 355.787 77.0267 356.843 61.3598 358.251C69.6333 349.274 78.9631 340.648 86.7085 332.727L91.6375 327.798C98.6788 321.109 106.424 314.419 114.698 307.202C141.807 283.966 171.204 258.617 179.126 225.699ZM444.408 376.207C416.369 382.658 387.611 385.439 358.856 384.48H350.934C322.065 384.48 292.843 384.48 264.502 384.48H206.939C104.136 388.705 69.6333 382.896 60.1275 376.207C64.8847 374.755 69.7822 373.811 74.7383 373.39C87.5887 372.158 100.791 371.63 113.642 370.926L132.829 370.222L159.938 368.637C192.856 366.349 226.831 364.237 260.453 364.237H280.521C279.718 365.557 279.348 367.096 279.465 368.637C279.416 369.814 279.61 370.989 280.033 372.088C280.456 373.188 281.099 374.189 281.924 375.03C282.748 375.871 283.737 376.535 284.828 376.979C285.918 377.424 287.089 377.64 288.266 377.615C303.053 377.615 318.016 376.031 332.451 374.447C347.759 372.597 363.154 371.539 378.571 371.278C379.937 371.306 381.287 370.981 382.49 370.333C383.693 369.685 384.708 368.737 385.437 367.581C397.407 367.581 410.257 367.581 424.516 367.581H431.205C439.045 367.289 446.87 368.483 454.266 371.102C454.266 371.102 453.914 373.566 444.408 376.207ZM131.245 401.908H143.039C195.849 401.028 250.419 401.908 302.877 401.908H331.219C373.311 404.14 415.508 400.406 456.554 390.818C458.496 390.299 460.383 389.591 462.187 388.705C462.722 390.771 464.05 392.542 465.884 393.634C477.502 418.983 435.958 448.028 413.074 459.999C379.235 475.204 342.614 483.236 305.518 483.587C239.946 484.832 174.59 475.682 111.881 456.478C86.0044 449.261 50.2697 437.114 41.468 415.462C39.0679 411.29 37.7033 406.602 37.4889 401.794C37.2745 396.985 38.2165 392.195 40.2358 387.825C41.0759 386.071 42.0163 384.366 43.0523 382.72C55.1986 405.428 104.488 403.316 131.245 401.908Z" fill="#231F20"/>
</svg>
