<svg width="500" height="500" viewBox="0 0 500 500" fill="none" xmlns="http://www.w3.org/2000/svg">
<path d="M497.509 171.041C494.951 177.076 490.439 182.075 484.698 185.237C467.477 196.11 449.684 205.897 431.771 215.505C425.979 218.609 425.84 218.847 428.272 224.699C430.714 230.629 432.202 236.908 432.681 243.303C434.065 258.21 437.327 272.959 437.208 287.985C437.208 291.445 437.011 294.865 436.655 298.325C436.24 302.279 436.655 306.747 440.609 309.732C444.563 312.718 446.402 316.83 443.614 321.595C442.923 322.889 442.548 324.329 442.521 325.797C442.493 327.264 442.814 328.717 443.456 330.037C449.177 346.537 450.712 364.2 447.924 381.441C447.529 384.129 447.074 386.838 448.873 389.151C451.858 392.967 449.466 394.944 446.441 396.723C443.897 398.222 441.057 399.146 438.118 399.432C429.084 400.47 419.958 400.431 410.933 399.313C402.333 398.167 399.328 394.252 400.87 385.751C403.361 372.082 405.931 358.428 408.58 344.786C409.815 339.836 412.005 335.175 415.026 331.065C416.171 329.601 416.935 327.875 417.249 326.043C417.563 324.21 417.417 322.329 416.825 320.567C414.848 314.636 416.192 309.199 419.197 303.109C422.499 296.427 425.465 288.499 422.341 280.235C420.5 274.574 420.583 268.464 422.578 262.856C423.725 258.902 424.357 255.106 421.748 251.35C420.913 249.965 420.431 248.397 420.344 246.783C419.474 238.4 417.22 230.729 409.45 225.371C408.304 228.455 405.397 230.017 402.115 231.006C399.025 232.04 396.101 233.519 393.436 235.395C392.625 235.854 391.95 236.521 391.481 237.327C391.012 238.133 390.765 239.049 390.767 239.982C390.154 257.34 388.039 274.62 388.79 292.038C388.928 295.498 389.047 297.969 393.416 297.079C394.682 296.842 395.749 298.068 395.393 299.056C393.614 303.01 396.54 305.501 398.201 308.428C402.372 315.743 400.514 322.05 393.416 326.972C376.581 338.836 358.149 348.255 338.671 354.948C319 361.551 300.257 371.002 279.636 374.719C271.965 376.142 264.215 376.023 256.505 376.577C239.437 378.04 222.28 378.119 205.2 376.814C188.671 375.331 172.38 372.326 156.92 365.802C147.568 361.848 137.96 358.526 128.786 354.038C120.655 349.998 112.736 345.544 105.061 340.693C99.5823 337.183 95.6716 331.691 94.1464 325.365C92.6211 319.039 93.5991 312.369 96.8762 306.747C98.8805 303.002 99.7787 298.765 99.4662 294.529C99.4662 276.004 95.2155 257.874 94.7014 239.428C94.7761 238.501 94.5301 237.577 94.0046 236.811C93.4791 236.044 92.706 235.481 91.8149 235.217C88.9249 233.823 85.9462 232.621 82.8984 231.619C62.3962 226.597 42.151 220.606 21.4511 216.395C16.5147 215.178 11.6446 213.707 6.86039 211.986C5.54191 211.654 4.36105 210.917 3.48474 209.877C2.60844 208.838 2.08102 207.549 1.97704 206.193C1.68048 202.971 3.95411 201.626 6.54406 200.361C25.6623 190.733 44.6619 180.867 63.879 171.437C73.4678 166.731 83.4519 162.856 93.1791 158.467C106.089 152.635 118.881 146.605 131.791 140.673C157.122 129.204 183.2 119.461 209.846 111.512C220.561 108.348 231.593 105.818 241.281 99.9064C244.069 98.1863 247.034 99.1946 249.822 100.124C253.776 101.468 257.73 103.287 261.902 104.394C271.125 107.005 280.538 108.889 290.055 110.029C302.516 111.376 314.847 113.73 326.928 117.067C334.381 119.163 341.934 121.021 349.486 122.702C365.601 126.583 381.488 131.355 397.074 136.996C407.434 140.581 417.833 144.054 428.272 147.415C445.295 152.931 462.357 158.289 479.379 163.845C485.665 165.581 491.744 167.994 497.509 171.041ZM433.709 388.024C436.669 380.89 436.81 372.898 434.104 365.664C431.594 373.572 433.452 380.907 433.926 388.202C433.078 388.781 432.29 389.443 431.574 390.179C430.704 391.227 430.13 392.69 432.009 393.184C433.155 393.481 433.788 392.235 433.986 391.207C433.955 390.142 433.862 389.079 433.709 388.024ZM14.7489 204.394C15.5595 206.787 17.5168 207.222 19.2764 207.676C25.9786 209.456 32.6611 211.492 39.482 212.757C67.4772 217.957 94.3456 226.874 120.838 237.055C139.304 244.153 157.355 252.239 175.366 260.464C184.836 264.794 194.701 268.214 204.211 272.484C224.456 281.579 244.306 291.504 265.026 299.55C266.422 300.252 267.999 300.506 269.545 300.28C271.091 300.054 272.529 299.357 273.665 298.285C278.865 294.094 283.412 289.151 289.027 285.434C317.919 266.586 347.875 249.423 378.747 234.031C387.9 229.404 396.856 224.402 407.137 218.926C405.412 218.081 403.62 217.38 401.779 216.83C396.145 215.94 390.589 215.169 387.742 209.139C386.991 207.558 385.073 207.38 383.452 207.518C376.572 208.091 370.107 207.182 364.531 202.654C363.871 202.183 363.068 201.952 362.258 202.002C350.178 202.892 338.988 195.399 326.671 198.265C325.338 198.49 323.969 198.339 322.716 197.83C312.855 194.235 302.238 193.221 291.874 194.885C290.287 195.042 288.685 194.901 287.149 194.469C285.63 194.004 284.025 193.886 282.454 194.126C280.883 194.365 279.386 194.956 278.074 195.853C275.649 197.299 272.924 198.168 270.11 198.394C267.296 198.62 264.468 198.197 261.843 197.158C255.733 195.181 254.152 190.851 257.295 185.296C261.131 178.515 267.912 175.411 275.425 177.862C283.274 180.635 291.651 181.582 299.921 180.63C304.688 180.022 309.519 180.128 314.255 180.946C328.687 183.358 343.041 186.304 357.493 188.479C370.087 190.456 381.396 196.091 393.476 199.432C402.079 201.471 410.152 205.312 417.161 210.701C418.361 211.786 419.897 212.426 421.512 212.516C423.127 212.606 424.725 212.14 426.038 211.195C443.436 201.31 461.329 192.117 477.837 180.67C479.696 179.384 482.305 178.574 482.523 175.727C481.717 174.616 480.572 173.797 479.261 173.394C462.772 167.166 445.65 162.658 429.142 156.569C413.325 150.737 397.015 146.387 381.139 140.753C363.02 134.423 344.533 129.2 325.781 125.114C313.049 122.247 300.277 119.183 287.268 117.463C273.745 115.644 260.577 112.026 247.37 108.704C245.631 108.269 243.673 106.727 242.25 108.704C240.451 111.334 237.643 111.077 235.192 111.907C225.069 115.367 214.63 117.7 204.35 120.567C193.06 123.73 182.127 128.178 171.036 132.034C163.484 134.643 156.129 137.787 148.675 140.654C138.431 144.549 128.514 149.256 119.019 154.73C112.671 158.141 106.151 161.223 99.4859 163.963C94.8794 165.94 90.2926 168.214 85.5081 169.895C74.6145 173.592 64.571 179.147 54.0727 183.734C45.0375 187.688 36.2791 192.512 27.2835 196.328C22.682 198.294 18.4446 201.021 14.7489 204.394V204.394ZM103.598 240.772C102.353 243.105 103.124 245.557 103.598 247.83C106.603 265.051 105.931 282.508 108.739 299.689C108.917 300.736 108.917 301.805 108.739 302.852C107.552 309.179 107.631 310.266 112.535 312.738C124.694 318.886 137.011 324.738 149.288 330.63C157.038 334.347 165.48 336.126 173.606 338.815C184.554 342.348 195.806 344.863 207.216 346.328C233.116 349.788 258.976 348.305 284.836 345.715C291.479 345.063 298.082 344.509 304.607 343.263C329.043 338.657 352.372 331.698 372.44 316.099C376.789 312.738 379.023 309.732 379.34 303.801C380.15 287.985 379.814 272.168 382.167 256.569C382.474 253.103 382.474 249.616 382.167 246.15C382.167 242.947 380.625 241.959 377.481 243.165C370.655 246.128 364.002 249.475 357.552 253.188C329.518 267.819 302.195 283.694 277.501 303.445C271.115 308.546 265.204 309.377 258.917 306.47C248.932 301.963 238.79 297.83 228.786 293.402C212.653 286.284 197.153 277.763 180.506 271.753C177.244 270.586 174.002 269.282 170.878 267.799C151.107 258.368 130.981 249.61 110.439 241.899C108.264 241.168 106.188 239.566 103.598 240.772ZM100.969 316.217C99.9209 326.972 104.923 332.745 113.325 337.233C126.997 344.549 141.04 351.148 155.397 357.004C173.246 364.166 192.131 368.405 211.329 369.558C225.168 370.527 239.007 370.211 252.847 369.796C275.247 369.143 296.995 366.059 317.299 355.66C323.762 352.416 330.531 349.82 337.505 347.91C355.299 342.927 370.759 333.457 386.18 323.829C387.547 322.99 388.786 321.958 389.858 320.764C392.626 317.502 392.329 314.833 388.355 309.871C384.401 318.352 376.176 321.733 369.276 326.478C362.04 331.441 354.784 336.62 346.481 339.823C331.198 345.755 315.125 348.661 299.15 351.883C280.19 355.699 260.854 356.391 241.696 356.806C215.472 357.385 189.331 353.658 164.314 345.774C146.312 339.779 128.89 332.169 112.258 323.038C108.739 320.962 105.694 317.66 100.969 316.217ZM264.156 189.922C265.045 192.492 267.359 192.117 269.395 192.196C271.431 192.275 273.567 192.453 273.527 189.804C273.488 187.154 271.273 185.849 268.565 185.849C265.856 185.849 264.927 187.55 264.156 189.922Z" fill="#231F20" stroke="#231F20" stroke-width="2" stroke-miterlimit="10"/>
</svg>
