<svg width="500" height="500" viewBox="0 0 500 500" fill="none" xmlns="http://www.w3.org/2000/svg">
<g clip-path="url(#clip0)">
<path d="M498.629 384.45C497.821 382.889 496.622 381.564 495.149 380.605C493.676 379.645 491.979 379.085 490.224 378.977V378.977C469.246 378.652 448.273 379.894 427.48 382.691C425.119 383.036 422.946 384.171 421.313 385.911C419.68 387.65 418.684 389.891 418.489 392.269C418.175 394.654 418.656 397.077 419.857 399.161C421.059 401.246 422.913 402.877 425.134 403.801L431.976 405.756C422.536 407.457 413.008 408.632 403.438 409.274C400.506 383.864 395.815 358.649 391.123 334.216C388.973 323.074 386.823 311.737 384.869 300.205C381.155 278.899 378.809 256.811 376.464 235.31C373.887 206.033 369.645 176.927 363.758 148.133C363.232 145.863 361.826 143.894 359.849 142.66C358.989 142.271 358.056 142.07 357.113 142.07C356.169 142.07 355.236 142.271 354.376 142.66C337.583 149.672 318.906 150.774 301.405 145.787C300.526 145.42 299.55 145.355 298.63 145.603C297.71 145.851 296.899 146.397 296.323 147.155C295.841 147.791 295.49 148.515 295.288 149.286C295.087 150.058 295.04 150.861 295.15 151.651C293.88 152.046 292.782 152.861 292.036 153.962C291.29 155.063 290.941 156.385 291.045 157.711C292.195 218.167 299.464 278.352 312.742 337.343C317.238 361.581 321.929 386.796 325.643 411.62C314.11 411.62 302.187 413.379 289.091 414.943C281.634 387.714 275.954 360.03 272.085 332.066C272.085 326.202 270.717 319.947 270.13 313.692C269.446 295.441 265.815 277.422 259.38 260.33C248.043 234.919 227.324 236.678 207.191 238.242H198.981C197.356 238.392 195.854 239.17 194.795 240.412C193.736 241.653 193.204 243.26 193.313 244.888C193.331 246.113 193.688 247.309 194.343 248.343C194.999 249.378 195.927 250.212 197.026 250.752C194.732 277.009 197.384 303.464 204.845 328.743C206.409 334.802 207.582 340.275 208.363 344.38C209.145 348.485 209.732 352.785 210.514 358.453C212.347 380.931 217.552 403.005 225.955 423.934V423.934C217.355 425.107 208.95 426.084 200.349 426.866C185.9 383.421 179.281 337.755 180.803 291.995C180.896 290.017 180.334 288.063 179.203 286.437C178.071 284.811 176.435 283.604 174.548 283.004C166.395 281.089 157.89 281.267 149.824 283.523C141.759 285.779 134.395 290.038 128.418 295.904C127.33 297.1 126.562 298.551 126.186 300.124C125.81 301.696 125.839 303.337 126.268 304.896C137.82 346.379 144.961 388.966 147.574 431.948L95.7755 435.858H92.0617H86.9796L83.4612 395.201C80.7247 362.167 78.1836 328.743 72.5151 294.536C69.9741 277.922 67.2376 261.503 64.3056 244.888C55.0751 195.371 48.5499 145.388 44.7591 95.1617C45.9595 94.107 46.7256 92.6443 46.9092 91.0569V91.0569V93.4025C50.2321 103.176 55.5097 119.008 66.4557 119.008H67.824C69.7565 118.682 71.5085 117.675 72.7632 116.169C74.018 114.664 74.6926 112.759 74.6652 110.799C74.2059 105.992 72.5969 101.366 69.9741 97.3118L68.0194 94.1844C65.6738 89.1023 63.7192 83.6293 61.7645 78.3517L58.6371 69.7512C53.1641 55.0913 47.4956 47.8591 41.4362 45.9045C40.0416 45.4258 38.5538 45.2825 37.0935 45.4863C35.6332 45.69 34.2414 46.2351 33.0312 47.0773C25.0361 54.38 19.5616 64.0289 17.3939 74.6379L15.8302 78.7426C13.2892 85.3884 11.139 92.2297 8.98893 98.2891C6.83881 104.349 3.90684 113.731 0.974858 121.159C0.0528653 123.29 -0.0797401 125.681 0.600809 127.902C1.28136 130.122 2.73057 132.028 4.6887 133.277C6.59002 134.181 8.76588 134.32 10.7667 133.665C12.7674 133.01 14.4402 131.612 15.4393 129.759C21.1056 120.088 25.2584 109.607 27.7536 98.6801C31.9176 158.417 39.8826 217.829 51.6004 276.553L53.1641 285.936C60.8436 326.764 66.0654 368.016 68.8013 409.47C68.8013 415.464 68.8013 421.979 68.8013 429.016C68.8013 431.753 68.8013 434.489 68.8013 437.226C49.0034 438.841 30.049 445.948 14.071 457.75C12.5543 458.976 11.5811 460.751 11.3616 462.689C11.1422 464.628 11.6941 466.574 12.8982 468.109C13.3243 468.713 13.8682 469.224 14.497 469.611C15.1258 469.999 15.8266 470.255 16.5572 470.365C17.2877 470.474 18.0329 470.435 18.7477 470.249C19.4626 470.063 20.1325 469.734 20.7168 469.282C28.4552 464.878 37.0592 462.21 45.9319 461.463L56.2915 459.509L69.3877 456.968C70.0667 464.548 72.0506 471.955 75.2516 478.86C75.8559 480.286 76.8606 481.507 78.1441 482.374C79.4277 483.241 80.935 483.718 82.4839 483.747H84.8294C87.0946 482.839 88.9752 481.174 90.1513 479.036C91.3273 476.897 91.7261 474.418 91.2798 472.019C91.2798 466.155 89.9115 460.486 89.3251 454.622C100.271 453.449 112.39 452.863 126.073 452.472C155.842 451.43 185.533 448.755 215.009 444.458C229.865 442.503 245.306 440.549 260.553 438.985L271.108 438.008C305.901 434.294 341.671 430.775 377.245 430.189H387.214C387.881 431.985 389.081 433.533 390.653 434.627C392.225 435.72 394.095 436.306 396.01 436.306C397.925 436.306 399.795 435.72 401.367 434.627C402.939 433.533 404.14 431.985 404.806 430.189C425.466 429.64 445.886 425.609 465.205 418.266C461.744 426.718 459.125 435.492 457.386 444.458C456.868 446.488 456.922 448.623 457.543 450.624C458.164 452.625 459.328 454.415 460.905 455.795C462.199 456.917 463.751 457.701 465.423 458.076C467.094 458.452 468.833 458.407 470.482 457.945C472.16 457.312 473.631 456.229 474.734 454.815C475.837 453.402 476.53 451.712 476.737 449.931C480.451 430.751 488.033 412.528 499.02 396.374C500.165 394.579 500.741 392.479 500.671 390.351C500.601 388.223 499.889 386.166 498.629 384.45V384.45ZM224.978 345.357C223.805 339.884 222.046 333.238 220.091 325.811C211.767 301.679 207.732 276.276 208.168 250.752C216.017 250.585 223.866 251.108 231.624 252.316C247.457 255.443 250.193 285.349 251.17 303.137C251.17 305.482 251.17 307.828 251.17 309.782L252.93 324.833C254.71 355.65 260.357 386.121 269.74 415.529L242.57 419.243C240.62 402.711 236.817 386.45 231.233 370.768C230.06 362.949 227.519 354.349 225.564 346.334L224.978 345.357ZM344.798 160.252H348.121C348.121 160.252 348.121 160.252 349.098 160.252C353.79 164.161 354.571 186.835 354.962 200.322C354.962 205.404 354.962 209.704 354.962 212.636C358.09 248.993 364.149 285.545 369.818 320.729C374.509 349.657 379.396 379.368 382.718 409.47H343.625C338.543 374.872 332.093 340.08 325.838 306.46C316.847 258.18 307.464 208.727 301.796 158.297C308.705 161.472 316.295 162.883 323.883 162.402H326.62C332.832 162.571 339.047 162.178 345.189 161.229L344.798 160.252ZM145.228 316.624L142.687 306.264C144.829 303.667 147.562 301.62 150.656 300.294C153.75 298.968 157.117 298.401 160.474 298.641C162.038 298.641 162.429 298.641 162.625 298.641C162.82 298.641 163.797 306.069 162.625 309.782C162.538 311.41 162.538 313.041 162.625 314.669C163.003 327.16 164.047 339.623 165.752 352.003C168.962 377.447 174.124 402.606 181.194 427.257L160.67 429.212C161.657 391.25 156.576 353.374 145.619 317.015L145.228 316.624Z" fill="#231F20"/>
<path d="M127.83 244.302V246.061L131.739 242.934L133.499 241.761C134.827 241.709 136.102 241.222 137.126 240.374C138.151 239.527 138.868 238.366 139.167 237.07C150.895 227.688 163.014 217.523 174.742 209.509C226.931 170.416 280.879 128.782 316.063 65.647C316.063 74.052 316.063 82.457 316.063 90.2756C315.913 92.2436 316.308 94.2149 317.205 95.9733C318.101 97.7316 319.465 99.2093 321.145 100.244C322.684 101.156 324.439 101.637 326.227 101.637C328.016 101.637 329.771 101.156 331.309 100.244C332.982 99.1878 334.35 97.7117 335.276 95.9629C336.202 94.214 336.654 92.2533 336.587 90.2756V90.2756C337.654 67.9696 335.348 45.6303 329.746 24.0129C329.339 22.2231 328.504 20.5587 327.313 19.1628C326.121 17.7668 324.608 16.6811 322.904 15.9988C321.69 15.6209 320.405 15.5301 319.15 15.7337C317.895 15.9372 316.704 16.4294 315.672 17.1716C312.662 19.5241 309.458 21.6166 306.094 23.4265C293.721 26.2185 281.942 31.1819 271.301 38.0864C268.974 39.7777 267.349 42.2655 266.736 45.0767C266.124 47.8879 266.566 50.8262 267.979 53.3327C268.845 55.3759 270.468 57.005 272.508 57.8793C274.548 58.7536 276.847 58.8054 278.925 58.0238L291.043 53.1372L302.576 48.446C272.474 105.131 228.104 140.119 181.192 177.258C161.646 193.09 140.731 209.314 121.38 227.492C119.786 229.224 118.902 231.491 118.902 233.845C118.902 236.198 119.786 238.466 121.38 240.197C122.077 241.323 123.019 242.277 124.136 242.987C125.252 243.698 126.515 244.147 127.83 244.302Z" fill="#231F20"/>
</g>
<defs>
<clipPath id="clip0">
<rect width="500" height="500" fill="white"/>
</clipPath>
</defs>
</svg>
