<svg width="500" height="792" viewBox="0 0 500 792" fill="none" xmlns="http://www.w3.org/2000/svg">
<g clip-path="url(#clip0)">
<path d="M491.274 173.917C479.539 159.947 460.153 164.503 444.85 173.917C442.916 162.913 437.199 156.035 428.215 153.972C408.7 149.673 391.893 172.369 385.703 185.136C375.042 207.23 376.16 232.419 377.965 249.613C380.759 276.35 387.938 295.349 399.931 307.686C400.153 308.305 400.562 308.84 401.1 309.217C401.639 309.594 402.282 309.795 402.94 309.792H403.584C404.301 309.656 404.943 309.262 405.387 308.683C405.831 308.104 406.047 307.381 405.992 306.654C405.046 288.557 418.887 280.863 433.158 272.997L437.8 270.418C451.716 262.763 464.897 253.842 477.175 243.767C497.592 226.358 508.768 194.85 491.274 173.917ZM431.095 218.148L430.321 219.567C429.139 222.272 427.528 224.768 425.55 226.96C416.953 230.7 414.718 229.496 414.374 229.238C414.03 228.98 413.729 227.433 414.073 225.627V225.284V224.983C413.811 222.259 414.527 219.532 416.093 217.288V217.031C418.606 212.125 421.48 207.412 424.69 202.931C428.795 196.793 433.582 191.141 438.961 186.081C438.961 188.102 438.961 190.079 439.262 192.013V193.475C438.199 202.129 435.5 210.502 431.31 218.148H431.095ZM398.125 287.999C394.279 280.872 391.389 273.27 389.528 265.388C386.284 248.537 385.892 231.261 388.368 214.279C390.133 199.424 396.576 185.515 406.765 174.561C413.084 168.329 418.887 165.191 423.959 165.191C426.681 165.203 429.329 166.075 431.525 167.684C435.093 170.408 437.491 174.389 438.23 178.817C435.153 181.135 432.277 183.709 429.633 186.511C421.896 195.108 403.842 216.343 406.335 229.883C406.627 231.71 407.347 233.442 408.438 234.937C409.529 236.432 410.96 237.646 412.611 238.48C413.851 239.171 415.219 239.6 416.631 239.741C418.044 239.881 419.47 239.73 420.821 239.297C428.086 237.104 434.276 227.734 438.015 220.297C442.811 211.001 445.247 200.668 445.108 190.208C445.404 187.137 445.491 184.049 445.366 180.966C449.58 177.975 454.255 175.696 459.207 174.218C464.279 172.756 476.831 170.177 484.009 177.871C486.898 181.203 489.068 185.095 490.384 189.303C491.701 193.511 492.135 197.946 491.66 202.33C489.855 230.27 460.195 246.948 436.425 260.359L431.138 263.325C420.864 269.171 404.616 278.456 399.759 291.738L398.125 287.999Z" fill="#F36967"/>
<path d="M334.68 3.61079C331.195 2.0018 327.376 1.24821 323.54 1.41269C319.705 1.57717 315.964 2.65497 312.629 4.55645C305.452 8.06259 299.084 13.0253 293.931 19.1283C290.935 11.8175 285.306 5.89662 278.155 2.53616C275.083 1.0336 271.733 0.181678 268.315 0.033747C264.898 -0.114184 261.487 0.445064 258.296 1.67647C254.591 3.26686 251.244 5.5856 248.453 8.49496C245.662 11.4043 243.483 14.8449 242.048 18.6125C232.849 40.9646 241.489 72.1716 247.464 88.7638C257.222 115.93 269.601 134.371 284.259 143.484C285.078 144.117 286.098 144.434 287.131 144.375C288.165 144.317 289.143 143.888 289.885 143.166C290.628 142.445 291.085 141.48 291.173 140.448C291.26 139.417 290.973 138.388 290.363 137.552C294.189 120.659 304.419 105.743 314.349 91.2569C317.443 86.7435 320.624 82.1012 323.547 77.5018C334.637 60.0069 346.243 39.6751 344.008 19.8161C343.942 16.5484 343.052 13.3502 341.422 10.5176C339.791 7.68493 337.473 5.30938 334.68 3.61079V3.61079ZM286.967 70.4952C286.238 71.5279 285.289 72.3869 284.189 73.011C283.09 73.6351 281.866 74.009 280.605 74.106C280.304 74.106 279.445 74.106 278.843 71.8707C278.241 67.6555 278.76 63.3561 280.347 59.4051C282.582 53.3647 285.329 47.5262 288.558 41.9533L288.901 41.3085C289.202 40.7497 289.503 40.1909 289.847 39.6321C290.363 43.9306 290.535 47.8422 290.621 51.195C290.75 57.2129 290.965 65.509 286.967 70.4952ZM278.671 119.498C272.702 111.406 267.507 102.771 263.154 93.7071V93.7071C256.03 77.575 252.075 60.2236 251.505 42.5981C251.247 32.9694 251.934 22.3092 258.941 15.9045C260.422 14.4526 262.212 13.3543 264.177 12.6918C266.142 12.0294 268.231 11.8198 270.289 12.0788C273.184 12.6159 275.928 13.774 278.332 15.4733C280.736 17.1726 282.744 19.3728 284.216 21.9223C285.409 23.8363 286.402 25.8672 287.182 27.9832C283.127 34.0535 279.699 40.5201 276.952 47.2834C275.361 51.1091 267.71 70.7102 273.04 79.651C273.798 80.9361 274.854 82.0207 276.118 82.8135C277.382 83.6063 278.817 84.0843 280.304 84.2074C281.945 84.4163 283.611 84.2628 285.185 83.7578C286.76 83.2527 288.205 82.4084 289.417 81.2844C298.014 73.7621 298.616 53.9461 298.659 48.0142C298.824 41.5098 298.262 35.0074 296.983 28.628C299.163 25.7134 301.593 22.995 304.247 20.5038C310.222 15.1307 321.828 8.59703 329.006 10.5743C330.666 11.1446 332.132 12.1672 333.241 13.5268C334.35 14.8863 335.057 16.5287 335.282 18.2686C338.033 29.3587 333.133 42.2972 329.178 51.0661C323.54 62.5188 316.834 73.4137 309.147 83.6056C299.39 97.4467 289.288 111.718 284.517 127.794C282.497 124.957 280.562 122.206 278.671 119.498Z" fill="#F36967"/>
<path d="M139.528 784.775C137.481 766.52 137.15 748.114 138.539 729.797C138.926 720.083 139.399 710.024 139.27 700.138C139.27 678.258 137.422 645.977 125.687 618.466C121.388 608.15 112.104 595.383 99.3371 590.526C95.7577 589.101 91.9197 588.442 88.07 588.59C84.2203 588.738 80.4443 589.69 76.985 591.386C54.031 602.175 53.8161 639.314 53.7301 655.132C53.7301 657.11 53.7301 659.431 53.7301 661.623C45.0949 654.874 34.5865 650.956 23.6407 650.404C20.1862 650.215 16.7372 650.863 13.5866 652.292C10.436 653.721 7.67701 655.89 5.5441 658.614C-2.15019 669.059 -0.559747 686.812 3.17994 698.848C19.7291 752.192 77.1139 792.082 137.078 792.082H138.367C139.23 792.097 140.067 791.787 140.712 791.214C141.357 790.641 141.763 789.846 141.849 788.987C141.965 788.129 141.802 787.256 141.384 786.498C140.966 785.74 140.315 785.136 139.528 784.775V784.775ZM138.367 786.322V786.623V786.365V786.322ZM83.4757 598.65C86.5195 597.905 89.6896 597.834 92.7637 598.443C95.8378 599.052 98.7415 600.326 101.271 602.175C117.219 613.179 121.216 638.153 124.139 656.422V656.895C127.294 679.214 128.445 701.771 127.578 724.295C127.578 728.221 127.449 732.133 127.191 736.03C126.214 751.469 126.645 766.964 128.481 782.325C95.6404 774.415 61.7683 763.712 36.6222 733.924C23.7679 719.67 15.3306 701.989 12.3357 683.03C11.7033 679.991 11.8147 676.845 12.6604 673.858C13.5062 670.872 15.0612 668.134 17.193 665.879C19.3034 664.133 21.9777 663.216 24.7154 663.3C26.5664 663.328 28.4042 663.617 30.1744 664.159C38.9152 666.809 47.1112 671.002 54.3749 676.539C56.7821 699.235 63.3158 713.119 74.3629 719.008C78.6614 721.372 82.1431 721.501 84.2064 719.352C90.5252 712.904 77.6297 688.145 77.5008 687.93C73.1867 680.539 67.814 673.819 61.5534 667.985C61.0571 658.07 61.4311 648.131 62.671 638.282C63.3781 629.23 65.4354 620.334 68.7749 611.89C70.0856 608.728 72.0856 605.899 74.6288 603.608C77.1721 601.318 80.1945 599.624 83.4757 598.65V598.65ZM73.0733 696.699C78.4035 705.296 80.0799 711.529 79.0052 712.99C78.5754 713.549 78.3605 713.506 78.1885 713.463C74.5348 712.861 67.5713 700.567 66.6256 697.515C65.246 693.296 64.1545 688.988 63.3588 684.62C67.055 688.255 70.3152 692.309 73.0733 696.699V696.699Z" fill="#F36967"/>
</g>
<defs>
<clipPath id="clip0">
<rect width="500" height="791.953" fill="white"/>
</clipPath>
</defs>
</svg>
