<svg width="500" height="500" viewBox="0 0 500 500" fill="none" xmlns="http://www.w3.org/2000/svg">
<path d="M468.742 216.236C468.108 206.183 466.009 195.789 461.91 182.516C458.885 172.854 455.274 162.655 449.467 153.481C448.979 152.7 448.491 151.919 448.003 151.138C442.928 143.135 437.657 134.84 430.191 128.301C426.531 125.08 422.335 121.42 416.918 120.346C410.525 119.078 404.035 117.565 397.789 116.15C389.444 114.198 380.807 112.246 372.121 110.733C368.705 110.148 365.191 109.464 361.873 108.781C353.772 107.171 345.33 105.463 336.742 105.073C330.008 104.78 323.127 104.097 316.49 103.413C312.684 103.023 308.731 102.633 304.827 102.291C281.99 100.388 281.551 100.437 258.518 103.56L257.932 103.657C248.758 104.877 239.486 106.146 230.507 107.317C226.652 107.805 222.846 108.342 218.991 108.83C217.576 107.903 216.16 106.976 214.745 106.097C211.573 104.048 208.255 101.901 205.083 99.7047C203.18 98.3871 201.277 96.9231 199.471 95.508C196.738 93.4096 193.908 91.2137 190.883 89.3593C187.564 87.3586 184.344 85.1139 181.367 82.7227C174.486 77.1109 168.24 72.0358 161.555 67.5463C153.844 62.3737 146.085 56.2739 141.742 46.9045L141.547 46.4165L141.157 46.1237C138.082 43.9278 138.034 41.0487 138.229 36.5592C138.229 36.12 138.278 35.6808 138.278 35.1928L138.326 34.3633C138.473 29.9714 138.619 25.4819 137.887 21.0412C135.496 6.40164 124.858 -1.55254 110.072 0.253008C101.972 1.22898 95.0909 3.86411 89.5278 8.10959C82.208 13.7702 75.1322 19.8701 68.4468 26.2139C65.8605 28.6538 63.5182 31.3377 61.2246 33.9729C59.3215 36.1688 57.3695 38.4136 55.32 40.4631C49.2202 46.5141 43.6571 53.8339 37.8501 63.5448C32.9702 71.6454 30.7743 80.966 31.0183 92.1409C31.0671 94.6296 31.8478 97.0207 32.5798 99.3631C32.7262 99.8022 32.8726 100.241 32.9702 100.632C34.7758 106.585 39.4604 110.343 45.5115 110.733C47.1706 110.831 48.781 111.075 50.5377 111.319C54.7344 111.904 59.0287 112.49 63.4694 111.368H63.5182C64.9821 110.928 66.5437 111.319 67.7148 112.343L67.7636 112.392C68.642 113.124 69.5692 113.856 70.4476 114.539C72.0091 115.711 73.4243 116.833 74.7419 118.102C80.1585 123.372 85.4776 128.886 90.0158 133.571C90.0158 133.717 90.0646 133.913 90.0646 134.108C89.8206 134.205 89.5278 134.303 89.2839 134.4C87.6735 134.986 86.1607 135.523 84.5992 136.157C82.9888 136.792 81.3785 137.426 79.7681 138.06C74.4979 140.061 69.0812 142.159 64.1525 145.478C60.9318 147.625 57.5647 149.577 54.1 151.334C48.5858 154.066 44.5843 158.8 42.242 165.339C40.9244 168.999 40.4852 172.903 40.046 176.66C39.8996 177.831 39.802 179.002 39.6068 180.174C39.07 184.175 38.6797 188.274 38.2893 192.227L38.1429 193.935C38.0453 195.106 37.8989 196.277 37.7525 197.448C37.3621 200.864 36.9229 204.427 37.1669 207.94C37.7525 217.602 38.6797 227.85 40.1436 241.026C40.5828 245.027 41.2172 249.029 41.8028 252.932C42.2908 256.202 42.8275 259.569 43.2667 262.887C43.5595 265.181 43.7059 267.572 43.8523 269.866C44.0475 272.696 44.1939 275.624 44.6331 278.503C45.7555 285.969 47.2682 293.533 48.7322 300.804L48.9762 302.121C49.2202 303.439 49.7569 304.61 50.2449 305.733C50.4889 306.318 50.7329 306.904 50.9769 307.489C52.7337 312.516 54.5392 317.542 56.2472 322.47C57.0767 324.813 57.9063 327.155 58.6871 329.4C58.1015 330.327 57.5159 331.254 56.9303 332.133C55.4176 334.475 54.0024 336.671 52.9777 339.062C49.4642 347.602 47.561 356.922 47.073 367.609C46.5362 379.516 49.9033 390.691 53.1729 401.524C54.0512 404.403 54.9296 407.38 55.7592 410.308C56.4424 412.748 57.3695 415.139 58.2479 417.384C58.9799 419.287 59.7607 421.288 60.3463 423.24C62.6886 430.95 69.2764 433.439 75.0346 435.586C79.3289 437.196 83.184 436.074 86.8927 434.951C87.7711 434.707 88.6983 434.415 89.6254 434.171C100.215 431.584 106.949 425.289 110.17 414.944C111.536 410.65 113.683 406.551 115.782 402.793C119.978 395.278 125.004 391.13 130.665 390.545C133.251 391.618 135.691 392.594 138.034 393.521C141.986 395.132 145.695 396.644 149.355 398.108C150.77 398.694 152.185 399.182 153.6 399.67C155.308 400.304 157.114 400.939 158.773 401.671C164.824 404.257 171.07 406.453 177.121 408.551C179.025 409.234 180.928 409.869 182.831 410.552C183.66 410.845 184.49 411.186 185.32 411.479C187.369 412.26 189.467 413.09 191.712 413.578C198.593 415.139 205.62 416.701 212.452 418.165C218.259 419.433 224.261 420.702 230.117 422.069C241.584 424.655 254.906 427.436 268.424 427.827C269.058 427.827 269.692 427.876 270.327 427.876C274.475 427.973 278.769 428.071 282.624 428.998C287.504 430.169 292.091 430.12 296.824 429.974C297.508 429.974 298.191 429.876 298.825 429.828C299.655 429.73 300.484 429.632 301.216 429.681C304.193 429.828 307.219 430.023 310.147 430.218C312.635 430.364 315.173 430.559 317.71 430.706C319.516 430.803 321.37 430.852 323.127 430.95C325.274 431.047 327.47 431.096 329.666 431.243C332.447 431.34 334.936 432.951 336.156 435.488C337.376 437.782 338.499 440.173 338.742 442.466C338.84 443.491 338.938 444.516 339.035 445.541C339.767 452.812 340.45 459.643 339.23 466.67C338.499 470.672 338.45 475.21 339.084 480.92C339.67 486.239 342.549 490.728 347.721 494.29C354.7 499.122 362.751 500 369.437 500C370.218 500 370.95 500 371.73 499.951C379.148 499.756 386.712 497.121 392.811 495.022C402.62 491.607 410.965 484.824 417.016 475.405C426.873 460.034 431.411 442.564 434.534 427.534C436.828 416.603 438.341 405.526 439.853 394.741C441.561 382.298 440.146 372.489 435.364 363.998C434.778 362.973 434.29 361.949 433.705 360.729C433.509 360.289 433.314 359.899 433.07 359.411C434.29 355.312 435.608 352.482 438.243 350.383C439.463 349.407 440.39 348.09 440.927 346.626C443.074 340.575 446.1 334.963 449.467 328.766C452.443 323.349 454.639 317.542 456.786 311.881C457.47 310.124 458.153 308.27 458.836 306.513L458.885 306.367C461.325 300.218 463.862 293.874 465.961 287.433C467.132 283.773 467.815 279.967 468.01 276.161C469.62 252.054 469.864 233.559 468.742 216.236ZM350.942 425.484C354.992 423.581 359.092 421.629 363.142 419.677L365.972 418.311C369.681 416.554 373.536 414.749 377.245 412.846C387.102 407.917 394.91 400.304 402.474 392.985L403.547 391.96C405.792 389.764 407.988 387.47 410.135 385.226C411.745 383.518 413.453 381.761 415.112 380.102C416.186 379.028 417.406 378.101 418.675 377.076C418.772 377.027 418.87 376.93 418.967 376.881C421.212 380.102 422.237 383.664 422.286 388.202C422.335 394.888 422.188 403.671 420.236 412.406C419.504 415.676 418.919 419.043 418.333 422.312C417.064 429.34 415.796 436.659 413.112 443.345C412.575 444.711 412.038 446.126 411.452 447.493C409.159 453.397 406.768 459.497 403.694 465.011C399.741 472.185 393.446 477.455 385.443 480.334C376.659 483.457 367.631 483.408 357.823 480.188C356.31 476.284 356.212 473.502 356.603 470.379C358.457 455.154 356.505 439.685 350.942 425.484ZM405.206 366.096C398.082 372.977 390.567 379.76 382.222 386.933C379.977 388.837 377.293 390.398 374.658 391.911C373.926 392.35 373.194 392.741 372.462 393.18L371.828 393.57C360.751 400.06 349.332 406.795 336.303 409.039C334.79 409.283 333.472 409.82 332.155 410.357C331.715 410.552 331.228 410.747 330.788 410.894C319.565 414.993 308.78 415.237 297.8 411.723C289.944 409.186 281.892 407.917 273.694 407.917C272.132 407.917 270.522 407.966 268.912 408.063C256.858 408.942 244.805 407.673 233.191 404.355C231.044 403.72 228.799 403.281 226.603 402.988C215.331 401.524 204.205 398.157 193.469 394.936C191.859 394.448 190.199 393.961 188.589 393.473C166.727 386.982 144.67 376.979 117.197 360.973C112.366 358.191 107.095 355.312 100.166 351.652C92.8462 347.797 86.8439 342.38 81.3297 334.573C75.8154 326.814 71.8627 318.03 69.1788 307.782C68.3492 304.708 67.4221 301.585 66.5437 298.608C64.5917 292.118 62.591 285.432 61.7614 278.649C61.371 275.477 60.9806 272.208 60.639 269.085C60.3463 266.547 60.0535 263.912 59.7607 261.326C59.0287 255.519 58.3455 249.712 57.6135 243.856C56.5888 235.511 55.5152 226.874 54.4904 218.383C53.9536 214.137 53.612 210.185 54.1976 205.647C56.0032 206.379 57.8087 207.11 59.5167 207.794C64.5429 209.794 69.2764 211.698 73.8635 213.845C83.8672 218.529 94.8957 221.75 108.608 224.092C114.464 225.068 120.369 226.386 126.078 227.655C130.031 228.533 134.179 229.46 138.229 230.241L139.644 230.534C146.915 231.949 154.43 233.413 161.945 234.291C177.121 236.048 191.078 238.098 204.546 240.586C208.987 241.416 213.525 241.806 217.917 242.148C222.553 242.538 227.335 242.929 231.873 243.856C237.876 245.076 243.976 245.417 249.831 245.759C254.467 246.052 259.25 246.296 263.885 247.028C272.084 248.248 280.575 248.15 288.773 248.004C291.261 247.955 293.848 247.906 296.336 247.906C312.879 247.906 329.568 245.954 345.623 244.051C347.917 243.758 350.161 243.514 352.455 243.27C360.702 242.294 368.949 240.245 376.903 238.244C381.002 237.219 385.248 236.146 389.396 235.267C401.839 232.73 413.307 226.728 422.579 218.041C423.408 217.261 424.433 216.577 425.507 215.845C426.19 215.357 426.922 214.918 427.605 214.381C435.461 208.379 440.927 201.694 444.392 193.935C444.636 193.349 444.88 192.715 445.124 192.129C445.465 191.202 445.856 190.275 446.295 189.445C448.637 194.911 449.662 200.571 450.735 206.086C450.931 207.208 451.126 208.282 451.37 209.355C452.443 214.772 452.639 220.53 452.736 226.386C452.931 237.658 452.931 249.126 452.736 260.399C452.639 264.888 452.248 269.475 451.858 273.867C451.711 275.429 451.565 277.039 451.467 278.6V278.649C451.419 279.381 451.272 280.064 451.028 280.748C449.808 283.724 448.637 286.75 447.417 289.775C444.148 297.974 440.78 306.416 437.218 314.614C436.145 317.054 434.632 319.299 433.07 321.641C431.899 323.349 430.728 325.106 429.703 327.009C425.946 333.841 423.262 339.208 420.968 344.332C417.308 352.335 412.184 359.411 405.206 366.096ZM68.2028 345.601C73.9123 352.384 78.9385 357.605 84.2088 362.29C89.5766 367.024 95.4813 370.928 101.24 374.734L102.996 375.905C103.875 376.491 104.753 376.979 105.631 377.515C106.607 378.101 107.535 378.638 108.462 379.272C109.389 379.906 109.926 380.638 110.023 381.224C110.121 381.956 109.535 382.737 109.047 383.274C102.167 390.74 97.0916 399.816 93.9685 410.259C92.6998 414.505 90.0646 416.652 84.8432 417.677C81.1345 418.409 79.9145 416.847 79.2801 415.432C78.5481 413.87 77.8162 412.309 77.0842 410.698C74.5955 405.477 72.0579 400.109 70.2036 394.595C67.3245 386.348 65.6165 377.759 65.0797 369.073C64.6405 361.997 64.7869 354.287 68.2028 345.601ZM125.2 58.8602C127.347 60.4217 129.494 62.0321 131.592 63.5937C133.593 65.1064 135.691 66.668 137.741 68.1807L137.839 68.2295C149.989 77.0133 162.579 86.1386 175.023 94.9224L175.218 95.0688C183.026 100.583 191.078 106.341 199.276 111.563C207.23 116.638 214.745 122.64 222.065 128.398C224.407 130.253 226.847 132.205 229.238 134.059C233.045 137.036 236.851 140.159 240.56 143.135C248.319 149.479 256.37 156.018 264.91 161.728C270.717 165.632 276.378 170.072 281.795 174.415C284.381 176.465 287.016 178.563 289.651 180.564C293.165 183.248 296.727 185.981 300.24 188.567C303.559 191.056 306.828 193.544 310.147 196.082L310.732 196.521C312.391 197.79 313.904 198.912 314.978 200.571C314.099 200.913 313.221 201.206 312.489 201.303C306.633 201.84 300.728 202.279 294.97 202.719C292.237 202.914 289.553 203.109 286.821 203.353C284.771 203.499 282.673 203.695 280.623 203.89C276.671 204.231 272.572 204.573 268.521 204.817C254.662 205.695 240.999 204.329 229.434 202.865C224.846 202.279 220.211 201.352 215.721 200.474C208.645 199.059 201.326 197.644 193.811 197.4C190.639 197.302 187.467 196.521 184.1 195.74C182.977 195.448 181.757 195.155 180.586 194.911C175.511 193.837 170.924 191.349 167.215 187.689C159.7 180.32 151.844 172.951 144.28 165.876C141.254 163.045 138.278 160.264 135.252 157.433C134.862 157.043 134.423 156.75 134.032 156.457C133.691 156.213 133.105 155.774 133.007 155.628C130.812 150.309 126.371 147.869 121.979 145.771C121.198 145.38 120.369 144.551 119.588 143.721C119.393 143.526 119.246 143.331 119.051 143.184C106.9 130.838 94.6517 118.248 82.5984 105.804C81.0857 104.243 79.6705 102.486 78.1578 100.632C77.377 99.7046 76.5962 98.7287 75.7666 97.7039L75.3762 97.2159L74.7907 97.0695C67.5685 95.2152 59.0287 93.4096 49.6106 93.4096C49.1714 93.4096 48.7322 93.4096 48.293 93.4096C46.9754 86.0898 47.9026 79.6484 51.0745 73.7926C55.564 65.4968 59.8095 59.7874 64.8845 55.2979C66.9341 53.4435 68.6908 51.2964 70.35 49.1981C70.7892 48.6125 71.2772 48.0757 71.7163 47.4901C78.9385 38.7551 87.7223 31.2402 96.2133 24.018L96.7012 23.6276C101.825 19.2357 108.023 17.9669 113.39 17.2349C116.367 16.8445 119.1 18.7477 120.32 22.066C121.735 25.9211 122.028 30.1178 121.296 35.632C121.149 36.852 120.954 38.072 120.808 39.2919C120.466 41.6831 120.125 44.1718 119.832 46.6605C119.344 51.8332 121.149 55.9323 125.2 58.8602ZM311.366 174.171C302.29 168.511 293.262 162.411 284.478 156.506C281.453 154.457 278.427 152.407 275.353 150.358C274.475 149.772 273.596 149.089 272.572 148.211C274.328 147.625 275.792 147.137 276.866 147.332C280.233 147.967 283.405 147.576 286.479 147.235C288.578 146.991 290.529 146.795 292.53 146.844C294.921 146.942 297.361 147.137 299.752 147.381C301.558 147.527 303.412 147.674 305.267 147.82C306.633 147.918 307.999 147.918 309.317 147.918C311.074 147.918 312.733 147.967 314.343 148.113C321.419 148.845 328.592 149.186 335.522 149.577C341.182 149.87 346.99 150.211 352.699 150.699C360.702 151.382 368.802 152.895 376.61 154.359C379.685 154.945 382.905 155.53 386.077 156.067C386.809 156.213 387.59 156.506 388.42 156.848C388.956 157.092 389.493 157.287 390.128 157.482C391.835 158.019 392.86 158.995 392.909 162.021C392.958 167.34 391.591 170.804 388.322 173.488C384.808 176.367 381.197 179.393 376.659 181.15C371.242 183.297 364.118 186.176 357.14 189.641C350.552 192.91 343.476 194.813 334.985 196.57C334.448 195.984 333.911 195.399 333.423 194.813C332.057 193.3 330.74 191.837 329.471 190.373C324.737 185.053 318.93 178.905 311.366 174.171ZM139.205 181.979C141.645 184.175 144.231 186.469 146.622 188.762C136.033 187.347 121.149 183.102 111.682 178.71C108.95 177.441 107.047 176.416 105.875 174.513C106.363 171.927 107.486 170.17 109.389 169.048C113.342 166.754 116.953 165.68 120.466 165.68C121.735 165.68 123.638 166.656 124.614 167.779C129.104 172.951 134.227 177.538 139.205 181.979ZM100.703 147.43L102.557 147.088L107.242 151.187C106.266 152.261 104.948 152.846 103.387 153.481C102.752 153.725 102.118 154.018 101.484 154.31C93.3341 158.361 87.5759 168.023 88.3567 176.367C88.5519 178.466 89.2839 180.515 90.455 182.321C94.4565 188.323 99.2876 192.373 105.192 194.716C106.412 195.204 107.632 195.692 108.852 196.18C115.294 198.766 121.93 201.45 129.299 202.231C131.641 202.475 133.935 203.109 136.375 203.743C138.082 204.183 139.888 204.671 141.694 205.012C144.182 205.5 146.72 205.842 149.16 206.183C151.502 206.525 153.893 206.818 156.236 207.257C160.335 207.989 164.531 208.867 168.582 209.648C172.486 210.429 176.536 211.258 180.586 211.99C185.076 212.82 189.614 213.552 194.006 214.235C195.909 214.528 197.763 214.821 199.666 215.162C200.594 215.309 201.521 215.455 202.497 215.601C204.302 215.845 206.01 216.089 207.718 216.48C224.066 220.042 238.852 223.116 254.223 224.239C258.03 224.532 261.836 224.483 265.545 224.483C266.423 224.483 267.253 224.483 268.131 224.483C269.156 224.483 270.18 224.434 271.156 224.336C272.62 224.239 273.987 224.141 275.255 224.288C285.698 225.556 295.702 223.702 306.682 221.311C309.415 220.725 312.196 220.14 314.929 219.505C323.664 217.602 332.74 215.65 341.67 213.991C361.287 210.38 379.099 202.133 396.13 188.811C400.766 185.151 404.767 180.662 408.622 174.611C413.648 166.803 411.697 158.702 409.403 152.505C407.256 146.649 401.937 142.403 394.763 140.842C393.787 140.647 392.811 140.403 391.884 140.208C386.907 139.134 381.783 138.012 376.659 137.28C364.069 135.474 350.357 133.669 334.79 131.765C317.661 129.618 300.24 128.837 283.014 129.521C273.645 129.911 264.959 131.521 257.2 134.352C252.955 135.864 249.831 134.449 246.415 131.814C243.927 129.862 241.731 127.422 239.388 124.836C238.803 124.153 238.169 123.518 237.534 122.835C237.632 122.786 237.681 122.738 237.729 122.738C246.171 120.834 254.906 118.883 263.593 117.223C265.74 116.833 267.984 116.833 270.376 116.882C271.059 116.882 271.742 116.882 272.376 116.882C282.087 116.931 291.993 117.028 301.704 117.175C302.924 117.175 304.193 117.175 305.413 117.175C308.487 117.126 311.415 117.077 314.197 117.614C318.491 118.443 322.737 118.443 326.884 118.492C329.861 118.492 332.643 118.492 335.473 118.785C343.232 119.566 349.966 120.542 356.017 121.713C362.605 122.982 369.242 124.348 375.683 125.714C381.637 126.983 387.785 128.252 393.836 129.423C408.378 132.253 419.651 138.402 428.288 148.308C430.24 150.504 431.85 153.139 433.558 155.921C434.241 157.043 434.973 158.214 435.754 159.385C434.534 169.536 432.631 176.611 429.362 182.955L429.313 183.004C428.483 184.761 427.458 186.371 426.19 187.835C425.214 188.909 424.238 189.982 423.262 191.056C418.967 195.74 414.478 200.571 409.696 204.866C405.499 208.672 400.863 211.844 395.837 214.381C384.174 220.189 372.95 223.409 361.531 224.288C360.507 224.288 359.482 224.385 358.506 224.58L358.36 224.629C344.598 228.24 330.3 229.558 316.832 230.436C306.877 231.071 296.727 231.217 286.918 231.315C283.746 231.363 280.575 231.412 277.403 231.461C275.109 231.51 272.816 231.315 270.62 230.778C256.956 227.46 242.804 225.996 229.141 224.629C225.042 224.19 220.796 223.8 216.648 223.312C210.988 222.677 205.278 222.238 199.715 221.799C194.152 221.36 188.345 220.921 182.733 220.286C181.318 220.14 179.952 219.945 178.537 219.798C164.434 218.188 149.843 216.529 135.838 212.771C127.737 210.624 119.441 208.867 111.39 207.11C106.119 205.988 100.703 204.817 95.4325 203.548C83.0864 200.62 72.5947 196.082 63.4206 189.641L63.3718 189.592C61.9566 188.665 60.5902 187.591 59.3703 186.42C54.2952 181.198 53.8072 177.295 57.4671 171.487C61.3222 165.339 65.0797 160.849 70.9844 158.8C72.6923 158.214 74.2051 157.336 75.6202 156.213C80.8417 151.773 87.0879 149.918 94.8469 148.503C96.6525 148.162 98.5556 147.82 100.703 147.43Z" fill="#231F20"/>
</svg>
