<svg width="612" height="1154" viewBox="0 0 612 1154" fill="none" xmlns="http://www.w3.org/2000/svg">
<g clip-path="url(#clip0)">
<path d="M473.95 1034.82C475.302 1034.84 476.601 1035.35 477.6 1036.26C478.598 1037.17 479.227 1038.42 479.367 1039.76C480.229 1054.92 479.432 1070.12 476.991 1085.1L476.326 1090.51L479.937 1090.04C484.317 1089.44 488.728 1089.09 493.148 1088.99C495.866 1088.7 498.614 1089 501.206 1089.87C503.797 1090.74 506.17 1092.16 508.164 1094.03C503.887 1101.63 494.383 1102.11 485.07 1102.58H478.512H476.231L474.71 1105.05V1106.96C473.696 1122.06 471.181 1137.02 467.202 1151.62C467.089 1152.29 466.739 1152.9 466.216 1153.34C465.693 1153.77 465.032 1154.01 464.351 1154C463.432 1153.98 462.553 1153.62 461.886 1152.98C461.219 1152.35 460.81 1151.49 460.74 1150.58C459.784 1136.6 460.166 1122.57 461.88 1108.67V1105.05L458.364 1105.53C453.732 1106.14 449.065 1106.46 444.393 1106.48C439.897 1106.57 435.413 1106 431.087 1104.77C430.214 1104.44 429.45 1103.87 428.879 1103.14C428.309 1102.4 427.955 1101.52 427.856 1100.59C427.76 1099.84 427.9 1099.08 428.258 1098.41C428.616 1097.75 429.174 1097.21 429.852 1096.88C439.69 1092.69 450.339 1090.74 461.025 1091.18H463.591C463.591 1091.18 464.256 1081.68 464.446 1078.54C464.943 1064.96 466.758 1051.47 469.863 1038.24C470.04 1037.29 470.545 1036.42 471.291 1035.8C472.037 1035.17 472.977 1034.83 473.95 1034.82V1034.82Z" fill="#F36967"/>
<path d="M571.459 654.001C572.454 653.978 573.429 654.282 574.236 654.865C575.042 655.449 575.636 656.28 575.926 657.232C578.897 669.681 579.477 682.582 577.637 695.248V698.479H583.814C586.475 698.479 589.231 698.479 591.892 698.479C598.584 698.014 605.248 699.713 610.9 703.326C611.214 703.526 611.449 703.828 611.565 704.181C603.773 709.592 594.294 712.021 584.859 711.024H577.256L575.926 713.59C575.864 727.236 572.609 740.678 566.422 752.841C566.25 753.083 566.022 753.279 565.757 753.411C565.491 753.544 565.198 753.609 564.901 753.601C564.547 753.602 564.201 753.493 563.912 753.288C563.623 753.084 563.404 752.795 563.286 752.461C560.937 741.071 560.679 729.349 562.525 717.867L563.191 711.499H559.959H542.282H530.402C529.575 711.526 528.752 711.382 527.984 711.075C527.216 710.768 526.52 710.306 525.939 709.716C525.359 709.127 524.907 708.424 524.612 707.651C524.317 706.878 524.185 706.053 524.225 705.227C524.173 704.384 524.294 703.54 524.581 702.746C524.868 701.952 525.315 701.225 525.894 700.611C526.473 699.996 527.171 699.507 527.947 699.173C528.722 698.839 529.558 698.667 530.402 698.669C540.571 698.669 550.836 698.669 561.005 698.669H564.046V690.401C563.481 679.23 564.472 668.035 566.992 657.137C567.248 656.209 567.81 655.395 568.586 654.826C569.362 654.257 570.307 653.966 571.269 654.001H571.459Z" fill="#F36967"/>
<path d="M295.372 906.901C295.909 906.905 296.435 907.048 296.901 907.314C297.367 907.58 297.757 907.962 298.033 908.421C302.405 915.644 300.6 928.285 298.984 939.499L298.414 943.206H302.025C307.388 942.571 312.781 942.222 318.182 942.16C322.413 942.168 326.637 942.485 330.822 943.111C332.057 943.111 332.343 944.821 332.343 945.107C332.49 945.593 332.477 946.115 332.306 946.594C332.135 947.073 331.815 947.484 331.392 947.768C321.282 952.011 310.63 954.825 299.744 956.131H297.368V964.97C297.887 979.537 296.124 994.096 292.141 1008.12C292.019 1008.53 291.768 1008.89 291.426 1009.14C291.084 1009.4 290.668 1009.54 290.24 1009.54C289.845 1009.55 289.459 1009.43 289.147 1009.18C288.836 1008.94 288.617 1008.6 288.53 1008.21C284.281 993.078 282.673 977.324 283.778 961.643V958.222L261.729 961.453H260.778C259.535 961.965 258.221 962.286 256.882 962.404L255.646 961.833L254.601 962.594L253.555 963.259C252.798 963.351 252.032 963.351 251.274 963.259C250.206 963.233 249.163 962.93 248.247 962.38C247.331 961.831 246.573 961.053 246.047 960.123C245.463 959.111 245.156 957.964 245.156 956.796C245.156 955.629 245.463 954.481 246.047 953.47C249.564 946.912 262.774 946.247 272.468 945.772C275.604 945.772 278.55 945.772 280.831 945.202L284.823 944.631V942.35C285.488 933.987 286.344 925.719 287.199 918.115L287.769 912.698C287.792 911.31 288.243 909.964 289.059 908.841C289.875 907.719 291.018 906.875 292.331 906.426L294.707 905.76L295.372 906.901Z" fill="#F36967"/>
</g>
<g clip-path="url(#clip1)">
<path d="M47.3373 119.179C46.3775 119.125 45.4507 118.811 44.657 118.268C43.8632 117.726 43.2327 116.978 42.8337 116.103C39.2076 101.711 38.9445 86.6769 42.0648 72.1665V67.8827H37.8909C29.8888 69.0949 21.8171 69.792 13.7257 69.9697C9.10544 69.7248 4.51321 69.1002 -0.00457905 68.1023C-0.0928995 67.9132 -0.138672 67.707 -0.138672 67.4982C-0.138672 67.2895 -0.0928995 67.0832 -0.00457905 66.8941C12.4973 58.874 26.8102 54.1156 41.6255 53.054L43.9322 52.7245V50.0883C45.1751 34.1575 48.0834 18.4007 52.6097 3.07599C52.8305 2.1953 53.3399 1.41393 54.0566 0.8565C54.7733 0.299069 55.656 -0.00231525 56.564 0.00041453C57.1303 -0.0294346 57.6968 0.05644 58.2288 0.252797C58.7609 0.449153 59.2473 0.751873 59.6585 1.14248C60.0696 1.53308 60.3969 2.00338 60.6203 2.52466C60.8436 3.04595 60.9584 3.60728 60.9576 4.1744C61.2783 18.3423 60.544 32.5144 58.7608 46.5733V50.7473H62.8249C68.5049 49.9779 74.2285 49.5744 79.9603 49.5391C84.7582 49.4859 89.5473 49.9648 94.2397 50.967C95.1197 51.2241 95.9032 51.7376 96.4901 52.4419C97.077 53.1462 97.4408 54.0094 97.535 54.9213C97.6388 56.2379 97.3083 57.5522 96.5942 58.6631C95.88 59.774 94.8215 60.6203 93.5807 61.0725C83.3836 63.6636 72.9067 64.9917 62.3856 65.0268H56.8935V67.8827C56.8935 72.1665 56.8935 76.3405 56.2344 80.6243C56.7195 93.0842 54.5866 105.507 49.9735 117.092C49.7913 117.583 49.4608 118.006 49.0279 118.301C48.5949 118.596 48.0809 118.749 47.5569 118.739L47.3373 119.179Z" fill="#F36967"/>
<path d="M299.864 499.998C297.867 500.028 295.937 499.28 294.482 497.911C293.908 497.273 293.467 496.526 293.184 495.715C292.901 494.904 292.782 494.045 292.834 493.188C292.834 484.84 292.834 476.053 292.834 466.936V452.437H289.649C279.378 452.329 269.2 450.472 259.552 446.945C258.78 446.672 258.112 446.166 257.64 445.497C257.168 444.828 256.915 444.029 256.916 443.21C256.929 442.529 257.177 441.873 257.617 441.353C258.057 440.833 258.663 440.48 259.333 440.354C269.295 437.549 279.636 436.326 289.978 436.73H293.054V433.654C293.323 419.711 295.579 405.879 299.754 392.573C299.978 391.965 300.381 391.439 300.911 391.066C301.441 390.694 302.072 390.491 302.72 390.486C303.323 390.446 303.921 390.623 304.405 390.986C304.889 391.349 305.226 391.873 305.356 392.463C308.74 405.55 310.293 419.042 309.97 432.556V436.071H317L340.506 434.423C341.352 434.314 342.212 434.386 343.028 434.634C343.845 434.881 344.599 435.299 345.243 435.859C345.886 436.42 346.403 437.11 346.761 437.885C347.118 438.66 347.307 439.501 347.316 440.354C347.5 442.477 346.844 444.587 345.488 446.23C344.132 447.874 342.185 448.919 340.066 449.142C331.608 450.13 322.272 451.229 312.606 451.888H309.64L308.761 466.936C308.212 475.833 307.663 484.511 307.553 492.749C307.54 493.715 307.331 494.669 306.938 495.552C306.546 496.436 305.978 497.23 305.269 497.887C304.561 498.545 303.726 499.051 302.816 499.376C301.906 499.701 300.939 499.838 299.974 499.779L299.864 499.998Z" fill="#F36967"/>
</g>
<defs>
<clipPath id="clip0">
<rect width="366.565" height="500" fill="white" transform="translate(611.565 1154) rotate(-180)"/>
</clipPath>
<clipPath id="clip1">
<rect width="347.21" height="500" fill="white"/>
</clipPath>
</defs>
</svg>
