<svg width="500" height="500" viewBox="0 0 500 500" fill="none" xmlns="http://www.w3.org/2000/svg">
<g clip-path="url(#clip0)">
<path d="M417.621 10.5815C415.611 3.52714 409.779 -0.435044 401.96 0.0940312C399.266 0.194655 396.603 0.718368 394.071 1.64599L392.449 2.29263C382.972 6.01968 373.179 9.87605 363.714 14.0499C346.56 21.6803 330.429 32.9202 314.428 48.3222C299.367 62.8189 286.61 79.1262 277.181 91.7064C261.896 112.093 246.683 133.068 231.986 153.338C225.598 162.148 219.202 170.946 212.798 179.733C211.858 181.026 210.882 182.296 209.847 183.636L209.189 184.495L204.686 183.507C200.312 182.531 196.173 181.614 191.87 181.014C180.301 179.427 165.064 178.04 149.803 181.414C145.215 182.484 140.861 184.38 136.952 187.011C129.581 192.064 123.656 198.953 119.763 206.998C112.627 221.236 105.56 236.32 98.8118 251.946C96.7801 256.987 95.7383 262.371 95.7432 267.806C95.6256 272.603 97.2716 276.424 100.376 278.552C103.479 280.68 107.865 280.904 112.474 278.987C115.336 277.648 117.951 275.836 120.21 273.626C121.468 272.402 122.646 271.098 123.737 269.723C124.724 268.499 125.788 267.341 126.923 266.254L127.805 265.431C129.992 263.409 132.249 261.328 134.648 260.364C148.239 254.967 160.631 253.451 172.459 255.755L177.479 264.855L172.177 285.889C170.319 286.547 168.45 287.182 166.616 287.794C161.571 289.365 156.637 291.274 151.849 293.508C137.233 300.854 123.958 310.607 112.58 322.36C94.0266 341.195 83.4569 365.203 80.2706 395.749C80.0176 398.299 79.939 400.864 80.0355 403.426C80.0355 403.72 80.0355 404.014 80.0355 404.32C80.0355 406.742 80.1413 410.798 84.3974 412.432C88.6535 414.066 91.3812 411.256 93.2506 409.481L93.7797 408.975C95.8255 407.059 97.8242 405.049 99.7641 403.097C101.704 401.145 103.703 399.146 105.713 397.218C107.253 395.772 108.888 394.373 110.522 392.997C109.056 398.029 107.571 403.058 106.066 408.082C102.268 420.815 98.3533 433.948 94.9554 447.092C92.4276 456.827 90.5347 466.856 88.7006 476.568C88.0304 480.095 87.372 483.622 86.6783 487.149C86.1978 489.404 86.146 491.73 86.5255 494.004C86.6816 495.106 87.0895 496.158 87.7175 497.078C88.3454 497.997 89.1766 498.76 90.1467 499.306C91.0567 499.755 92.0594 499.985 93.0743 499.976C94.387 499.953 95.6789 499.644 96.8601 499.071C97.9 498.555 98.8882 497.941 99.8112 497.237L100.564 496.696C103.479 494.686 106.383 492.64 109.287 490.594C115.378 486.303 121.68 481.859 128.029 477.779L136.6 472.3C153.271 461.718 170.472 450.714 186.062 437.828C185.086 441.355 184.169 444.8 183.346 448.221C183.264 448.597 183.17 448.974 183.064 449.397C182.112 453.147 180.819 458.297 185.651 461.848C191.212 465.928 197.255 462.318 200.159 460.59C220.593 448.386 234.185 435.288 242.944 419.381C253.725 399.945 260.464 378.528 262.755 356.421C262.943 353.341 262.794 350.25 262.308 347.203C262.226 346.568 262.143 345.945 262.073 345.31C261.591 341.03 261.003 336.774 260.497 333.012C260.356 331.966 260.215 330.954 260.086 329.99L270.867 318.715C271.582 318.875 272.288 319.071 272.983 319.303C273.36 319.432 273.759 319.55 274.159 319.656C274.848 319.805 275.508 320.067 276.111 320.432C286.293 331.319 293.876 341.077 297.827 353.352C298.849 356.24 299.413 359.271 299.496 362.334C299.492 369.149 298.054 375.887 295.275 382.11C293.229 386.543 291.56 391.175 289.949 395.666L289.161 397.853C288.304 400.04 288.038 402.414 288.391 404.736C288.744 407.059 289.703 409.247 291.172 411.08C294.346 414.913 299.543 416.559 305.433 415.607C308.438 415.171 311.311 414.083 313.852 412.42L315.027 411.621C320.143 408.28 324.954 404.495 329.406 400.31C341.646 388.13 353.015 373.269 364.161 354.751C367.536 349.235 370.117 343.27 371.827 337.033C374.801 325.628 377.106 314.483 372.697 303.36C363.785 280.869 353.415 264.561 340.047 252.169C338.554 250.782 337.143 249.324 335.65 247.772C335.379 247.478 335.097 247.196 334.815 246.902L335.226 246.244C336.073 244.856 336.849 243.598 337.578 242.34C339.541 239.083 341.528 235.862 343.527 232.629C347.912 225.516 352.439 218.167 356.519 210.69C363.267 198.333 369.981 185.682 376.506 173.454C383.278 160.71 390.262 147.589 397.305 134.656C407.604 115.844 411.613 95.3394 414.164 77.7976C416.41 62.3486 417.609 46.5351 418.773 31.239L419.244 25.0899C419.551 20.1962 419.002 15.2864 417.621 10.5815V10.5815ZM407.721 36.8942L407.181 42.326C406.005 54.0127 404.829 66.0992 402.889 77.8211C401.631 85.381 399.609 93.0115 397.646 100.383C396.846 103.381 396.047 106.391 395.294 109.401C395.191 109.784 395.045 110.155 394.859 110.506C378.846 103.099 363.761 93.6111 349.147 84.4287C338.342 77.633 327.196 70.6257 315.627 64.4414C315.92 64.0303 316.238 63.6377 316.579 63.2657C333.454 45.2251 353.866 30.8566 376.541 21.0572C378.622 20.1636 380.703 19.2466 382.784 18.3295C388.122 15.9781 393.636 13.5443 399.162 11.5456C401.267 10.7931 404.147 10.1347 405.97 11.2987C407.792 12.4626 408.321 15.2138 408.486 17.3537C409.038 23.7496 408.368 30.4042 407.721 36.8472V36.8942ZM311.618 363.087C311.578 358.43 310.878 353.803 309.537 349.343C305.12 335.981 297.443 323.931 287.198 314.283L322.658 267.618C334.062 275.989 340.682 286.759 342.857 300.538C346.125 321.208 342.457 340.713 331.629 360.183C325.375 371.531 317.707 382.04 308.808 391.457C306.292 394.103 304.023 396.995 301.824 399.805C303 396.525 304.175 393.162 305.551 390.011C309.854 380.37 311.841 371.529 311.618 363.087ZM349.982 347.497C359.834 322.078 357.201 295.847 342.551 273.65C338.589 267.63 333.474 263.233 327.666 258.718L329.007 256.472L331.17 258.73C334.002 261.601 336.686 264.615 339.212 267.759V267.759C348.309 279.605 355.588 292.741 360.81 306.735C364.114 315.529 362.08 324.229 359.917 333.435L359.728 334.27C358.576 338.783 356.749 343.095 354.308 347.062C348.982 355.927 343.727 363.804 338.483 370.906C342.972 363.448 346.807 355.616 349.946 347.497H349.982ZM158.009 196.346C143.607 199.791 135.259 211.301 130.157 219.66C128.212 223.098 126.587 226.707 125.301 230.442C123.408 235.45 121.574 240.483 119.728 245.515C117.376 251.852 115.025 258.448 112.568 264.796C112.249 265.833 111.602 266.738 110.724 267.374C109.846 268.01 108.784 268.343 107.7 268.324C107.024 264.37 107.617 260.304 109.393 256.707C115.484 243.281 122.409 228.702 130.556 212.148C132.111 209.328 133.985 206.697 136.141 204.305L136.882 203.412C139.349 200.224 142.447 197.58 145.984 195.646C149.52 193.712 153.418 192.529 157.433 192.172C161.85 191.7 166.289 191.469 170.731 191.478C181.276 191.573 191.791 192.623 202.146 194.618C201.966 195.035 201.737 195.429 201.464 195.793C200.576 195.744 199.697 195.594 198.842 195.346C186.45 192.395 173.106 192.736 158.009 196.346ZM132.32 241.999C136.176 231.359 139.833 221.318 148.357 213.911C153.291 209.389 159.451 206.424 166.063 205.387C173.135 204.132 180.293 203.417 187.473 203.247C189.877 203.242 192.279 203.372 194.669 203.635L196.315 203.847L172.706 244.327C158.75 242.164 144.489 244.104 129.204 250.206C130.333 247.478 131.332 244.703 132.32 241.999ZM195.221 449.608C196.902 443.988 198.748 438.298 200.453 432.796L202.193 427.305C202.323 426.882 202.487 426.458 202.652 426.023C203.154 424.853 203.491 423.619 203.651 422.355C203.765 421.288 203.594 420.209 203.155 419.23C202.716 418.25 202.025 417.404 201.152 416.779C200.279 416.154 199.256 415.771 198.188 415.671C197.119 415.57 196.042 415.755 195.068 416.206C193.247 417.069 191.56 418.189 190.06 419.533C165.828 440.156 138.61 457.615 112.262 474.51C108.382 477.003 104.538 479.719 100.505 482.599L98.6002 483.951C98.6058 483.861 98.6058 483.771 98.6002 483.681C99.1763 480.154 99.6701 477.015 100.376 473.993L100.681 472.7C107.547 443.307 114.649 412.949 125.289 384.168L125.407 383.85C125.864 382.753 126.184 381.604 126.359 380.429C126.566 379.363 126.48 378.26 126.109 377.239C125.738 376.219 125.097 375.318 124.254 374.633C123.38 374.021 122.335 373.7 121.268 373.715C120.15 373.735 119.051 374 118.047 374.491C116.053 375.471 114.202 376.717 112.544 378.195C107.018 382.898 101.457 387.801 96.0841 392.515L92.3688 395.772C92.0279 396.066 91.6869 396.36 91.3577 396.666C91.4301 394.748 91.6147 392.836 91.9103 390.94C97.4362 359.301 110.945 335.681 133.19 318.809C140.541 313.166 148.208 307.945 156.152 303.172C159.811 301.157 163.658 299.503 167.639 298.234C169.026 297.74 170.402 297.246 171.765 296.717C175.293 295.365 177.867 295.977 180.478 298.857C181.832 300.292 183.361 301.552 185.028 302.608C158.586 314.506 154.859 343.311 151.249 371.141C149.215 386.813 147.299 401.627 141.538 413.185C141.067 414.088 140.896 415.118 141.05 416.125C141.204 417.132 141.675 418.064 142.394 418.786C143.113 419.508 144.043 419.982 145.05 420.139C146.056 420.297 147.087 420.13 147.992 419.663C172.924 407.598 193.839 388.589 208.225 364.921C208.225 369.036 208.154 372.904 207.99 376.584C207.949 377.482 208.184 378.371 208.663 379.132C209.142 379.893 209.843 380.489 210.67 380.84C211.524 381.231 212.476 381.357 213.402 381.201C214.328 381.046 215.187 380.618 215.867 379.97C230.422 365.744 234.514 346.733 236.348 327.98C238.77 328.85 241.298 329.555 243.92 330.331C245.283 330.708 246.671 331.095 248.093 331.507L248.27 332.789C248.557 335.245 248.985 337.683 249.551 340.09C254.254 358.219 248.376 375.597 243.12 390.916C241.431 395.62 239.504 400.235 237.347 404.743C236.854 405.813 236.371 406.871 235.889 407.941C230.011 420.874 220.534 432.102 206.731 442.401C203.698 444.67 200.43 446.775 196.961 449.009L195.151 450.185C195.147 449.99 195.171 449.796 195.221 449.608V449.608ZM194.21 308.522C194.516 308.384 194.804 308.211 195.068 308.004C204.474 312.707 215.255 318.186 226.507 323.583C225.461 336.81 224.297 350.342 218.536 361.5C218.728 355.826 218.603 350.146 218.16 344.487C218.012 343.232 217.459 342.06 216.585 341.147C215.711 340.235 214.563 339.632 213.316 339.431C212.267 339.243 211.186 339.424 210.256 339.942C209.326 340.461 208.604 341.286 208.213 342.277C197.27 367.964 178.724 389.685 155.07 404.519C157.998 394.62 159.538 383.791 161.031 373.269C164.935 345.863 168.615 319.985 194.222 308.51L194.21 308.522ZM206.72 301.467L195.821 295.93L194.974 295.471L194.739 295.342C184.698 289.663 181.277 286.336 185.945 274.179L200.3 281.656C213.127 288.346 225.802 294.942 238.453 301.561C243.908 304.407 249.34 307.287 254.748 310.144L260.051 312.954C257.241 319.432 253.772 321.184 247.118 319.891C243.608 319.241 240.197 318.138 236.971 316.611C226.825 311.673 216.608 306.476 206.731 301.444L206.72 301.467ZM185.51 256.049C183.817 252.957 183.617 250.558 184.851 248.019C185.286 247.114 185.71 246.173 186.133 245.244C186.909 243.528 187.649 241.893 188.484 240.353C204.121 213.312 217.148 193.101 230.74 174.865C240.146 162.203 249.634 149.223 258.769 136.666C267.904 124.109 277.193 111.376 286.54 98.8431C291.407 92.2943 296.58 86.157 302.047 79.667C304.081 77.245 306.127 74.823 308.161 72.3658L390.062 122.628C389.615 123.674 389.145 124.744 388.604 125.732C385.853 130.787 383.11 135.839 380.374 140.887C376.353 148.223 372.144 155.807 368.158 163.308C364.972 169.245 361.809 175.312 358.753 181.179C352.874 192.407 346.878 204.012 340.399 215.075L335.403 223.623C322.94 245.009 310.042 267.124 294.84 287.112C290.314 293.061 285.293 299.022 279.92 304.806C276.228 308.78 276.228 308.78 271.185 306.194L248.728 294.672C233.091 286.665 216.984 278.376 201.064 270.134C193.622 266.348 188.684 261.845 185.51 256.049Z" fill="#231F20"/>
<path d="M310.618 195.17H310.888C334.203 195.017 353.073 175.547 352.944 151.751C352.827 129.33 336.084 112.258 313.969 112.176H313.793C308.13 112.135 302.516 113.22 297.276 115.367C292.037 117.514 287.276 120.681 283.27 124.683C279.264 128.686 276.094 133.444 273.942 138.682C271.791 143.92 270.702 149.533 270.738 155.196C270.657 160.459 271.633 165.686 273.607 170.566C275.582 175.446 278.515 179.881 282.233 183.608C285.951 187.335 290.379 190.278 295.254 192.264C300.13 194.25 305.354 195.238 310.618 195.17ZM284.952 144.614C286.58 139.444 289.573 134.809 293.617 131.199C299.99 125.556 306.421 122.746 313.064 122.746C316.764 122.79 320.417 123.591 323.798 125.097C334.18 129.541 340.599 139.711 340.54 151.645C340.458 166.412 330.041 179.627 316.309 182.39C305.915 184.483 297.285 181.732 290.643 174.16C283.212 165.777 281.296 155.842 284.952 144.614Z" fill="#231F20"/>
<path d="M266.282 257.601H266.611C284.058 257.425 298.202 243.492 298.144 226.562C298.175 222.855 297.468 219.179 296.065 215.748C294.663 212.316 292.591 209.198 289.972 206.575C287.046 203.782 283.596 201.598 279.82 200.149C276.043 198.7 272.017 198.015 267.975 198.133C258.463 198.215 249.915 201.66 243.908 207.774C241.216 210.535 239.103 213.805 237.69 217.392C236.276 220.979 235.592 224.812 235.677 228.666C235.866 244.692 249.575 257.601 266.282 257.601ZM247.129 228.208C247.315 223.13 249.49 218.329 253.184 214.84C256.767 211.113 261.667 208.936 266.834 208.773H266.94C276.745 208.773 285.317 217.274 285.293 226.868C285.274 229.246 284.781 231.596 283.845 233.782C282.908 235.968 281.546 237.946 279.838 239.601C275.937 243.418 270.681 245.532 265.223 245.479C255.183 245.338 247.094 237.602 247.129 228.149V228.208Z" fill="#231F20"/>
<path d="M392.742 19.7169C391.94 19.2133 391.016 18.9346 390.069 18.9098C389.122 18.885 388.185 19.115 387.357 19.5758L384.253 21.1631C366.688 30.5688 346.771 41.1504 335.026 58.5981C334.424 59.4686 334.175 60.5346 334.328 61.5817C334.48 62.6288 335.024 63.5791 335.849 64.2416C336.685 64.9793 337.756 65.3959 338.871 65.4173C339.991 65.4246 341.071 65.0041 341.892 64.2416C355.601 51.3086 371.285 40.4802 392.636 29.1345C393.446 28.7318 394.131 28.1186 394.622 27.3593C395.112 26.6 395.389 25.7227 395.423 24.8196C395.452 23.8104 395.22 22.8109 394.751 21.9171C394.281 21.0234 393.59 20.2657 392.742 19.7169V19.7169Z" fill="#231F20"/>
</g>
<defs>
<clipPath id="clip0">
<rect width="339.314" height="500" fill="white" transform="translate(80)"/>
</clipPath>
</defs>
</svg>
