<svg width="328" height="500" viewBox="0 0 328 500" fill="none" xmlns="http://www.w3.org/2000/svg">
<g clip-path="url(#clip0)">
<path d="M276.395 314.952L275.256 307.763C274.839 305.177 274.445 302.569 274.028 299.96C273.897 299.149 273.743 298.339 273.59 297.506C273.252 295.893 273.018 294.261 272.888 292.618C272.735 289.199 272.888 289.046 276.308 287.183C284.505 282.58 293.052 277.583 301.688 272.323C302.234 271.966 302.66 271.454 302.91 270.851C303.16 270.249 303.223 269.586 303.091 268.947C302.971 268.386 302.682 267.875 302.262 267.483C301.843 267.091 301.314 266.837 300.745 266.756C291.737 265.571 282.653 265.058 273.568 265.221C270.478 265.221 269.316 265.221 267.628 263.161C266.531 261.646 265.618 260.005 264.911 258.274C264.633 257.66 264.348 257.068 264.056 256.498C261.816 251.95 259.904 247.248 258.335 242.427C258.212 242.047 258.015 241.694 257.756 241.389C257.496 241.085 257.179 240.834 256.823 240.652C256.474 240.389 256.07 240.207 255.642 240.12C255.213 240.033 254.771 240.042 254.346 240.148C253.885 240.267 253.464 240.506 253.125 240.841C252.786 241.176 252.542 241.595 252.418 242.055L251.629 244.729C250.555 248.323 249.437 251.896 248.473 255.512C248.231 256.411 248.012 257.309 247.793 258.23C246.807 262.35 245.886 266.252 242.16 267.983C235.556 270.732 228.669 272.746 221.624 273.988C219.695 274.405 217.81 274.799 215.991 275.238C215.421 275.378 214.907 275.688 214.516 276.126C214.125 276.564 213.875 277.11 213.799 277.692C213.699 278.297 213.781 278.918 214.035 279.476C214.288 280.034 214.702 280.504 215.224 280.827L225.985 287.161L227.213 287.884C230.588 289.813 231.728 290.47 231.355 294.459L228.922 319.533C228.866 320.111 228.989 320.693 229.276 321.199C229.562 321.705 229.997 322.11 230.522 322.36C230.974 322.575 231.468 322.687 231.969 322.689C232.776 322.707 233.559 322.417 234.161 321.878L243.081 313.396C243.717 312.804 244.352 312.103 245.032 311.401C248.429 307.785 250.883 305.527 253.798 307.018C255.268 307.909 256.661 308.921 257.963 310.042C259.059 310.919 260.155 311.84 261.36 312.607C264.743 314.804 268.264 316.781 271.902 318.524C272.43 318.799 273.024 318.919 273.617 318.873C274.209 318.826 274.777 318.615 275.256 318.261C275.736 317.871 276.097 317.355 276.299 316.77C276.5 316.185 276.534 315.555 276.395 314.952V314.952ZM251.234 298.58C248.341 298.689 245.842 301.495 243.826 303.752C243.3 304.344 242.818 304.87 242.401 305.286L235.826 311.664L236.725 302.218C236.725 301.166 237.054 300.026 237.273 298.645C238.04 295.579 238.196 292.392 237.733 289.265C237.421 288.171 236.864 287.162 236.105 286.316C235.345 285.469 234.403 284.806 233.35 284.377L232.626 283.961C230.018 282.383 227.388 280.827 224.758 279.27C228.265 278.416 231.333 277.583 234.336 276.75C235.388 276.443 236.528 276.18 237.799 275.895C241.548 275.269 245.151 273.961 248.429 272.038C251.409 269.846 252.242 266.273 252.966 263.052C253.119 262.328 253.294 261.605 253.47 260.86C254.149 258.383 254.851 255.775 255.661 252.816C256.429 254.745 257.261 256.608 258.116 258.427L259.015 260.422C260.615 264.126 262.609 268.728 265.765 270.569C268.921 272.41 272.757 271.862 276.373 271.534C277.666 271.534 278.894 271.314 279.836 271.314C283.738 271.314 287.332 271.468 290.795 271.687C288.033 273.353 285.264 274.989 282.488 276.597C279.771 278.175 277.053 279.731 274.313 281.265C273.809 281.55 273.217 281.835 272.604 282.12C270.941 282.802 269.412 283.775 268.089 284.991C265.612 287.577 266.379 291.128 266.971 293.999C267.102 294.635 267.234 295.248 267.321 295.796C267.957 300.07 268.571 304.322 269.206 308.596L269.382 309.867C266.905 308.486 264.626 307.062 262.478 305.484C261.622 304.844 260.809 304.149 260.045 303.401C257.283 301.166 254.346 298.492 251.234 298.58V298.58Z" fill="#1C93B1"/>
<path d="M169.329 360.891L164.814 361.68L159.4 362.622C158.436 362.798 157.428 363.039 156.376 363.28C153.066 364.025 149.296 364.88 146.644 363.915C142.129 362.25 139.083 355.981 136.65 350.962C136.102 349.823 135.576 348.771 135.072 347.784C134.809 347.282 134.411 346.862 133.924 346.572C133.436 346.282 132.878 346.132 132.311 346.141C131.889 346.01 131.439 346.01 131.017 346.141H130.754V345.921V346.184C130.454 346.322 130.193 346.533 129.994 346.797C129.795 347.061 129.664 347.37 129.615 347.697V347.916C129.234 348.579 129.116 349.362 129.286 350.108C128.869 353.066 128.672 356.047 128.453 358.875V360.759C128.08 366.305 127.686 369.526 123.456 371.543C120.935 372.726 118.262 373.734 115.697 374.655C111.071 376.172 106.653 378.264 102.547 380.88C102.142 381.173 101.817 381.564 101.602 382.016C101.388 382.468 101.291 382.966 101.319 383.466C101.345 383.929 101.495 384.377 101.753 384.763C102.012 385.149 102.369 385.458 102.788 385.658C105.735 387.084 108.756 388.349 111.84 389.449C112.902 389.786 113.985 390.05 115.084 390.238C116.949 390.479 118.759 391.042 120.431 391.904C120.339 393.204 120.141 394.494 119.84 395.761C119.717 396.275 119.622 396.794 119.555 397.318C119.335 399.509 119.138 401.701 118.985 403.739C118.678 407.684 118.459 411.893 118.283 416.605C118.266 417.146 118.403 417.68 118.679 418.146C118.955 418.612 119.357 418.99 119.84 419.235C120.264 419.437 120.728 419.542 121.198 419.542C121.917 419.543 122.614 419.295 123.171 418.84C126.234 416.213 129.085 413.347 131.697 410.271C133.863 407.623 136.183 405.106 138.645 402.731C140.836 400.868 141.012 400.956 143.664 401.986L149.779 404.331L162.929 409.284C163.429 409.465 163.969 409.501 164.489 409.389C165.008 409.277 165.486 409.02 165.866 408.649C166.27 408.27 166.562 407.788 166.709 407.254C166.856 406.72 166.852 406.156 166.699 405.624C165.362 401.46 164.069 397.778 162.776 394.359C162.381 393.35 161.943 392.342 161.504 391.312C160.058 388.604 159.228 385.611 159.072 382.545C159.072 378.644 163.17 374.808 167.028 371.104C168.987 369.342 170.798 367.422 172.441 365.362C172.77 364.923 172.958 364.396 172.982 363.848C173.005 363.301 172.863 362.759 172.573 362.294C172.225 361.771 171.734 361.361 171.159 361.112C170.583 360.863 169.947 360.786 169.329 360.891V360.891ZM156.814 373.625C154.885 375.707 152.233 378.578 151.883 381.69C151.97 384.691 152.88 387.61 154.513 390.129C154.973 391.027 155.411 391.838 155.696 392.54C156.792 395.257 157.888 398.15 159.028 401.416L158.48 401.219L148.529 397.449C147.916 397.23 147.28 396.945 146.644 396.682C143.992 395.498 140.99 394.183 137.878 395.586C135.085 397.236 132.691 399.481 130.864 402.161C130.185 402.994 129.527 403.805 128.891 404.484C127.423 406.106 125.757 407.882 123.982 409.657C124.135 406.786 124.289 404.221 124.508 401.789C124.508 401.109 124.771 400.013 124.99 398.83C125.867 394.227 126.437 390.567 125.1 388.485C124.524 387.734 123.794 387.116 122.958 386.674C122.122 386.231 121.2 385.974 120.256 385.921L119.204 385.723C116.045 384.943 112.935 383.977 109.889 382.83C112.081 381.888 114.273 381.121 116.574 380.375C121.609 379.019 126.345 376.729 130.535 373.625C131.527 372.703 132.284 371.558 132.746 370.285C133.207 369.012 133.358 367.648 133.187 366.305C133.187 365.844 133.187 365.34 133.187 364.836V362.644C133.187 362.009 133.187 361.351 133.187 360.694C133.582 361.329 133.976 361.965 134.415 362.579L134.963 363.39C137.023 366.414 139.587 370.184 143.247 371.345C146.181 371.942 149.224 371.683 152.014 370.6C152.913 370.337 153.768 370.096 154.579 369.943L161.439 368.54L160.913 369.066C159.62 370.359 158.304 371.652 157.077 373.033L156.814 373.625Z" fill="#1C93B1"/>
<path d="M72.2566 22.7719C68.2785 21.8079 64.1771 21.4532 60.0925 21.7199C57.3715 21.8361 54.6456 21.7408 51.9393 21.4349C45.3641 20.5144 43.1724 9.79683 42.0327 3.39697V2.93671C41.8816 2.27017 41.4942 1.68091 40.9422 1.27797C40.3901 0.875033 39.7108 0.685689 39.03 0.744978V0.109375L38.7012 0.788812C38.076 0.835393 37.4825 1.08231 37.0087 1.49292C36.5349 1.90354 36.2061 2.45596 36.0711 3.06821C35.2383 4.58051 34.4273 6.09281 33.6164 7.62702C31.1178 12.2735 28.5316 17.0734 25.6823 21.413C23.8851 24.1089 21.54 24.3719 18.0989 24.6787L16.214 24.854C12.2689 25.2705 8.08272 25.4896 3.45816 25.5335C2.88821 25.5524 2.33656 25.7393 1.87252 26.0708C1.40847 26.4022 1.05274 26.8634 0.850001 27.3964C0.639299 27.8919 0.583061 28.4394 0.688646 28.9673C0.794231 29.4952 1.05672 29.979 1.44177 30.3553C4.46636 33.095 7.14027 35.2429 9.63885 37.2592C10.3183 37.7414 11.2169 38.2674 12.2689 38.8811C14.0442 39.8893 17.7263 41.9934 17.8578 43.1331C17.4854 44.4251 16.9938 45.6798 16.3894 46.881C16.1045 47.5385 15.8415 48.0864 15.7319 48.4152C14.9867 50.4096 14.2634 52.426 13.5401 54.4205C13.299 55.078 13.058 55.7575 12.7949 56.4369C11.1583 59.8487 10.4047 63.6168 10.6032 67.3956C10.6534 67.9204 10.8451 68.4218 11.1577 68.8464C11.4703 69.2709 11.8922 69.6027 12.3785 69.8065C12.71 69.9524 13.0684 70.0271 13.4305 70.0257C14.1172 70.0165 14.7809 69.7772 15.3154 69.3462C17.1565 67.8778 18.9537 66.3216 20.7948 64.7436C24.288 61.5878 28.0095 58.6941 31.9288 56.0862C32.6685 55.4858 33.5299 55.0533 34.4532 54.8187C35.3766 54.5841 36.34 54.5529 37.2766 54.7274C38.4058 55.4566 39.4562 56.3014 40.4108 57.2479L41.5943 58.3218C44.1806 60.5135 46.723 62.8587 49.3092 65.2258C49.7388 65.6217 50.2753 65.8826 50.8521 65.9761C51.4288 66.0697 52.0202 65.9916 52.553 65.7518C53.071 65.5259 53.5101 65.151 53.8145 64.6749C54.1189 64.1988 54.2749 63.6429 54.2625 63.0779C54.2625 61.1272 54.2625 59.1766 54.2625 57.204C54.2625 55.2315 54.2625 53.3904 54.2625 51.4617C54.2625 50.6727 54.2625 49.7302 54.0872 48.722C53.868 46.2892 53.5831 42.9578 54.5474 41.555C56.0638 40.0667 57.8198 38.8442 59.7419 37.9387C60.9035 37.325 61.9336 36.7552 62.8103 36.2072C66.4705 33.7744 69.9115 31.1881 73.1114 28.7772C73.638 28.378 74.0451 27.8421 74.2886 27.2277C74.532 26.6133 74.6024 25.944 74.4922 25.2924C74.3861 24.7078 74.1215 24.1636 73.7273 23.7191C73.3331 23.2747 72.8244 22.947 72.2566 22.7719V22.7719ZM47.7312 55.2534V55.8232C45.8244 54.1575 43.808 52.4699 41.682 50.848L40.893 50.2343C40.0255 49.3322 38.9785 48.6223 37.8194 48.1504C36.6604 47.6784 35.4152 47.4551 34.1643 47.4946C31.5562 47.8453 29.0357 50.2562 26.8439 52.4041C26.1207 53.1055 25.4632 53.7411 24.8933 54.2013L17.2222 60.3382C17.6168 59.1327 18.0989 57.9492 18.5592 56.7657C19.0195 55.5821 19.2825 54.9246 19.6112 54.0479C21.0724 50.059 22.5335 46.0846 23.9947 42.1249C24.2 41.5059 24.1832 40.8346 23.9472 40.2266C23.7112 39.6187 23.2708 39.1119 22.7016 38.7935C18.5216 36.5047 14.5342 33.8807 10.7785 30.9471C13.5182 30.9471 16.0825 30.6183 18.5592 30.3334L20.2907 30.18C22.9832 30.2537 25.6443 29.5865 27.9837 28.2512C30.3128 25.8978 32.0417 23.0187 33.0246 19.8569C33.463 18.8049 33.8575 17.8186 34.252 17.0515C35.2164 15.1008 36.1588 13.1283 37.0793 11.1776C37.6657 13.4148 38.3979 15.6112 39.2711 17.7528L40.0163 19.0679C40.7817 21.8372 42.2989 24.3406 44.3997 26.3006C46.8871 27.8849 49.8407 28.5731 52.7721 28.2512H53.7803H57.7693H61.9117C57.5282 30.969 53.2762 33.6648 49.0462 36.273L48.4106 36.6675C47.8685 36.995 47.4177 37.4539 47.0997 38.0016C46.7818 38.5494 46.607 39.1685 46.5915 39.8017C46.8326 44.9741 47.2928 50.1905 47.7312 55.2534Z" fill="#1C93B1"/>
<path d="M327.485 467.738C327.395 467.221 327.16 466.74 326.806 466.352C326.453 465.964 325.997 465.684 325.49 465.546C322.625 464.836 319.669 464.57 316.723 464.757C314.815 464.844 312.902 464.785 311.003 464.582C306.619 463.968 305.217 456.56 304.428 452.111V451.782C304.326 451.258 304.058 450.78 303.663 450.421C303.268 450.062 302.767 449.839 302.236 449.788L302.061 448.1L301.206 449.853C300.74 449.976 300.318 450.225 299.985 450.574C299.652 450.922 299.422 451.355 299.321 451.826C298.729 452.856 298.159 454.018 297.589 455.004C295.814 458.292 293.995 461.711 292 464.757C290.883 466.467 289.612 466.642 286.872 466.949L285.513 467.081C282.513 467.396 279.499 467.557 276.483 467.563C276.002 467.6 275.541 467.771 275.154 468.058C274.766 468.345 274.467 468.735 274.291 469.185C274.118 469.637 274.083 470.132 274.193 470.604C274.302 471.077 274.55 471.506 274.905 471.837C277.097 473.787 278.938 475.321 280.779 476.68C281.4 477.108 282.044 477.503 282.708 477.864C284.068 478.532 285.324 479.396 286.433 480.428C286.162 481.293 285.825 482.136 285.425 482.949C285.206 483.431 285.031 483.825 284.943 484.066C284.417 485.491 283.891 486.916 283.387 488.34L282.861 489.765C281.66 492.253 281.117 495.007 281.283 497.765C281.307 498.237 281.464 498.693 281.735 499.081C282.007 499.469 282.381 499.772 282.817 499.956C283.119 500.067 283.438 500.127 283.76 500.132C284.359 500.126 284.938 499.917 285.403 499.54C286.697 498.51 287.99 497.348 289.305 496.274C291.762 494.041 294.385 491.997 297.151 490.159C297.617 489.77 298.162 489.486 298.749 489.327C299.335 489.168 299.949 489.138 300.548 489.239C301.329 489.733 302.063 490.298 302.74 490.927C303.047 491.233 303.354 491.496 303.573 491.694C305.414 493.25 307.233 494.916 309.052 496.603C309.429 496.945 309.896 497.17 310.398 497.252C310.899 497.334 311.414 497.268 311.879 497.063C312.334 496.866 312.719 496.538 312.985 496.12C313.25 495.701 313.384 495.213 313.37 494.718C313.37 493.337 313.37 491.957 313.37 490.554C313.37 489.151 313.37 487.836 313.37 486.455C313.37 485.886 313.37 485.206 313.238 484.461C312.941 482.87 313.032 481.231 313.501 479.683C314.583 478.731 315.802 477.948 317.118 477.36C317.874 476.991 318.607 476.574 319.309 476.11C321.918 474.379 324.372 472.538 326.652 470.806C327.062 470.423 327.357 469.932 327.504 469.39C327.651 468.849 327.644 468.276 327.485 467.738ZM308.088 475.387C307.609 475.679 307.217 476.092 306.952 476.585C306.686 477.078 306.556 477.633 306.575 478.193C306.773 481.59 307.08 485.009 307.365 488.406C306.269 487.464 305.173 486.543 303.924 485.623L303.376 485.206C302.712 484.517 301.91 483.978 301.022 483.623C300.134 483.267 299.18 483.105 298.225 483.146C296.081 483.783 294.174 485.042 292.746 486.762C292.242 487.244 291.803 487.705 291.409 488.012L287.266 491.321C287.398 491.014 287.507 490.685 287.639 490.379C287.902 489.721 288.165 489.064 288.384 488.45C289.392 485.601 290.444 482.795 291.496 479.968C291.689 479.422 291.682 478.826 291.478 478.284C291.273 477.743 290.884 477.291 290.379 477.009C287.798 475.605 285.322 474.015 282.971 472.253C284.461 472.253 285.864 472.034 287.354 471.88L288.603 471.771C290.61 471.824 292.591 471.316 294.324 470.302C296.061 468.58 297.348 466.458 298.072 464.122C298.357 463.398 298.641 462.719 298.904 462.171C299.43 461.163 299.913 460.155 300.395 459.125C300.746 460.22 301.162 461.316 301.666 462.609C301.798 462.916 301.907 463.245 302.039 463.574C302.625 465.6 303.754 467.426 305.304 468.856C307.158 470.045 309.36 470.571 311.551 470.346H316.394L309.03 474.927L308.088 475.387Z" fill="#1C93B1"/>
</g>
<defs>
<clipPath id="clip0">
<rect width="326.963" height="500" fill="white" transform="translate(0.56543)"/>
</clipPath>
</defs>
</svg>
