<svg width="500" height="500" viewBox="0 0 500 500" fill="none" xmlns="http://www.w3.org/2000/svg">
<path d="M157.607 54.9288C159.086 59.0959 160.296 63.4646 161.505 67.6989C162.514 71.3283 163.522 75.0249 164.732 78.6543C165.471 80.805 168.563 83.023 170.915 83.023C170.982 83.023 171.049 83.023 171.049 83.023C173.536 82.8886 176.023 79.7969 176.493 77.8478C177.098 75.4282 177.233 72.9414 177.3 70.589C177.3 70.2529 177.3 69.8497 177.367 69.5136L178.644 69.1103L178.241 67.2956C177.434 63.8007 176.695 60.1713 175.956 56.7435C174.208 48.4766 172.394 39.8736 170.108 31.5394C167.823 23.4741 164.933 15.5432 161.505 7.94835C159.96 4.45338 157.271 1.89937 153.843 0.689568C150.886 -0.385808 147.66 -0.184175 145.039 1.16004C142.485 2.43705 138.788 6.20087 142.888 16.4169C148.534 30.2624 153.306 42.8981 157.607 54.9288Z" fill="#231F20"/>
<path d="M414.421 397.772C414.018 395.151 413.48 391.857 411.934 388.967C406.557 378.684 400.71 368.468 395.064 358.588C393.384 355.563 391.637 352.606 389.956 349.582L389.889 349.447C389.083 348.237 388.074 347.229 386.932 346.423C382.832 343.197 375.842 342.995 372.28 346.087C368.852 348.977 368.247 354.623 370.734 359.529L370.801 359.596C371.809 361.478 373.086 363.158 374.565 364.704C384.781 376.063 392.578 389.102 397.618 403.485L397.753 403.888C398.559 406.173 399.5 408.727 401.382 410.609C403.331 412.424 405.952 413.432 408.641 413.432C408.708 413.432 408.775 413.432 408.843 413.432H408.977C410.12 413.365 411.934 412.693 414.152 408.122C414.757 406.913 414.757 405.568 414.892 403.955C414.959 403.149 414.959 402.275 415.093 401.133V400.797L415.026 400.46C414.69 399.721 414.556 398.78 414.421 397.772Z" fill="#231F20"/>
<path d="M482.707 42.6292C479.01 38.8654 474.91 40.5457 471.953 41.8227C471.55 42.0243 471.079 42.1588 470.676 42.3604C465.501 44.3095 460.393 46.6619 455.419 48.9471C445.203 53.5846 434.651 58.3566 423.292 60.1041C418.722 60.8434 416.033 64.4056 416.437 69.1776C416.84 73.6807 419.797 76.3691 424.704 76.7724C425.04 76.7724 425.309 76.7724 425.712 76.7724C425.981 76.7724 426.25 76.7724 426.586 76.7724C427.056 76.7724 427.728 76.7724 428.535 76.7724H428.736L428.938 76.7052C429.14 76.638 429.476 76.638 429.812 76.5708C431.156 76.3691 433.172 76.1003 434.987 75.2266C439.288 73.2102 443.792 71.3283 448.093 69.5136C457.906 65.481 467.988 61.2467 476.994 54.7272C481.43 51.5011 483.715 48.6782 483.917 46.057C484.051 44.78 483.648 43.5702 482.707 42.6292Z" fill="#231F20"/>
<path d="M177.838 441.997C176.09 440.989 174.074 441.056 172.461 442.198C169.302 444.416 165.874 447.105 164.53 450.533C159.556 464.042 155.12 477.955 150.819 491.464L150.281 493.144C149.744 494.825 150.416 497.244 151.155 498.387C151.625 499.193 152.23 499.664 152.97 499.731C153.238 499.798 154.247 500 155.524 500C157.137 500 159.153 499.664 160.228 498.387C160.564 497.984 160.968 497.58 161.304 497.11C164.463 493.548 167.689 489.784 169.369 485.348C172.595 476.812 175.284 467.94 177.905 459.337C178.913 456.044 179.921 452.616 180.997 449.323C181.064 449.121 181.198 448.516 181.131 447.911C181.064 445.425 179.787 443.139 177.838 441.997ZM179.854 450.129L179.182 448.516L181.064 448.584C180.997 449.054 180.661 449.793 179.854 450.129Z" fill="#231F20"/>
<path d="M439.759 193.316C435.458 191.838 431.022 190.964 426.586 190.695C425.376 190.561 424.166 190.493 422.956 190.426C416.907 190.023 411.127 189.62 406.288 185.52C404.137 183.705 400.844 183.369 398.021 183.167L397.215 183.1C388.141 182.226 377.387 181.285 366.298 180.613C360.181 180.21 353.931 180.008 347.882 179.874C344.857 179.807 341.9 179.672 338.875 179.538C332.087 179.269 328.659 178.127 327.718 172.078C327.248 168.986 323.417 165.827 320.527 165.222C315.889 164.214 315.62 161.929 315.486 156.485C314.747 132.625 313.873 108.429 312.999 84.9721C312.73 77.3773 312.462 69.7825 312.125 62.1876H312.73V60.1713C312.73 56.8107 312.73 53.4502 312.73 50.0224C312.663 42.4276 312.663 34.6311 312.798 26.9019C312.932 21.2561 311.924 17.7612 309.504 15.5432C307.219 13.4597 303.791 12.7876 298.683 13.4597C285.779 15.0727 277.31 21.9283 273.614 33.6902L273.21 34.9C272.202 38.1933 271.127 41.5539 269.648 44.5784C264.338 55.2649 258.626 66.0187 253.181 76.4364L252.778 77.1757C251.568 79.4608 250.291 81.746 249.014 83.964C246.998 87.5262 244.915 91.2228 243.1 94.9866C233.623 115.217 222.869 136.456 208.285 155.073C205.731 158.299 203.513 161.727 201.563 165.222C200.018 167.91 199.682 171.069 200.488 174.027C201.295 176.984 203.244 179.471 205.932 181.017C206.067 181.084 206.134 181.151 206.201 181.151C210.771 183.638 216.283 181.756 219.979 176.513C220.853 175.236 221.323 173.892 221.861 172.548C222.063 171.943 222.332 171.338 222.533 170.801C223.004 169.792 223.407 168.717 223.81 167.709C224.684 165.424 225.558 163.273 226.835 161.458C240.882 140.824 252.375 118.443 263.465 96.7341C269.245 85.4426 275.227 73.7479 281.477 62.5237L282.687 60.3729C285.308 55.6682 287.997 50.7618 290.752 46.057C290.82 45.9226 291.156 45.7209 291.357 45.5865C291.492 45.7882 291.626 46.1242 291.693 46.3258C291.895 47.8045 292.164 49.3503 292.433 50.7618C293.172 54.7944 293.844 58.6254 293.508 62.3221C291.962 81.1411 293.105 100.162 294.18 118.578C294.852 129.869 295.524 141.497 295.592 152.99C295.592 154.132 295.592 155.275 295.659 156.35C295.793 165.289 295.995 173.086 288.534 179.941C285.308 182.966 284.233 187.402 285.779 191.905C287.526 196.946 292.164 200.642 297.272 201.045C300.364 201.314 303.388 201.045 306.345 200.777C308.093 200.642 309.975 200.441 311.722 200.441C313.671 200.373 315.688 200.306 317.637 200.239C325.03 199.97 332.625 199.768 340.085 199.903C344.118 199.97 348.218 200.373 352.183 200.709C357.56 201.18 363.071 201.65 368.583 201.516C375.102 201.314 381.554 202.188 387.805 204.137C394.526 206.221 401.382 208.17 408.036 210.052C410.791 210.858 413.547 211.598 416.37 212.404C416.571 212.471 416.706 212.471 416.907 212.539C417.042 212.673 417.176 212.807 417.311 212.942C417.848 213.479 418.386 214.017 418.722 214.488C418.52 214.757 418.319 215.093 418.117 215.16C414.824 217.109 411.329 218.924 407.834 220.469C383.436 230.349 358.635 240.364 334.171 250.177C331.281 251.252 328.323 252.193 325.299 253C324.56 253.201 323.82 253.403 323.081 253.604C318.376 254.949 313.873 256.158 309.235 254.075C306.749 252.932 302.918 252.596 298.482 257.099C294.449 261.199 292.567 265.904 292.433 272.423C292.298 281.094 291.962 290.302 290.551 299.375C288.736 310.801 286.518 322.428 284.435 333.653C282.889 341.92 281.276 350.455 279.797 358.924C278.318 367.393 277.109 375.996 275.899 384.33C275.294 388.43 274.756 392.529 274.084 396.629V396.764C274.017 397.705 273.815 398.646 273.479 399.519C273.143 400.057 272.807 400.662 272.471 401.2C272.135 400.931 271.799 400.662 271.732 400.46C270.858 397.705 270.051 394.882 269.312 392.126C268.304 388.497 267.229 384.733 265.952 381.036C263.666 374.584 261.18 368.132 258.827 361.881C255.131 352.136 251.3 341.987 248.006 331.905C244.646 321.555 241.823 310.868 239.067 300.518C237.723 295.477 236.312 290.234 234.9 285.126C234.362 283.11 233.69 281.094 232.749 279.145C229.994 273.364 224.214 269.063 217.761 267.92C212.317 266.979 207.075 268.391 203.445 271.953C195.918 279.279 187.315 285.462 178.981 291.511C175.418 294.133 171.655 296.754 168.092 299.51C154.381 309.994 140.872 321.219 127.833 332.04C120.776 337.887 113.517 343.936 106.326 349.783C104.444 351.262 102.293 352.472 99.9405 353.682C99.47 353.95 98.9995 354.152 98.5962 354.421C98.0586 352.27 98.9323 350.119 100.209 347.229C100.411 346.759 100.613 346.356 100.814 345.952C103.973 338.761 107.603 331.771 111.702 325.117C113.45 322.16 115.265 319.135 116.945 316.178C123.532 304.752 130.387 292.923 139.864 283.244C142.955 280.086 145.375 276.322 147.727 272.692L147.929 272.423C150.55 268.324 153.104 264.157 155.591 260.124C157.54 256.898 159.624 253.537 161.64 250.311C166.21 243.052 165.606 238.482 159.288 233.374C157.271 231.761 155.188 230.148 153.239 228.602C146.114 223.091 138.788 217.378 133.075 210.186C132.067 208.909 130.723 208.035 129.513 207.229C128.976 206.893 128.505 206.557 128.035 206.221C117.415 198.088 109.753 187.469 102.898 177.253C101.621 175.304 100.747 173.019 99.8733 170.532C99.6716 169.927 99.4028 169.255 99.2011 168.65C101.15 167.91 103.099 168.583 105.788 169.725C106.594 170.061 107.401 170.397 108.275 170.666C123.33 175.64 138.587 180.815 153.306 185.789C162.581 188.947 172.192 192.174 181.602 195.333C185.097 196.542 188.793 197.349 192.49 197.752C197.329 198.155 202.84 192.913 203.916 188.343C204.722 185.116 204.319 180.613 198.068 177.522C197.531 177.253 196.926 176.917 196.321 176.581C194.237 175.371 191.885 174.094 189.398 174.296C179.787 175.236 170.982 171.809 162.379 168.448C159.893 167.44 157.271 166.432 154.717 165.558C153.709 165.222 152.701 164.886 151.76 164.55C142.283 161.324 132.471 157.963 125.548 150.032C123.868 148.083 121.112 147.277 118.692 146.605C118.222 146.47 117.684 146.336 117.214 146.201C115.399 145.664 113.584 145.193 111.837 144.79C109.753 144.319 107.804 143.849 105.922 143.177C94.2947 139.211 85.6917 141.093 78.0297 149.36C72.384 155.476 71.107 160.853 73.7954 167.373L74.1315 168.247C75.5429 171.741 77.0215 175.304 79.3067 178.395C92.9505 196.677 106.594 214.286 123.666 228.535C131.597 235.189 135.293 239.557 136.1 243.187C136.839 246.547 135.159 249.908 132.672 254.881C131.597 257.032 130.387 259.452 129.11 262.275C128.64 263.148 128.035 264.022 127.363 264.761L127.295 264.896C111.702 285.664 99.7388 308.18 89.0523 329.486C85.8262 335.938 82.7345 342.659 79.8444 349.111C74.2659 361.411 68.5529 374.046 61.1597 385.607C59.0762 388.833 57.9336 393.47 58.068 398.041C58.2025 402.409 60.3532 406.039 63.781 407.652C67.2087 409.265 71.3086 408.66 74.7364 406.039C80.1804 401.872 85.2885 397.033 90.1277 392.328L90.7998 391.656C95.0341 387.556 99.3356 383.389 103.435 379.289C110.963 371.896 118.692 364.166 126.69 357.109C134.89 349.851 143.695 342.995 152.163 336.341C155.658 333.653 159.221 330.83 162.716 328.074C166.076 325.386 169.369 322.764 172.73 320.076C182.812 312.011 193.229 303.677 203.647 295.678C206.873 293.259 208.822 292.251 210.099 292.52C211.309 292.788 212.653 294.334 214.602 297.762C215.947 300.114 216.888 302.736 217.829 305.559C218.03 306.163 218.232 306.768 218.433 307.373C219.509 310.398 220.517 313.489 221.525 316.447C222.13 318.329 222.735 320.143 223.407 322.025C226.768 331.905 230.531 341.852 234.094 351.464C241.688 371.761 249.552 392.731 254.526 414.239C256.676 423.581 260.642 432.52 264.473 441.123L264.54 441.325C266.422 445.626 269.11 446.97 270.992 447.374C271.396 447.441 271.933 447.508 272.471 447.508C274.42 447.508 277.041 446.769 280.133 443.946C284.838 439.577 286.316 433.931 287.123 429.025L288.938 417.935C292.298 396.965 295.793 375.256 299.423 353.95C301.237 343.331 303.186 332.577 305.068 322.16C307.085 311.137 309.168 299.778 311.05 288.487C311.857 283.648 314.007 280.556 317.771 278.809C320.93 277.263 324.156 275.717 327.315 274.171C336.389 269.735 345.798 265.098 355.342 261.603C380.076 252.596 402.255 244.329 423.696 233.979C426.317 232.769 429.61 231.022 432.164 228.602C433.845 226.989 436.197 223.561 435.659 220.671C434.517 214.622 436.264 209.917 441.775 204.54C443.725 202.659 444.531 200.373 444.128 198.223C443.657 195.87 442.112 194.19 439.759 193.316Z" fill="#231F20"/>
<path d="M58.2697 292.654C58.4041 292.52 58.6057 292.318 58.8074 292.183C59.6811 291.377 60.7565 290.369 60.8909 288.89C61.0253 287.143 59.4795 284.253 57.5303 284.051C47.0454 282.976 36.3589 282.035 26.0084 281.161H25.6724H25.5379C24.7986 281.161 24.1265 281.363 23.4544 281.699C20.766 283.043 16.3972 285.328 17.0693 290.705C17.8087 295.813 21.8413 296.619 24.5298 296.619C25.3363 296.619 26.0084 296.552 26.4789 296.485L55.8501 293.662C56.6566 293.662 57.3959 293.393 58.0008 292.923L58.2697 292.654Z" fill="#231F20"/>
</svg>
