<svg width="500" height="500" viewBox="0 0 500 500" fill="none" xmlns="http://www.w3.org/2000/svg">
<path d="M87.2002 280.579C77.1099 272.451 66.4279 265.413 57.957 256.63C41.7627 239.938 26.0044 222.778 16.0386 202.193C11.9046 194.843 7.39327 187.712 2.52258 180.828C1.77515 179.614 1.21457 178.275 0 175.908C5.62021 174.293 11.3288 173.004 17.0975 172.046C42.0118 169.461 67.3622 167.032 92.806 164.603C99.9462 163.898 107.12 163.596 114.295 163.7C116.737 163.863 119.179 163.372 121.369 162.277C123.559 161.182 125.417 159.523 126.752 157.471C140.133 139.719 152.606 121.3 164.123 102.286C172.625 88.0848 182.249 74.2573 191.405 60.3987C192.15 58.9673 193.106 57.6552 194.239 56.5058C199.315 52.2704 201.339 47.4432 198.692 41.0589C201.121 40.6229 203.208 39.6575 204.578 40.1246C214.575 43.706 224.665 47.1318 234.226 51.4918C244.472 56.1944 254.158 61.9558 264.092 67.0633C266.802 68.4647 269.854 69.3055 272.439 70.8316C275.427 72.2674 278.096 74.2903 280.286 76.7799C285.55 84.0673 290.065 91.8842 295.111 99.3274C297.571 102.971 300.903 106.117 303.239 109.823C313.796 126.671 324.509 143.457 334.382 160.71C335.972 163.78 338.383 166.349 341.347 168.131C344.31 169.912 347.71 170.836 351.168 170.8C374.245 172.576 397.197 173.915 419.682 177.652C431.828 179.645 444.348 183.351 454.189 192.227C457.731 195.504 461.627 198.376 465.805 200.791C471.081 203.664 476.567 206.132 482.217 208.172C488.446 210.539 495.578 211.598 500 219.352C489.287 228.384 478.511 237.353 467.86 246.478C459.172 253.952 450.763 261.738 442.012 269.15C428.215 280.828 414.388 292.445 400.249 303.687C396.825 305.684 393.134 307.184 389.287 308.141C391 314.369 392.868 319.788 394.145 325.519C398.069 343.426 402.367 361.333 405.45 379.396C408.876 399.639 411.056 420.069 413.983 440.374C414.863 444.797 415.965 449.173 417.284 453.485L410.153 460.803C409.748 460.803 408.938 461.053 408.595 460.803C402.585 455.914 395.765 455.229 388.135 454.419C375.958 453.174 364.03 449.125 352.133 445.761C348.627 444.626 345.429 442.697 342.79 440.125C320.025 418.979 297.384 397.677 274.276 376.5C271.162 373.634 268.67 370.115 265.774 367.001C262.878 363.887 260.386 361.52 257.241 358.343C249.362 363.544 242.043 367.998 235.16 372.98C214.793 387.68 194.675 402.566 174.494 417.266C170.352 420.38 166.116 423.183 161.725 425.861C155.279 429.816 148.552 433.367 142.136 437.353C137.434 440.28 132.42 442.367 128.838 447.381C126.783 450.308 119.682 450.776 114.793 450.807C110.746 450.39 106.837 449.104 103.332 447.038C89.318 440.156 75.3036 433.211 61.3827 425.986C59.0057 425.036 56.8958 423.522 55.2353 421.574C53.5749 419.626 52.414 417.303 51.853 414.805C53.7875 410.316 55.2589 405.641 56.2442 400.853C58.4242 376.904 64.7773 353.859 71.5042 330.782C76.5494 314.058 81.8437 297.459 87.2002 280.579ZM393.055 430.315C392.121 425.705 391.778 423.401 391.155 421.159C389.131 413.591 386.359 406.148 384.927 398.486C380.193 372.046 375.926 345.543 371.442 319.072C371.309 316.132 370.088 313.346 368.016 311.255C364.092 307.611 364.902 301.912 369.044 297.864C374.338 292.569 379.85 287.462 385.394 282.292C394.021 274.413 402.367 266.16 411.492 258.904C427.063 246.447 443.071 234.861 458.829 222.84C459.608 222.249 459.857 220.941 460.666 219.383C450.95 218.667 441.981 218.449 432.98 217.266C417.129 215.148 401.401 212.407 385.612 209.978C377.39 208.733 369.168 207.518 360.698 206.459C359.236 206.318 357.774 206.717 356.587 207.58C349.673 213.279 343.133 213.591 338.462 207.424C332.214 199.65 326.561 191.415 321.551 182.79C309.094 160.025 297.664 136.823 285.83 113.809C282.311 106.957 278.916 100.075 274.93 92.1645C268.016 103.22 261.912 113.03 255.372 122.591C245.406 137.104 235.41 151.616 224.821 165.724C217.315 175.721 208.938 185.22 200.654 194.687C197.54 198.082 196.512 201.134 200.374 205.743C163.002 211.567 126.97 218.792 87.6985 219.539C98.0691 233.989 110.308 244.111 121.084 255.26C131.859 266.409 143.631 277.59 155.341 288.988C149.517 291.417 149.86 294.033 153.784 296.431C156.242 297.618 158.137 299.72 159.062 302.288C159.988 304.855 159.871 307.683 158.736 310.165C158.042 313.033 157.553 315.947 157.272 318.885C153.13 341.713 149.144 364.541 144.815 387.4C142.977 397.396 140.642 407.3 138.586 417.235C146.65 412.137 154.446 406.628 161.943 400.729C178.906 388.832 196.118 377.081 213.578 365.475C220.71 360.71 228.278 356.475 235.69 352.052C240.673 349.125 245.718 346.322 250.732 343.457C252.6 342.429 254.625 340.343 256.275 340.561C263.096 341.557 268.234 338.287 273.497 334.768C293.896 350.184 313.142 366.472 332.669 382.759C352.196 399.047 371.753 415.179 393.024 430.315H393.055ZM362.286 185.375C360.417 187.618 357.241 189.704 356.867 192.227C356.306 195.715 359.981 196.929 363.096 197.303C381.781 199.39 400.249 201.57 418.81 203.532C420.941 203.414 423.041 202.973 425.039 202.224C424.572 200.542 424.541 199.576 424.26 199.483C413.516 195.995 402.772 192.632 390.813 188.863H406.384C390.19 185.967 374.058 183.6 357.708 182.261L357.428 184.036L362.286 185.375ZM148.178 191.355L147.991 188.926C145.107 188.146 142.156 187.635 139.178 187.4C127.312 187.4 115.416 187.4 103.581 188.365C93.0863 189.144 82.6534 190.981 72.4385 192.725C70.7879 193.005 68.3588 195.216 68.3276 196.524C68.2965 197.832 70.5699 199.639 72.2828 200.355C74.1708 200.913 76.1564 201.062 78.1065 200.791C87.4494 200.293 97.1348 200.106 106.633 199.047C118.094 197.801 129.492 195.933 140.891 194.064C143.403 193.404 145.845 192.497 148.178 191.355ZM104.173 367.562L101.962 366.876C100.257 368.744 98.8214 370.841 97.6954 373.105C93.9271 383.787 90.19 394.469 87.138 405.307C86.0077 410.42 85.4437 415.642 85.4562 420.878C85.2694 423.993 86.6708 427.107 90.5325 426.951C91.9651 426.951 93.8026 423.837 94.2386 421.937C97.82 405.805 101.183 389.642 104.485 373.448C104.637 371.48 104.532 369.502 104.173 367.562ZM195.297 125.83L193.086 124.304C190.516 126.533 188.092 128.925 185.83 131.467C175.335 144.703 164.902 157.907 154.936 171.33C152.694 174.444 149.486 177.839 152.227 182.105C157.334 182.759 159.234 179.458 161.383 176.344C171.38 161.862 181.501 147.381 191.591 132.744C192.94 130.502 194.177 128.194 195.297 125.83ZM211.959 130.315C203.083 133.429 184.647 154.046 175.771 169.897C173.528 173.884 169.542 177.839 172.314 183.008C178.543 179.894 182.124 177.216 188.539 167.063C196.201 155.042 206.042 144.235 211.959 130.315ZM74.7431 419.944L77.6705 420.131C81.7191 416.207 80.4422 410.539 81.5945 405.743C82.7468 400.947 83.1517 396.057 83.9614 391.199C84.7711 386.341 85.83 380.953 86.5462 375.814C87.2625 370.676 89.9408 366.472 88.0723 360.025C86.0168 361.925 84.7711 362.548 84.4285 363.482C78.3232 378.171 74.3082 393.644 72.5008 409.449C72.7324 413.038 73.4878 416.574 74.7431 419.944ZM79.7571 350.371L77.0165 349.81C76.1292 351.538 75.3694 353.328 74.7431 355.167C71.4731 365.973 68.1408 376.749 65.4002 387.649C64.2005 392.407 63.5424 397.286 63.4382 402.193C63.6899 405.179 64.2856 408.125 65.2133 410.975L67.549 411.162C68.9124 408.742 69.9591 406.156 70.6633 403.469C72.9368 385.687 77.8574 368.216 79.8194 350.34L79.7571 350.371ZM113.173 386.247C111.274 387.431 110.059 387.742 110.059 388.334C105.475 401.467 103.931 415.47 105.543 429.287C105.761 430.844 107.786 432.245 109.623 434.581C111.025 432.027 112.395 430.626 112.488 429.162C113.298 415.273 114.731 401.258 113.236 386.216L113.173 386.247ZM178.418 114.93C172.501 122.498 167.487 128.571 162.846 134.861C156.306 143.831 150.016 152.924 143.943 162.049C142.292 164.51 140.361 167.717 145.687 169.43C146.559 168.776 147.898 168.216 148.49 167.281C158.476 151.378 168.494 135.401 178.543 119.352C178.979 118.729 178.543 117.857 178.418 114.93ZM51.5727 184.036C51.5727 184.908 51.5727 185.78 51.5727 186.652C57.521 186.465 63.5005 186.341 69.4799 186.06C75.4594 185.78 81.9371 185.406 88.1657 184.877C94.3943 184.348 100.623 183.849 106.851 182.884C112.551 181.981 118.935 183.849 125.537 178.462C99.6574 179.271 75.3659 179.178 51.5727 184.036ZM198.349 80.1744C191.441 84.989 186.638 92.2659 184.927 100.511C194.239 96.4622 198.848 89.8288 198.349 80.1744ZM93.9271 333.242C88.882 338.91 86.266 343.924 86.1102 349.779C86.1102 350.993 87.6985 352.893 89.2245 353.423C89.9249 353.412 90.6127 353.234 91.2303 352.904C91.8479 352.573 92.3775 352.1 92.7748 351.523C93.8337 346.073 97.0414 340.747 93.9271 333.242ZM233.759 100.262C229.991 99.8256 228.029 99.0159 227.312 99.6076C224.767 101.436 222.761 103.916 221.506 106.788C220.251 109.66 219.793 112.817 220.181 115.927L233.759 100.262ZM212.177 90.9188C209.268 92.7151 206.862 95.2202 205.184 98.1995C203.507 101.179 202.612 104.535 202.585 107.954C207.755 103.781 213.547 100.044 212.177 90.8253V90.9188ZM88.9131 326.827L86.048 325.238C83.8296 327.717 81.7503 330.316 79.8194 333.024C79.4145 333.678 80.4734 335.547 81.4077 336.356C81.9495 336.475 82.5112 336.469 83.0505 336.34C83.5899 336.21 84.0929 335.96 84.5219 335.609C86.2971 332.744 87.5117 329.785 88.9131 326.827ZM108.751 345.201C102.523 350.807 102.18 352.27 105.294 357.97L108.751 345.201ZM116.319 371.922C120.367 365.226 120.399 364.759 118.25 358.312C114.45 364.852 114.45 364.852 116.319 371.797V371.922ZM257.334 80.4859L258.985 81.4202L262.846 76.5619L258.642 74.2573L257.334 80.4859Z" fill="#231F20"/>
</svg>
