<svg width="56" height="56" viewBox="0 0 56 56" fill="none" xmlns="http://www.w3.org/2000/svg">
<g clip-path="url(#clip0)">
<path d="M14.6034 46.9162C15.0279 47.4144 15.3573 47.9864 15.5753 48.6033C15.8441 49.353 16.232 50.0539 16.7239 50.68C17.4442 51.449 18.2873 52.0925 19.2187 52.5853C19.4682 52.736 19.7384 52.8813 19.9567 53.0372C20.3569 53.2916 20.7415 53.5875 21.1521 53.8988C22.0606 54.6746 23.101 55.2809 24.2237 55.6898C24.9755 55.9142 25.7572 56.0228 26.5418 56.0117C27.3107 55.9992 28.0781 55.9364 28.839 55.8249C32.9969 55.2592 36.2037 54.0596 39.1817 51.9467C40.107 51.2873 41.1203 50.6853 42.1963 50.0414C44.3792 48.7438 46.6349 47.3989 48.2825 45.468C50.1376 43.2977 50.6889 39.7882 49.6491 36.7304C48.7657 34.1346 46.8792 32.3435 44.4521 31.8347C43.74 31.6941 43.0155 31.6263 42.2899 31.6323C40.4966 31.6323 37.9967 32.0372 36.3544 33.1897C34.1663 34.7108 33.7557 37.9971 34.5353 40.4578C34.8094 41.2475 35.1981 41.9929 35.6891 42.6697C36.4895 43.8842 36.9677 44.6165 36.2089 45.9609C35.2993 47.5809 33.0281 48.3803 31.2818 48.7646C30.4285 48.9533 29.5571 49.0494 28.6831 49.0499C25.4555 49.0499 22.8777 47.7156 21.6146 45.4159C19.9359 42.3009 20.5128 38.1477 23.1739 34.2903C24.3729 32.5977 25.7303 31.0227 27.2278 29.5868C27.6696 29.1403 28.1634 28.7094 28.6831 28.2473C29.8073 27.333 30.8176 26.2872 31.6923 25.1324C32.0699 24.6133 32.2809 23.992 32.2976 23.3506C32.3143 22.7092 32.1359 22.0778 31.7859 21.5398C32.2641 19.5514 33.4803 18.0355 34.7692 16.421C35.8523 15.173 36.7759 13.7953 37.5186 12.3196C38.0384 11.1723 38.3865 9.93147 37.3523 8.61281C37.1927 8.42681 37.0029 8.26887 36.791 8.14558L36.6714 8.06771L36.5467 7.93791L36.3284 7.78735C36.1963 7.74936 36.079 7.67169 35.9926 7.56491C35.9061 7.45813 35.8546 7.32736 35.845 7.19031C35.9371 7.034 36.0171 6.87089 36.0841 6.70232L36.1725 6.4739L36.1413 6.22988C36.1286 6.13686 36.1286 6.04258 36.1413 5.94956C36.1971 5.62386 36.1553 5.28904 36.0212 4.987C35.8872 4.68496 35.6668 4.42926 35.3877 4.2519C35.0427 3.9892 34.6209 3.84695 34.1871 3.84695C33.7858 3.87625 33.3946 3.98655 33.0373 4.17129C32.6799 4.35603 32.3639 4.61129 32.1082 4.92159C31.4637 5.63284 29.7745 8.265 30.2995 10.0093C30.4002 10.3593 30.5941 10.6754 30.8604 10.9241C31.1267 11.1727 31.4556 11.3446 31.8119 11.4215C32.1365 11.5089 32.4819 11.4757 32.7838 11.328C32.4668 11.8472 32.1446 12.3663 31.8379 12.8855C31.3597 13.7006 30.9024 14.5208 30.471 15.3307C29.9512 16.369 29.3223 17.532 28.8234 18.7623C28.466 18.5924 28.0758 18.5021 27.68 18.4976C26.1988 18.4976 25.31 19.7799 24.52 20.9272C24.3693 21.1453 24.2186 21.3633 24.0678 21.5658C23.3714 22.4847 22.597 23.4347 21.8122 24.3537C21.6978 24.4835 21.5471 24.6859 21.3704 24.9196C21.067 25.3738 20.7188 25.7964 20.3309 26.1811H20.253C19.7072 26.1811 19.1147 24.8417 18.4962 22.194C18.3975 21.7786 18.3247 21.4671 18.2572 21.2336C17.8102 19.728 17.3528 18.1705 15.6585 18.1705C15.2782 18.1794 14.9014 18.2459 14.5411 18.3678C14.1298 16.2729 13.4956 14.2279 12.6492 12.2677C12.385 11.6933 12.09 11.1336 11.7657 10.5908C11.4328 10.0374 11.1427 9.45946 10.8977 8.86199C10.8405 8.71664 10.773 8.57129 10.7054 8.4259C10.4611 7.90677 10.4819 7.90677 10.5755 7.76138C10.6662 7.67753 10.7675 7.60599 10.8769 7.54854C11.0721 7.74882 11.3057 7.90769 11.5638 8.01563C11.8219 8.12357 12.0991 8.17835 12.379 8.17671C13.0074 8.15591 13.6118 7.92975 14.0993 7.53295C14.3304 7.3708 14.5048 7.14035 14.598 6.87403C14.6913 6.60771 14.6986 6.31889 14.619 6.04818C14.5775 5.90799 14.5203 5.61208 14.4527 5.29542C14.0525 3.31739 13.382 0 11.1576 0C10.9822 0.000144818 10.8075 0.0228325 10.6378 0.0674848C10.3108 0.150128 10.0105 0.31522 9.76573 0.547026C9.52089 0.778831 9.33982 1.06958 9.23975 1.39136C9.21296 1.46585 9.18173 1.53864 9.1462 1.60941C9.00833 1.91922 8.97551 2.26558 9.05265 2.59577C8.85806 3.0434 8.51475 3.41017 8.08073 3.63411L7.77926 3.84695C5.48206 5.54981 6.22006 7.39281 6.90611 9.17871C6.98928 9.38638 7.07246 9.59921 7.15558 9.82247C8.54849 13.4981 9.85822 16.8103 11.4174 20.0187C10.2065 21.1141 10.0557 22.5574 10.8977 24.6911C11.4147 25.9099 11.9995 27.0989 12.6492 28.2525C14.0733 30.895 15.3051 33.1793 14.7282 36.4656L14.5826 37.2807C14.0889 40.0114 13.6263 42.5915 14.3592 45.3121C14.2206 45.5689 14.1686 45.8639 14.2107 46.1525C14.2528 46.4417 14.3869 46.7091 14.593 46.9162H14.6034ZM11.0796 3.58217C11.0745 3.50788 11.0745 3.43325 11.0796 3.35896C11.2433 3.36094 11.4047 3.39782 11.553 3.46723C11.7013 3.5366 11.833 3.63686 11.9393 3.76121C12.0456 3.88561 12.1241 4.03125 12.1694 4.18843C12.2148 4.34555 12.2259 4.5106 12.2022 4.67241L12.2282 4.70876C12.618 5.30058 12.5453 5.45114 12.5297 5.4719C12.5141 5.49271 12.4361 5.57573 11.958 5.44598C11.9325 5.37637 11.8924 5.31303 11.8404 5.26022C11.7885 5.20737 11.7257 5.16629 11.6565 5.13964C11.5737 5.10382 11.4838 5.08751 11.3936 5.09199C11.3035 5.09648 11.2156 5.12168 11.1368 5.16561C10.8925 5.32134 10.6482 5.46152 10.4143 5.6017C9.57757 6.08969 8.77199 6.56214 8.4965 7.30452C8.55766 6.99712 8.66637 6.70112 8.81877 6.42717C9.20987 5.77694 9.74285 5.22325 10.378 4.80738L10.9497 4.31939C11.1056 4.17921 11.0952 3.87808 11.0796 3.58217ZM9.18255 10.0768C9.24492 10.2118 9.3125 10.3468 9.37487 10.487C10.7729 13.4306 12.0931 16.1977 12.7168 19.567C12.2594 18.2795 11.7657 16.9713 11.2875 15.7408L10.5702 13.8563C10.0505 12.4806 9.60875 11.2605 9.21895 10.1755C9.20336 10.1391 9.19298 10.108 9.18255 10.0768ZM33.8181 6.93596L33.7817 6.98785V7.05017C33.7979 7.16728 33.7979 7.28608 33.7817 7.40319C33.7537 7.58827 33.7625 7.77702 33.8077 7.95867C33.9166 8.23947 34.0955 8.48783 34.3274 8.68029L34.421 8.77375C34.7405 9.04355 35.0891 9.2769 35.4605 9.46941C36.0841 10.4299 36.0997 11.2657 35.502 12.0237V12.0548C34.8388 13.4128 33.9905 14.6724 32.9813 15.798C31.8171 17.2205 30.6113 18.6897 30.0916 20.6261C29.9616 20.5067 29.8265 20.3925 29.6862 20.2783C30.2059 19.4165 30.6737 18.5235 31.1362 17.6825C31.6872 16.6442 32.2589 15.6059 32.8825 14.5675C33.1131 14.2228 33.3612 13.8901 33.6258 13.5708C34.395 12.5948 35.3513 11.3799 35.2681 10.487C35.1864 9.96719 34.9184 9.4948 34.5139 9.15766C34.1095 8.82053 33.5963 8.64168 33.0697 8.65437C32.8262 8.66543 32.586 8.71452 32.3576 8.79972C32.4668 8.61281 32.6175 8.33249 32.8046 7.94312L33.2828 6.90478C33.5043 6.75639 33.7508 6.64913 34.0104 6.58811C33.9645 6.71323 33.8997 6.83053 33.8181 6.93596ZM16.4173 38.4176C16.6611 37.2995 16.8346 36.1673 16.937 35.0275C17.0774 32.9821 16.5836 31.0196 15.3415 28.6627C15.1751 28.346 14.9517 27.9722 14.6918 27.5361C13.6523 25.7606 12.0515 23.0766 12.7844 21.5969C13.0858 20.9843 13.777 20.6105 14.8633 20.486L15.4922 20.2212C15.918 20.6519 16.1964 21.2061 16.2874 21.8046C16.4422 22.2377 16.5706 22.6798 16.672 23.1284C16.7551 23.4607 16.8435 23.8086 16.9526 24.1356C17.2523 25.2101 17.7076 26.2349 18.304 27.1779C18.8237 27.9463 19.2758 28.3097 19.7696 28.3979C20.051 28.4194 20.3339 28.3845 20.6016 28.2954C20.8694 28.2062 21.1166 28.0646 21.3288 27.8787C22.1506 27.1452 22.877 26.3115 23.4909 25.3972C25.1593 23.1804 27.2434 20.4236 29.0729 21.6021C29.3194 21.7279 29.5332 21.9092 29.6974 22.1318C29.8615 22.3543 29.9716 22.612 30.0188 22.8844C30.1175 23.9539 28.891 25.122 27.997 25.9994L27.1862 26.7833C26.0844 27.8476 24.9462 28.943 23.9015 30.1007C19.8788 34.5655 18.148 38.9264 18.7457 43.0539C19.4006 47.5756 22.9036 50.7423 27.6644 51.1319C31.2142 51.4225 37.3107 50.2441 38.5789 45.8518C39.0986 44.0503 38.3814 42.898 37.6225 41.6989C37.0172 40.8575 36.6104 39.89 36.4324 38.8693C36.2678 37.8532 36.4993 36.8126 37.0794 35.9619C37.6595 35.1111 38.5439 34.5148 39.5508 34.2955C42.4767 33.5791 44.5872 33.7764 45.8293 34.9445C47.2871 36.5054 48.0875 38.5672 48.0643 40.7021C47.8925 43.2354 45.7462 44.9848 43.9061 46.2259C43.2303 46.6773 42.5183 47.0977 41.827 47.508C41.0165 47.9908 40.1794 48.4894 39.3897 49.0658C39.0207 49.325 38.662 49.5847 38.2982 49.8546C37.2434 50.68 36.1121 51.4031 34.9199 52.0143C33.0986 52.804 31.1733 53.3287 29.2028 53.572C26.3287 54.0181 24.5252 53.6391 22.3787 52.1181C21.9265 51.8067 21.4275 51.5055 20.9442 51.2202C20.7155 51.085 20.4816 50.9499 20.2737 50.8205C18.4283 49.3376 17.0496 47.3545 16.303 45.1094C15.5753 42.7942 15.9807 40.6606 16.4173 38.4176Z" fill="#231F20"/>
<path d="M40.8909 42.3271C41.1072 42.4159 41.3384 42.4618 41.572 42.4623C41.7405 42.5274 41.9143 42.5781 42.0919 42.6124C42.2464 42.637 42.4028 42.6496 42.5597 42.6491C42.9768 42.6476 43.3871 42.5395 43.7511 42.3348C44.115 42.1306 44.4206 41.8366 44.6383 41.4809C44.9579 40.9808 45.1273 40.3996 45.1273 39.8065C45.1273 39.2134 44.9579 38.6324 44.6383 38.1322C44.3347 37.653 43.8939 37.2758 43.3731 37.0491C42.8527 36.8224 42.2758 36.7567 41.7173 36.8603C40.5168 37.1614 39.8517 38.4178 39.6386 39.4561C39.4255 40.4942 39.7165 41.8492 40.8909 42.3271ZM43.8486 39.8922C43.8539 39.8231 43.8539 39.7536 43.8486 39.6845C43.8563 39.7553 43.8563 39.8267 43.8486 39.8974V39.8922Z" fill="#231F20"/>
</g>
<defs>
<clipPath id="clip0">
<rect width="56" height="56" fill="white"/>
</clipPath>
</defs>
</svg>
