<svg width="500" height="500" viewBox="0 0 500 500" fill="none" xmlns="http://www.w3.org/2000/svg">
<g clip-path="url(#clip0)">
<path d="M268.562 50.4328C275.691 98.2124 274.629 146.857 265.419 194.28C261.007 204.443 259.948 215.747 262.396 226.552C264.845 237.357 270.673 247.102 279.035 254.373L282.806 258.561C288.426 259.138 293.769 261.292 298.216 264.775C302.664 268.257 306.036 272.926 307.942 278.243C310.056 286.655 314.253 294.401 320.147 300.768C326.04 307.134 333.441 311.917 341.668 314.675C343.343 314.675 344.6 317.188 345.857 318.654C353.398 328.285 359.682 325.773 365.128 316.56L391.103 270.914L431.322 268.82C429.437 297.297 428.808 325.354 425.666 352.574C422.767 377.289 418.501 401.824 412.888 426.068C409.746 439.468 390.056 453.916 382.724 450.356C375.393 446.797 365.128 439.678 356.121 434.653C328.89 419.368 318.625 385.657 288.88 373.094C286.786 372.047 285.948 367.859 284.691 364.928C281.339 357.18 276.731 352.365 267.933 358.018C259.135 363.671 255.784 368.697 263.534 376.863C271.285 385.029 278.616 390.891 286.157 397.801C293.698 404.711 296.631 406.176 301.449 410.573C318.224 428.255 336.062 444.897 354.864 460.407C366.385 468.992 382.934 479.461 398.225 469.201C409.326 462.242 418.71 452.864 425.675 441.769C432.639 430.674 437.005 418.148 438.444 405.129C445.985 341.058 451.85 276.568 460.857 212.705C468.189 161.406 459.391 119.111 411.841 89.797C403.904 83.8723 394.496 80.2327 384.636 79.273C374.777 78.3134 364.843 80.0702 355.912 84.353C332.241 97.7536 307.314 107.804 296.212 136.699C294.096 140.276 291.64 143.642 288.88 146.749C286.367 101.941 283.853 57.6915 281.339 14H265.419C266.676 26.1443 267.514 38.2885 268.562 50.4328ZM313.179 181.507C322.605 176.901 330.565 174.179 332.66 189.464C332.66 192.814 339.154 195.327 342.296 198.467C345.438 201.608 350.046 206.215 356.75 213.124C328.261 210.402 322.815 206.843 313.179 181.507ZM435.511 251.232L396.549 258.351C393.407 231.55 390.684 208.099 387.333 180.46C396.759 165.385 404.928 138.584 439.491 146.749C453.945 179.204 441.167 214.171 435.511 251.023V251.232ZM431.741 132.302C425.035 131.731 418.284 132.512 411.886 134.598C405.488 136.684 399.574 140.033 394.495 144.446C389.416 148.859 385.275 154.247 382.317 160.289C379.36 166.332 377.646 172.906 377.278 179.623C356.331 152.822 330.775 153.24 303.125 158.684C333.079 94.8222 395.711 76.8152 431.741 132.093V132.302ZM303.543 192.605C309.304 201.294 314.55 210.313 319.254 219.615H306.057C302.077 209.565 298.307 199.933 294.117 189.673C295.584 190.092 301.658 189.883 303.543 192.605Z" fill="#231F20"/>
<path d="M244.473 34.9394C245.521 69.9066 252.433 104.664 242.588 139.631C241.221 147.881 241.221 156.299 242.588 164.548C242.588 167.061 246.359 169.573 248.244 172.086C250.548 169.573 254.319 167.27 254.528 164.758C257.251 136.281 261.022 107.805 261.022 79.3288C261.022 58.3904 261.022 37.452 261.022 15.2573H244.473V34.9394Z" fill="#231F20"/>
<path d="M417.917 720.254C409.237 716.8 400.263 714.137 391.104 712.297C412.051 664.977 410.166 664.348 408.281 607.605C406.605 557.563 373.299 528.877 330.986 508.776C318.458 505.368 305.612 503.264 292.652 502.495C285.269 501.975 278.294 498.918 272.91 493.842C267.526 488.766 264.066 481.983 263.116 474.647C261.441 457.268 260.184 439.679 259.765 422.091C259.765 401.153 259.765 378.958 259.765 357.182L252.433 355.298C250.129 359.485 245.73 363.464 245.73 367.442C245.73 402.409 244.683 437.586 248.244 472.134C248.202 478.76 249.566 485.319 252.244 491.379C254.923 497.44 258.856 502.865 263.783 507.296C268.711 511.727 274.523 515.065 280.834 517.088C287.146 519.112 293.815 519.776 300.403 519.036C315.558 520.106 330.269 524.624 343.411 532.244C356.553 539.865 367.779 550.387 376.232 563.007C404.51 598.183 397.179 672.305 366.177 705.597C355.67 716.638 341.394 723.326 326.183 724.335C310.972 725.343 295.937 720.598 284.064 711.041C271.571 700.13 257.948 690.583 243.426 682.565C229.601 675.655 223.526 653.042 202.579 663.092C202.579 663.092 202.579 663.092 201.322 663.092C184.145 654.926 174.509 658.486 168.225 676.283C166.759 679.843 168.225 684.659 169.692 689.056C173.253 687.8 178.489 689.056 180.375 685.496C191.896 671.677 201.322 675.655 210.958 687.59C216.52 693.039 222.471 698.077 228.763 702.666C219.928 703.742 210.995 703.742 202.16 702.666C188.754 699.106 171.367 696.594 164.664 687.171C159.12 674.373 158.522 659.973 162.988 646.76C164.956 640.152 169.175 634.44 174.914 630.616C180.653 626.791 187.55 625.095 194.409 625.822C220.384 625.822 246.568 625.822 272.543 625.822C280.36 625.625 288.113 624.357 295.585 622.053C310.038 617.446 324.492 601.114 323.235 589.598C323.719 583.166 322.916 576.702 320.873 570.583C318.831 564.464 315.589 558.813 311.338 553.96C307.088 549.106 301.912 545.148 296.114 542.315C290.317 539.483 284.013 537.833 277.57 537.462C272.134 537.906 266.665 537.199 261.521 535.385C256.377 533.572 251.674 530.693 247.719 526.938C243.765 523.183 240.648 518.636 238.573 513.594C236.497 508.552 235.51 503.128 235.675 497.679C234.523 474.87 234.523 452.019 235.675 429.21C235.675 403.665 237.351 378.121 237.561 352.576C237.561 347.341 237.561 338.966 233.79 337.5C228.614 336.378 223.256 336.378 218.08 337.5C220.826 347.716 222.648 358.157 223.526 368.698C223.526 410.575 218.918 452.452 221.431 494.329C223.945 536.205 245.102 557.144 280.503 554.631C287.819 555.112 294.673 558.374 299.659 563.747C304.645 569.121 307.384 576.198 307.315 583.526C307.315 595.042 298.517 604.465 283.226 606.977C277.574 607.291 271.91 607.291 266.258 606.977C231.486 606.977 196.295 601.324 162.779 615.981L156.495 622.053C142.46 640.688 148.116 663.93 143.926 684.868C130.887 682.767 117.522 684.227 105.244 689.092C92.9657 693.957 82.2303 702.047 74.1721 712.507C69.1447 719.207 65.1647 726.536 60.3469 733.445C51.6184 745.846 45.4549 759.865 42.2176 774.678C38.9802 789.491 38.7344 804.802 41.4943 819.711C44.7246 836.53 48.8501 853.165 53.8532 869.545C53.8532 872.267 56.1574 876.245 53.8532 878.339C52.2079 881.017 51.1868 884.031 50.8656 887.157C50.5444 890.283 50.9313 893.442 51.9977 896.398C53.064 899.354 54.7825 902.033 57.0256 904.235C59.2687 906.437 61.9789 908.106 64.9553 909.118C85.9025 918.331 89.8825 936.129 92.6057 955.392C94.2814 965.233 98.0519 973.818 109.992 973.609C121.932 973.399 127.588 965.233 128.216 953.927C128.844 942.62 128.216 936.338 128.216 926.707C168.854 915.4 151.677 886.505 146.65 858.866C173.462 882.527 201.531 866.195 229.391 863.891C219.609 871.968 212.023 882.38 207.336 894.166C202.649 905.951 201.013 918.728 202.579 931.313C202.579 949.948 205.092 968.793 205.93 987.428C205.981 991.97 205.052 996.469 203.207 1000.62C200.461 1005.9 197.383 1011.01 193.99 1015.9C200.275 1018.63 206.559 1021.56 212.843 1024.07C215.369 1025.02 217.959 1025.79 220.593 1026.37H279.455C281.549 1022.14 284.554 1018.42 288.253 1015.49C293.071 1011.3 292.862 1001.04 295.585 992.244L278.408 994.128C278.408 991.197 278.408 988.475 278.408 985.962C270.867 959.161 272.124 949.53 310.667 951.414C326.168 951.414 341.669 955.183 357.17 956.649C396.132 960.417 447.033 937.595 440.959 882.108C437.986 852.703 439.754 823.011 446.195 794.167C450.149 780.448 449.528 765.816 444.426 752.481C439.325 739.147 430.019 727.835 417.917 720.254ZM134.081 838.975C130.311 828.715 126.54 819.083 123.608 809.452C118.999 794.795 135.548 775.322 149.792 779.719C155.657 781.394 159.218 789.979 163.826 795.632C139.737 811.336 139.737 811.545 134.081 838.975ZM202.579 845.047C191.738 847.354 180.533 847.354 169.692 845.047C166.903 844.07 164.418 842.382 162.482 840.15C160.547 837.918 159.228 835.219 158.657 832.321C158.085 829.423 158.281 826.426 159.225 823.627C160.168 820.827 161.826 818.323 164.036 816.361C165.72 815.016 167.717 814.119 169.841 813.753C171.965 813.387 174.148 813.564 176.185 814.267C216.472 834.34 262.102 841.086 306.477 833.531C314.21 834.251 321.901 835.37 329.519 836.881C333.709 836.881 337.689 833.321 341.878 831.228C339.783 827.668 338.736 821.387 335.803 820.549C326.637 817.208 317.048 815.165 307.315 814.477C289.662 815.417 271.972 815.417 254.319 814.477C232.509 810.58 210.961 805.335 189.801 798.773C184.905 796.916 180.261 794.454 175.976 791.445L180.794 787.257C207.816 791.445 234.838 795.632 262.069 799.401C269.039 799.984 276.046 799.984 283.016 799.401C299.355 798.145 315.904 796.051 332.242 795.842C334.983 796.317 337.578 797.414 339.829 799.047C342.081 800.68 343.928 802.807 345.23 805.264C350.461 814.84 353.266 825.552 353.399 836.462C352.492 840.953 350.567 845.176 347.77 848.806C344.974 852.436 341.382 855.377 337.27 857.401C324.802 860.423 311.917 861.343 299.146 860.123C286.789 859.523 274.479 858.195 262.279 856.144C259.346 856.144 255.156 856.144 253.69 853.632C238.608 834.578 220.384 841.697 202.579 845.047ZM425.039 815.524C425.039 830.39 421.687 845.047 420.849 859.704C420.849 870.801 421.897 880.642 420.849 892.577C420.008 903.632 415.04 913.967 406.93 921.531C398.82 929.095 388.161 933.334 377.07 933.407C356.03 933.405 335.022 931.795 314.228 928.591C305.222 927.037 295.991 927.37 287.121 929.568C278.25 931.767 269.934 935.784 262.697 941.364C257.626 946.278 254.628 952.945 254.319 959.999C253.062 972.352 254.319 984.915 254.319 998.944L220.593 1000.62C222.06 967.955 220.593 937.804 225.621 906.396C228.972 882.317 240.912 874.989 265.211 875.408C283.435 875.408 301.45 878.548 319.674 879.805C327.735 880.494 335.843 879.238 343.316 876.14C350.79 873.043 357.409 868.196 362.616 862.007C367.372 857.881 370.674 852.335 372.032 846.188C373.39 840.042 372.733 833.622 370.157 827.877C368.768 825.079 367.713 822.128 367.015 819.083C357.589 780.347 339.783 765.9 300.821 773.228C257.507 779.753 213.243 775.142 172.205 759.828C165.854 756.993 158.987 755.495 152.032 755.427C145.076 755.359 138.181 756.723 131.776 759.433C125.37 762.144 119.592 766.143 114.799 771.182C110.006 776.22 106.302 782.191 103.917 788.723C100.546 797.329 99.9596 806.776 102.241 815.733C107.688 833.95 116.276 851.328 123.189 869.126C127.169 879.386 130.52 890.064 134.081 900.743C98.4709 910.375 87.7878 904.721 78.571 872.895C72.9152 854.05 67.4689 835.206 63.489 815.942C60.2951 794.378 64.1134 772.359 74.3815 753.127C79.5204 741.269 85.9854 730.031 93.653 719.626C101.658 711.461 111.982 705.956 123.224 703.859C134.467 701.761 146.082 703.172 156.495 707.9C176.288 714.344 196.864 718.077 217.661 718.998C235.675 720.673 252.014 720.673 258.508 743.286C261.86 755.012 273.59 752.918 283.645 747.683C288.051 745.265 293.114 744.311 298.098 744.961C317.102 748.63 336.752 746.963 354.865 740.146C369.552 735.693 384.77 733.228 400.112 732.817C406.216 732.397 412.248 734.335 416.964 738.231C421.681 742.127 424.721 747.684 425.458 753.755C426.591 774.343 426.241 794.986 424.41 815.524H425.039Z" fill="#231F20"/>
<path d="M249.08 263.166C234.677 258.447 221.157 251.371 209.071 242.227C196.019 230.785 181.594 221.008 166.129 213.123C152.378 209.2 140.673 200.125 133.451 187.788L154.398 181.506C164.663 191.138 173.46 199.932 183.096 207.47C185.191 209.145 190.428 207.47 193.989 206.213C192.835 203.163 191.286 200.276 189.38 197.629C182.539 191.045 176.104 184.052 170.109 176.69C163.615 166.43 157.75 162.033 146.229 170.199C143.99 171.652 141.45 172.577 138.801 172.903C136.151 173.23 133.462 172.95 130.937 172.084C126.471 168.91 121.126 167.205 115.646 167.205C110.166 167.205 104.821 168.91 100.354 172.084C95.6946 174.842 91.2796 177.995 87.1577 181.506C92.647 182.972 98.2545 183.953 103.916 184.437C110.189 183.879 116.417 182.9 122.559 181.506C120.254 189.463 115.646 198.047 117.322 199.513C128.836 209.279 141.015 218.235 153.77 226.314C169.899 236.783 186.657 247.253 201.739 255.628L141.83 281.592C135.965 272.588 127.376 260.653 119.417 247.043C111.457 233.433 105.382 223.383 97.8408 211.239C94.908 207.261 90.5584 204.563 85.6914 203.701C82.9683 202.444 76.8936 209.145 76.8936 211.867C77.692 217.211 79.8564 222.26 83.1777 226.524C92.1851 239.087 102.03 251.231 112.713 265.05L65.3726 267.353V273.426C76.4746 286.198 93.4419 275.729 105.382 281.592C118.644 288.928 131.197 297.48 142.877 307.136C140.041 316.38 134.565 324.593 127.122 330.768C119.679 336.943 110.594 340.81 100.983 341.894C98.7103 342.652 96.6509 343.939 94.9753 345.651C93.2997 347.362 92.056 349.448 91.3472 351.735C90.6055 361.003 90.6055 370.315 91.3472 379.583C106.639 374.767 106.639 374.767 104.963 353.62C118.46 351.753 131.02 345.662 140.842 336.221C150.663 326.78 157.242 314.473 159.635 301.064C164.663 282.429 175.136 274.263 191.056 274.891C187.076 288.711 182.258 303.368 178.697 318.443C176.603 327.447 178.697 337.706 175.555 346.291C173.479 356.785 168.298 366.414 160.683 373.93C156.042 376.707 152.1 380.51 149.159 385.047C146.217 389.584 144.355 394.735 143.715 400.103C143.998 403.838 144.845 407.509 146.229 410.991C149.754 409.39 153.062 407.35 156.074 404.919C163.494 397.577 170.488 389.817 177.021 381.677C180.924 377.467 183.73 372.361 185.191 366.811C188.124 350.06 188.752 332.681 192.313 315.931C194.316 306.149 198.951 297.1 205.719 289.758C213.379 283.621 221.925 278.679 231.065 275.101C240.356 279.289 249.38 284.044 258.087 289.339C265.682 293.722 271.862 300.189 275.893 307.974C278.778 318.12 284.862 327.065 293.24 333.478C301.619 339.891 311.844 343.43 322.396 343.569C341.458 343.569 347.113 354.876 348.58 369.742C349.316 377.014 352.198 383.902 356.86 389.532C361.523 395.162 367.755 399.279 374.764 401.359C379.517 404.217 383.943 407.587 387.96 411.41C390.474 413.085 394.035 415.388 395.711 414.55C397.387 413.713 402.414 408.478 401.786 407.013C398.691 400.053 394.52 393.623 389.427 387.959C386.494 384.818 380.21 384.818 375.602 383.562C385.343 382.418 395.186 382.418 404.928 383.562C409.327 383.562 413.935 380.211 418.543 378.327C414.982 374.977 411.84 369.533 407.441 368.486C396.915 365.676 386.077 364.198 375.183 364.089C373.42 364.323 371.628 364.205 369.912 363.74C368.196 363.275 366.589 362.474 365.185 361.383C363.782 360.292 362.609 358.932 361.736 357.384C360.863 355.835 360.307 354.129 360.101 352.363C358.246 344.991 353.844 338.51 347.673 334.066C341.503 329.622 333.959 327.5 326.375 328.075C318.757 328.197 311.297 325.887 305.082 321.482C298.866 317.076 294.218 310.804 291.813 303.577C286.798 293.788 280.608 284.647 273.379 276.357L282.596 259.606L278.825 255.419C268.98 257.722 257.878 265.26 249.08 263.166Z" fill="#231F20"/>
<path d="M59.5065 158.265C62.9055 144.543 71.117 132.495 82.6488 124.311C94.1805 116.127 108.267 112.35 122.348 113.667C148.742 113.667 170.318 118.692 181.629 147.796C184.964 156.484 191.098 163.814 199.064 168.629C207.029 173.444 216.373 175.471 225.618 174.388C229.598 174.388 233.369 168.944 237.349 166.013C235.464 163.5 233.369 158.475 231.484 158.684C205.09 160.569 195.664 140.677 183.724 122.461C177.118 112.578 167.379 105.204 156.073 101.522C142.21 99.4618 128.171 98.8303 114.179 99.6378C105.623 98.4622 96.9105 99.3293 88.7547 102.168C80.5988 105.007 73.2318 109.737 67.257 115.97C56.8565 126.594 48.6539 139.164 43.1186 152.961C37.5832 166.757 34.8238 181.51 34.9982 196.373C34.3651 234.93 36.4651 273.483 41.2824 311.744C44.363 351.377 57.0136 389.672 78.1496 423.345C81.361 429.024 85.8553 433.875 91.2741 437.51C96.693 441.145 102.887 443.465 109.361 444.284C125.34 446.37 141.587 444.06 156.351 437.604C171.115 431.147 183.838 420.788 193.15 407.642C197.968 401.779 211.584 397.801 201.11 386.703C199.225 384.819 186.656 392.147 180.163 396.754C166.757 405.548 155.026 417.692 141.201 424.602C134.01 428.458 125.786 429.947 117.699 428.857C109.612 427.767 102.076 424.153 96.1642 418.53C84.6655 404.023 75.8676 387.569 70.1896 369.953C59.9255 321.794 53.6413 272.798 45.6813 223.384H50.0802C49.3446 212.997 49.3446 202.572 50.0802 192.186C52.352 180.655 55.5033 169.315 59.5065 158.265V158.265Z" fill="#231F20"/>
<path d="M199.225 595.04C208.788 593.443 217.345 588.165 223.062 580.337C228.779 572.509 231.2 562.754 229.808 553.163C227.713 524.477 206.975 507.727 189.799 488.463C186.383 484.695 181.943 482.003 177.021 480.716C160.434 478.139 143.455 480.786 128.441 488.29C113.427 495.793 101.121 507.782 93.2317 522.593C78.3592 555.257 64.1151 588.13 51.3372 621.422C46.8037 634.067 44.3285 647.357 44.0057 660.786C42.8095 667.295 44.1657 674.014 47.7928 679.55C51.42 685.086 57.0398 689.014 63.4866 690.519C78.7781 694.497 84.4339 684.656 93.6507 674.396C111.246 653.458 123.396 624.353 156.492 621.631L162.777 615.559C173.995 607.185 186.245 600.288 199.225 595.04V595.04ZM76.8929 667.487C75.0076 670.627 71.0277 672.512 68.095 675.024C65.7908 671.465 61.1824 667.905 61.3919 664.346C61.0681 651.198 62.6916 638.074 66.2098 625.4C77.7181 594.266 90.935 563.789 105.8 534.109C113.57 521.388 124.181 510.638 136.802 502.701C145.301 497.791 155.335 496.25 164.917 498.383C174.498 500.516 182.93 506.167 188.542 514.217C197.968 527.827 206.975 541.856 216.192 556.094C211.165 569.076 208.023 577.033 195.245 578.917C190.068 579.218 185.008 580.572 180.372 582.895C142.248 605.3 101.401 626.029 76.8929 667.487Z" fill="#231F20"/>
</g>
<defs>
<clipPath id="clip0">
<rect width="429" height="466" fill="white" transform="translate(35 14)"/>
</clipPath>
</defs>
</svg>
