<svg width="500" height="500" viewBox="0 0 500 500" fill="none" xmlns="http://www.w3.org/2000/svg">
<g clip-path="url(#clip0)">
<path fill-rule="evenodd" clip-rule="evenodd" d="M322.024 296.279C324.449 294.778 326.989 293.471 329.62 292.37C363.495 276.423 397.538 260.785 429.179 240.51C437.194 235.399 443.868 228.362 453.587 223.893C461.574 221.296 466.824 213.253 474.224 208.31C492.516 196.078 497.571 178.177 498.549 158.042C499.048 147.054 496.12 136.183 490.171 126.932C469.17 92.6098 441.634 94.7322 408.262 109.841C380.335 122.519 352.995 136.343 325.71 151.06C292.701 168.878 259.915 187.086 226.207 203.702C191.537 220.426 158.007 239.421 125.839 260.561C112.071 269.777 95.9012 276.172 84.2558 288.348C70.6555 302.507 74.3418 325.128 58.3957 338.002C51.2185 343.783 45.0188 350.764 36.0543 354.758C25.8052 359.422 16.5056 366.599 7.48525 373.413C-1.53508 380.227 0.000889981 392.096 10.5572 397.095C15.2851 399.226 20.3965 400.376 25.5818 400.474C40.6901 401.34 53.676 394.889 65.517 387.572C78.5587 379.389 91.0978 378.133 104.614 384.053C133.323 396.788 158.653 385.896 182.809 372.072C192.472 366.487 201.716 360.064 211.741 354.981C248.828 336.159 287.283 319.71 322.024 296.279ZM48.342 382.573C38.3443 387.097 26.3358 390.029 15.8074 385.617C15.975 370.816 47.6439 362.298 58.1164 355.512C61.8027 353.11 64.9305 349.731 68.5331 355.512C72.1356 361.293 72.1915 368.638 67.3881 370.425C59.9875 373.106 55.2399 379.389 48.3141 382.517L48.342 382.573ZM293.79 205.936C294.879 205.434 295.968 204.903 297.029 204.317C299.543 202.948 303.844 198.731 306.58 198.312C310.043 197.894 310.63 202.557 312.641 202.976C316.411 203.758 313.841 198.62 315.098 195.631C316.55 192.141 319.874 190.8 323.001 188.734C327.581 185.745 331.379 181.612 336.043 178.82C337.663 177.898 340.651 175.803 342.69 176.446C343.835 176.809 347.968 184.042 348.275 183.874C352.771 179.518 347.968 177.228 349.979 173.15C352.436 168.152 363.439 163.879 368.326 162.203C373.214 160.528 377.626 158.098 382.15 161.812C385.194 164.326 390.696 171.307 390.305 175.552C389.914 179.797 382.401 184.07 379.134 186.248C367.963 193.788 354 198.62 342.047 204.931C327.833 212.471 313.646 220.039 299.543 227.775C273.571 242.046 249.275 258.495 223.917 272.625C203.587 283.908 182.614 293.71 161.976 303.875C153.598 307.981 145.415 313.007 137.317 317.839C133.267 320.213 121.622 328.479 116.958 325.965C113.076 323.871 112.322 316.973 111.373 313.175C109.781 307.59 115.059 301.474 119.36 298.458C121.817 296.754 119.36 296.559 122.795 296.726C124.777 296.726 125.224 299.184 127.263 297.815C128.324 297.089 127.961 295.023 128.743 294.017C130.307 292.007 130.335 292.453 132.457 291.001C138.043 287.119 144.801 285.053 150.498 281.171C153.067 279.412 152.369 277.876 155.581 278.378C157.312 278.574 158.569 281.45 160.412 281.478C164.685 281.478 161.529 276.898 162.897 274.664C164.769 271.145 174.627 267.599 178.201 265.56C180.994 264.08 186.356 259.444 189.149 259.612C191.941 259.779 193.226 264.136 195.795 263.912C200.375 263.521 196.689 257.238 198.588 254.78C200.487 252.323 209.423 249.726 212.551 248.162C215.679 246.598 221.376 242.409 225.146 241.738C228.218 241.208 230.48 243.386 233.524 243.219C238.718 242.911 236.121 237.633 238.551 234.841C242.209 230.624 252.849 227.496 257.904 224.675C260.39 223.279 266.282 217.833 269.075 218.392C271.421 218.867 271.868 223.335 274.995 222.497C278.626 221.547 274.548 216.102 276.001 213.616C278.347 209.874 289.685 207.724 293.762 205.881L293.79 205.936ZM417.84 173.402C420.996 166.057 445.767 141.928 452.916 153.686C461.49 167.649 432.977 168.012 421.918 171.112C419.739 171.754 418.259 172.48 417.84 173.402ZM153.179 324.039L155.832 322.614C166.081 316.694 175.939 310.243 186.3 304.462C206.938 293.291 228.19 283.489 248.242 271.313C279.464 252.323 310.881 233.668 344.421 218.839C360.144 211.913 375.42 197.81 392.427 194.291C397.342 193.258 399.967 199.876 401.838 203.619C404.631 209.036 404.212 217.414 398.822 221.101C391.446 226.492 383.572 231.168 375.308 235.064C366.372 238.89 357.91 243.442 349.225 248.273C340.539 253.105 330.933 256.959 321.912 261.678C311.049 267.264 300.492 273.435 289.685 279.356C281.865 283.656 274.325 288.348 266.506 292.593C250.95 300.971 235.591 310.019 219.896 318.258C215.483 320.548 211.015 322.67 206.603 324.932C202.19 327.194 196.856 328.116 192.304 331.048C182.637 337.382 172.508 342.983 162.004 347.804C149.632 353.389 131.871 364.169 125.699 345.011C123.409 338.002 129.078 337.108 133.602 333.841C139.634 329.317 146.532 327.39 153.179 324.039ZM262.512 316.778C240.897 328.87 217.466 337.108 195.767 349.089C188.339 353.222 180.687 357.243 173.705 361.907C164.741 367.911 154.771 371.039 144.941 374.167C139.993 375.973 134.707 376.66 129.463 376.177C124.218 375.694 119.146 374.054 114.612 371.374C109.383 367.97 103.286 366.138 97.0462 366.096C96.0896 366.195 95.1271 365.975 94.3088 365.47C93.4904 364.965 92.8622 364.203 92.5221 363.303C90.1763 355.875 101.933 351.546 106.681 349.173C117.07 343.978 118.969 348.083 126.23 355.763C137.177 367.353 149.325 360.483 161.082 354.702C184.541 343.168 207.804 330.797 230.759 318.397C237.657 314.627 244.164 309.517 250.727 305.411C256.62 301.781 263.573 299.826 269.773 296.866C275.973 293.906 281.502 290.024 287.618 286.673C300.409 279.607 313.143 272.933 326.157 266.593C343.5 258.048 360.256 248.804 377.012 239.309C385.11 234.785 393.246 230.335 401.42 225.96C404.119 224.826 406.388 222.861 407.894 220.35C409.401 217.839 410.068 214.912 409.798 211.997C409.379 205.182 399.493 191.024 404.547 186.22C408.038 182.897 418.902 181.137 423.761 180.16C440.517 176.725 472.13 173.877 463.808 148.854C460.094 137.684 452.19 133.885 441.802 139.275C431.888 144.386 424.878 153.239 417.449 161.058C412.339 166.644 400.861 180.048 394.55 170.833C390.388 164.745 389.243 154.775 380.447 153.434C375.336 152.652 370.533 155.948 366.12 157.93C359.837 160.723 354.14 164.493 347.996 167.621C331.24 176.139 316.55 188.119 299.152 195.548C276.978 205.015 255.363 217.889 233.887 229.283C212.914 240.454 191.634 250.898 170.801 262.237C158.96 268.688 147.231 275.39 135.809 282.567C126.481 288.46 115.394 291.588 107.882 300.217C98.6101 310.997 115.45 322.363 107.407 332.333C103.609 337.024 94.6725 338.812 89.4502 341.493C75.8219 348.502 78.2795 336.661 82.1892 327.529C86.6575 316.694 86.2945 304.546 95.5661 296.112C112.397 281.225 130.507 267.852 149.688 256.149C187.864 232.495 228.693 215.487 268.097 194.151C306.171 173.672 344.151 152.932 382.038 131.931C399.465 122.352 420.717 110.567 440.852 107.467C485.283 100.681 500.727 170.833 469.617 195.296C446.884 213.169 424.012 230.959 397.761 245.732C372.348 258.411 345.566 270.866 319.79 284.829C300.688 295.414 281.614 306.11 262.512 316.778Z" fill="#231F20"/>
<path d="M28.2893 401.955H25.4966C20.1382 401.852 14.8563 400.664 9.96936 398.464C7.33268 397.384 5.02483 395.633 3.27562 393.384C1.52642 391.135 0.396889 388.467 -0.00047747 385.646C-0.179253 383.043 0.330581 380.439 1.47774 378.095C2.62489 375.752 4.36892 373.752 6.53438 372.297L8.65681 370.705C16.9134 364.029 25.8642 358.262 35.3548 353.502C41.3411 350.457 46.8307 346.521 51.636 341.829C53.563 340.125 55.4899 338.421 57.4727 336.83C65.6273 330.239 68.3921 321.107 71.4361 311.416C74.0053 303.038 76.6863 294.158 83.277 287.288C91.1803 278.91 101.15 273.324 110.785 267.906C115.588 265.114 120.531 262.321 125.083 259.305C157.308 238.137 190.893 219.115 225.62 202.362C252.541 189.069 279.351 174.436 305.267 160.472L325.067 149.749C354.809 133.774 381.842 120.342 407.73 108.557C457.998 85.7963 478.217 104.619 491.51 126.039C497.538 135.545 500.466 146.689 499.888 157.931C499.078 174.687 495.531 195.632 474.949 209.428C472.187 211.379 469.59 213.556 467.186 215.935C463.517 219.952 459.007 223.108 453.976 225.179C448.484 227.92 443.338 231.304 438.645 235.26C435.852 237.438 432.92 239.673 429.876 241.627C400.134 260.729 367.711 275.949 336.349 290.695L328.753 294.241C326.697 295.138 324.709 296.184 322.804 297.369V297.369C296.721 314.991 268.096 328.898 240.477 342.331C231.177 346.827 221.598 351.491 212.215 356.295C206.155 359.366 200.262 363.025 194.565 366.572C190.907 368.834 187.136 371.18 183.394 373.358C160.885 386.232 134.355 398.855 103.943 385.394C91.0686 379.809 79.1159 380.758 66.2696 388.801C55.853 395.336 43.0625 401.955 28.2893 401.955ZM447.525 100.793C436.578 100.793 423.871 104.256 408.847 111.098C383.07 122.771 356.093 136.232 326.379 152.262L306.551 162.986C280.635 176.949 253.798 191.611 226.848 204.876C192.219 221.584 158.736 240.569 126.619 261.707C121.956 264.835 116.985 267.655 112.153 270.42C102.658 275.81 92.8838 281.367 85.2598 289.298C79.1439 295.694 76.6863 303.764 74.0891 312.31C71.1289 321.973 68.1128 331.859 59.2879 339.092C57.3331 340.656 55.4341 342.331 53.535 344.007C48.5385 348.891 42.8213 352.979 36.5835 356.127C27.274 360.753 18.4913 366.371 10.3883 372.883L8.37754 374.615C6.57237 375.766 5.10454 377.376 4.12345 379.279C3.14236 381.182 2.68303 383.312 2.79219 385.45C3.15699 387.764 4.12282 389.941 5.59308 391.764C7.06334 393.587 8.98649 394.992 11.1702 395.839C15.7443 397.883 20.6831 398.984 25.6921 399.078C40.8284 399.944 53.9819 393.158 64.7895 386.372C78.3061 377.994 91.4875 376.737 105.088 382.769C134.299 395.727 160.103 383.411 181.998 370.872C185.74 368.722 189.482 366.404 193.169 364.142C198.922 360.567 204.87 356.853 211.042 353.753C220.425 349.006 230.032 344.342 239.332 339.79C266.895 326.385 295.408 312.561 321.324 295.107C323.341 293.816 325.461 292.695 327.664 291.756L335.12 288.153C366.398 273.464 398.737 258.272 428.395 239.282C431.328 237.411 433.981 235.288 436.913 233.054C441.823 228.941 447.204 225.426 452.943 222.581C457.64 220.619 461.853 217.655 465.287 213.896C467.793 211.413 470.502 209.143 473.385 207.11C488.857 196.749 495.95 181.976 497.095 157.791C497.572 147.088 494.713 136.5 488.913 127.491C477.91 109.562 464.924 100.793 447.525 100.793ZM27.1722 389.164C23.0733 389.197 19.0092 388.409 15.2196 386.846L14.3539 386.483V385.646C14.3539 374 31.5009 366.432 45.0732 360.344C49.2432 358.627 53.2925 356.63 57.1934 354.368L58.5339 353.474C59.3996 352.646 60.4267 352.005 61.5511 351.592C62.6754 351.179 63.8729 351.002 65.0688 351.072C66.076 351.316 67.0201 351.77 67.8386 352.405C68.657 353.041 69.3311 353.843 69.8163 354.759C71.0481 356.591 71.8831 358.66 72.2679 360.834C72.6526 363.008 72.5786 365.238 72.0505 367.381C71.728 368.376 71.1793 369.281 70.4476 370.028C69.7159 370.774 68.8211 371.34 67.8335 371.682C64.1941 373.207 60.8195 375.3 57.8358 377.882C55.1038 380.197 52.1034 382.175 48.8992 383.774V383.774C42.1197 387.088 34.7143 388.925 27.1722 389.164V389.164ZM17.2303 384.64C25.6083 387.768 35.8574 386.623 47.7263 381.261C50.7251 379.729 53.5364 377.854 56.1043 375.676C59.3709 372.913 63.0569 370.688 67.0237 369.085C67.5966 368.866 68.1112 368.517 68.5278 368.067C68.9443 367.616 69.2514 367.076 69.4254 366.488C69.8185 364.735 69.8453 362.92 69.5041 361.156C69.163 359.393 68.4611 357.718 67.4426 356.239C66.521 354.731 65.6273 353.893 64.6499 353.725C63.6724 353.558 61.8572 354.535 60.2654 355.68L58.869 356.63C54.8337 358.968 50.6444 361.03 46.33 362.801C33.8188 368.387 18.3195 375.285 17.2303 384.64ZM131.953 377.714C125.581 377.746 119.325 376.005 113.885 372.688C108.914 369.386 103.095 367.592 97.1287 367.521C95.8642 367.61 94.6054 367.284 93.5423 366.594C92.4792 365.904 91.6697 364.886 91.2361 363.695C88.8065 355.987 98.4133 351.519 104.138 348.838L106.093 347.917C116.314 342.806 119.442 346.213 125.111 352.413L127.29 354.787C137.008 365.064 147.592 359.813 158.819 354.256L160.522 353.418C186.187 340.823 211.209 327.362 230.144 317.113C234.25 314.783 238.23 312.238 242.068 309.489C244.693 307.702 247.374 305.831 250.055 304.183C253.828 301.973 257.791 300.104 261.896 298.598C264.326 297.648 266.867 296.643 269.213 295.498C272.704 293.822 276.083 291.784 279.686 289.606C282.087 288.153 284.517 286.813 286.975 285.333C300.519 277.876 313.142 271.369 325.597 265.226C342.074 257.183 358.355 248.106 374.078 239.337L376.312 238.081C384.411 233.585 392.593 229.144 400.72 224.732C403.176 223.704 405.238 221.914 406.6 219.627C407.963 217.339 408.554 214.674 408.288 212.025C407.718 208.831 406.712 205.73 405.3 202.809C402.507 195.939 399.575 188.846 403.485 185.132C406.864 181.948 415.661 180.244 421.47 179.099L423.369 178.736C425.072 178.373 426.943 178.038 428.954 177.675C440.627 175.525 456.601 172.593 461.907 163.712C463.063 161.507 463.713 159.072 463.81 156.584C463.906 154.096 463.447 151.618 462.466 149.33C461.945 147.131 460.954 145.071 459.561 143.292C458.167 141.513 456.405 140.057 454.395 139.025C452.41 138.379 450.307 138.18 448.237 138.44C446.166 138.701 444.178 139.415 442.415 140.533C434.204 144.778 427.893 151.703 421.777 158.406L418.454 162.036L417.448 163.125C413.064 167.873 405.747 175.832 399.296 175.385C398.085 175.267 396.919 174.867 395.891 174.217C394.863 173.567 394.002 172.686 393.375 171.643C392.095 169.674 391.001 167.589 390.108 165.415C387.818 160.417 385.668 155.669 380.194 154.831C376.424 154.738 372.714 155.79 369.554 157.847C368.576 158.322 367.627 158.825 366.761 159.244C363.047 160.891 359.472 162.93 356.009 164.829C353.608 166.197 351.178 167.622 348.693 168.822C341.627 172.453 334.729 176.782 328.111 180.971C319.1 186.989 309.621 192.275 299.765 196.777C284.042 203.48 268.403 212.053 253.267 220.347C247.039 223.782 240.812 227.189 234.612 230.457C226.206 234.841 217.828 238.974 209.701 243.219C197.05 249.726 183.981 256.457 171.302 263.382C158.093 270.587 146.671 277.346 136.394 283.685C133.238 285.64 129.887 287.343 126.647 288.963C120.084 292.314 113.633 295.47 108.914 301.056C104.669 305.971 106.596 311.081 108.634 316.499C110.673 321.917 112.851 327.67 108.467 333.255C105.674 336.746 100.424 338.84 95.7882 340.432C93.8381 341.108 91.9269 341.891 90.0632 342.778C84.9526 345.403 81.4618 345.766 79.3952 343.867C76.7701 341.438 77.2448 335.74 80.8753 326.916C82.2174 323.433 83.3094 319.858 84.1427 316.22C86.0697 308.707 88.0525 300.944 94.5873 294.995C111.49 280.071 129.686 266.678 148.961 254.976C172.475 240.371 197.414 228.111 221.57 216.27C236.706 208.814 252.29 201.134 267.51 192.923C306.802 171.699 346.458 149.916 381.451 130.73L382.344 130.228C399.352 120.844 420.66 109.171 440.711 106.099C458.584 103.306 474.223 112.829 482.182 131.457C491.063 151.899 489.108 181.725 470.509 196.386C449.452 212.947 425.575 231.713 398.514 246.961C390.89 250.759 383.21 254.502 375.474 258.132C357.35 266.929 338.611 276.061 320.514 286.059C303.088 295.61 285.439 305.608 268.375 315.075L263.209 317.867C252.038 324.039 240.532 329.262 229.278 334.316C218.023 339.371 207.104 344.286 196.436 350.179L192.694 352.441C186.606 355.764 180.294 359.227 174.569 363.081C165.621 368.517 155.945 372.654 145.833 375.369L145.47 375.508C141.106 376.94 136.546 377.684 131.953 377.714V377.714ZM97.4917 364.728C103.843 364.897 110.023 366.831 115.337 370.314C119.705 372.885 124.592 374.447 129.641 374.887C134.69 375.327 139.774 374.632 144.52 372.855H144.911C154.74 370.201 164.142 366.168 172.838 360.875C178.675 356.993 185.042 353.502 191.158 350.123L195.012 348C205.764 342.08 217.102 336.83 228.049 332.054C238.996 327.279 250.837 321.805 261.757 315.717L266.923 312.924C283.986 303.373 301.636 293.376 319.09 283.908C337.243 273.967 356.009 264.835 374.162 255.982C381.897 252.212 389.577 248.469 397.118 244.811C423.927 229.703 447.721 210.992 468.722 194.543C486.232 180.747 487.991 152.374 479.557 132.909C471.961 114.924 457.998 106.378 441.242 108.864C421.693 111.964 400.553 123.414 383.657 132.685L382.763 133.16C347.771 152.374 308.115 174.156 268.822 195.381C253.574 203.759 237.935 211.327 222.771 218.755C198.698 230.596 173.815 242.828 150.413 257.35C131.275 268.918 113.201 282.161 96.4026 296.922C90.51 302.312 88.6948 309.322 86.7958 316.75C85.934 320.549 84.8048 324.282 83.4166 327.921C79.9258 336.299 80.0096 340.628 81.2384 341.884C82.4671 343.141 85.0085 342.303 88.7227 340.376C90.6845 339.434 92.6985 338.604 94.7549 337.891C99.0556 336.299 103.887 334.484 106.233 331.579C109.64 327.362 107.936 322.894 105.981 317.616C103.831 312.031 101.429 305.552 106.735 299.38C112.029 293.903 118.374 289.553 125.391 286.589C128.574 284.998 131.87 283.35 134.914 281.451C145.218 274.944 156.696 268.297 169.962 261.064C182.668 254.139 195.766 247.408 208.417 240.873C216.664 236.647 224.884 232.384 233.076 228.083C239.276 224.816 245.475 221.436 251.703 218.029C266.895 209.651 282.618 201.078 298.452 194.32C308.159 189.862 317.497 184.642 326.379 178.709C333.082 174.492 340.007 170.135 347.185 166.449C349.614 165.192 352.016 163.852 354.39 162.511C357.908 160.528 361.539 158.462 365.365 156.758L368.158 155.39C371.826 153.054 376.131 151.922 380.473 152.15C387.455 153.211 390.136 159.104 392.51 164.298C393.351 166.325 394.359 168.277 395.526 170.135C395.929 170.825 396.487 171.411 397.156 171.847C397.825 172.283 398.586 172.558 399.38 172.648C404.462 173.039 411.472 165.387 415.242 161.282L416.275 160.193L419.571 156.591C425.854 149.693 432.333 142.627 440.99 138.131C443.107 136.812 445.492 135.982 447.97 135.701C450.449 135.421 452.959 135.698 455.317 136.511C457.676 137.664 459.76 139.311 461.427 141.339C463.094 143.368 464.305 145.731 464.979 148.268C466.096 150.946 466.603 153.839 466.463 156.738C466.323 159.636 465.54 162.467 464.17 165.024C458.221 175.106 442.191 178.066 429.345 180.412C427.39 180.775 425.575 181.11 423.76 181.473L421.833 181.836C417.001 182.786 407.869 184.629 405.244 187.17C402.619 189.712 405.244 196.023 407.73 201.748C409.261 204.951 410.333 208.355 410.913 211.858C411.245 215.01 410.576 218.187 409.003 220.938C407.429 223.69 405.03 225.877 402.144 227.189C393.99 231.565 385.854 236.014 377.736 240.538L375.53 241.767C359.752 250.564 343.442 259.668 326.91 267.739C314.482 273.799 301.776 280.362 288.427 287.762C285.969 289.103 283.595 290.555 281.222 291.979C277.731 294.102 274.1 296.28 270.498 298.039C268.068 299.184 265.499 300.218 262.985 301.195C259.048 302.627 255.245 304.403 251.619 306.501C248.994 308.121 246.341 309.964 243.744 311.724C239.824 314.531 235.759 317.132 231.568 319.515C212.606 329.82 187.555 343.309 161.751 355.82L160.075 356.658C148.905 362.243 136.394 368.359 125.251 356.658L122.877 354.312C117.292 348.28 115.504 346.241 107.182 350.402L105.144 351.379C100.256 353.669 92.046 357.495 93.7495 362.829C93.9958 363.447 94.4377 363.967 95.0076 364.31C95.5775 364.653 96.244 364.8 96.9052 364.728H97.4917ZM138.656 357.216C136.661 357.245 134.682 356.855 132.847 356.071C130.715 354.995 128.841 353.469 127.356 351.598C125.871 349.727 124.81 347.557 124.246 345.236C122.095 338.673 126.172 336.355 129.831 334.344C130.78 333.786 131.786 333.227 132.624 332.557C136.657 329.898 140.964 327.679 145.47 325.938C147.788 324.961 150.161 323.955 152.479 322.782C153.345 322.364 154.211 321.889 155.077 321.386C159.238 318.984 163.455 316.415 167.476 313.93C173.313 310.299 179.373 306.585 185.601 303.234C192.666 299.436 199.955 295.694 206.992 292.063C220.453 285.193 234.361 278.1 247.458 270.085C279.099 250.843 310.293 232.356 343.777 217.555C350.06 214.567 356.126 211.142 361.93 207.305C371.537 201.301 381.479 195.074 392.091 192.895C397.676 191.75 400.469 197.727 402.396 201.692L403.038 202.949C406.138 209.009 405.468 218.169 399.575 222.246C392.112 227.641 384.155 232.317 375.809 236.21C366.649 240.147 357.713 245.034 349.838 249.363C344.922 252.156 339.84 254.446 334.897 256.736C330.819 258.663 326.519 260.646 322.497 262.768C315.292 266.566 308.059 270.587 301.077 274.469C297.503 276.452 293.928 278.463 290.298 280.446C286.667 282.428 282.869 284.663 279.127 286.813C275.385 288.963 271.14 291.477 267.063 293.683C260.975 297.006 254.887 300.413 248.827 303.792C239.667 309.126 230.088 314.488 220.621 319.487C218.051 320.828 215.482 322.112 212.885 323.397L207.3 326.19C205.24 327.172 203.123 328.03 200.96 328.759C198.215 329.595 195.581 330.758 193.113 332.222C183.38 338.544 173.197 344.145 162.645 348.978L158.93 350.709C152.312 353.809 145.218 357.216 138.656 357.216V357.216ZM153.792 325.268C151.39 326.497 148.961 327.53 146.615 328.507C142.282 330.165 138.143 332.29 134.271 334.847C133.301 335.542 132.294 336.185 131.255 336.774C127.429 338.924 125.67 340.153 127.01 344.37C127.462 346.31 128.324 348.132 129.537 349.712C130.751 351.292 132.289 352.593 134.048 353.53C140.555 356.322 149.687 351.994 157.758 348.196L161.416 346.548C171.862 341.717 181.934 336.117 191.549 329.792C194.187 328.217 196.998 326.952 199.927 326.022C201.988 325.355 204.003 324.552 205.959 323.62L211.544 320.828C214.114 319.571 216.683 318.286 219.196 316.946C228.719 311.975 238.298 306.613 247.542 301.446C253.63 298.039 259.718 294.66 265.806 291.309C269.855 289.131 273.905 286.757 277.787 284.495C281.668 282.233 285.215 280.166 288.957 278.072C292.699 275.977 296.162 274.106 299.737 272.123C306.719 268.214 313.952 264.192 321.185 260.394C325.346 258.216 329.563 256.233 333.724 254.306C338.611 252.016 343.666 249.642 348.497 246.989C356.428 242.633 365.421 237.718 374.692 233.724C382.88 229.871 390.679 225.242 397.983 219.9C402.675 216.689 403.094 209.177 400.552 204.206L399.91 202.893C397.816 198.676 395.721 194.962 392.649 195.576C382.512 197.699 372.793 203.759 363.41 209.54C357.496 213.436 351.319 216.916 344.922 219.956C311.634 234.841 280.523 253.301 248.966 272.514C235.757 280.529 221.821 287.679 208.333 294.577C201.295 298.179 194.034 301.893 186.969 305.747C180.825 309.07 174.821 312.757 168.984 316.359C164.935 318.845 160.746 321.442 156.529 323.872C155.607 324.402 154.714 324.877 153.736 325.324L153.792 325.268ZM118.967 327.781C117.996 327.814 117.034 327.592 116.175 327.139C112.488 325.156 111.315 320.046 110.366 315.968C110.18 315.075 109.984 314.265 109.779 313.539C108.104 307.59 112.851 301.111 118.325 297.285C118.646 297.105 118.915 296.845 119.107 296.531C119.61 295.163 120.559 295.191 122.626 295.303C123.599 295.401 124.517 295.802 125.251 296.448C125.429 296.594 125.626 296.717 125.837 296.811C125.982 296.78 126.117 296.713 126.228 296.615C126.376 296.257 126.48 295.882 126.536 295.498C126.622 294.656 126.92 293.849 127.401 293.152C128.1 292.095 129.063 291.238 130.194 290.667C130.529 290.471 130.948 290.22 131.506 289.829C134.446 287.922 137.527 286.242 140.722 284.802C143.777 283.417 146.726 281.812 149.547 279.999C150.144 279.593 150.673 279.093 151.111 278.519C151.596 277.816 152.282 277.276 153.08 276.972C153.878 276.668 154.75 276.613 155.579 276.815C156.809 277.086 157.912 277.765 158.707 278.742C159.238 279.245 159.908 279.915 160.299 279.915C160.571 280.003 160.864 280.003 161.137 279.915C161.262 279.279 161.262 278.624 161.137 277.988C160.838 276.617 160.995 275.185 161.584 273.911C163.175 271.314 167.811 269.079 173.704 266.454C175.296 265.756 176.72 265.114 177.669 264.611C178.619 264.108 179.485 263.466 180.602 262.712C184.316 259.975 187.109 258.188 189.231 258.356C190.888 258.666 192.366 259.594 193.364 260.953C194.174 261.791 195.04 262.712 195.682 262.628C195.999 262.639 196.308 262.529 196.548 262.321C196.939 261.846 196.799 260.366 196.687 259.165C196.286 257.437 196.524 255.621 197.358 254.055C199.005 251.821 203.725 250.089 207.858 248.469C209.478 247.883 210.958 247.352 211.88 246.906C212.801 246.459 214.365 245.537 215.789 244.671C218.553 242.772 221.61 241.338 224.838 240.427C226.596 240.224 228.377 240.484 230.004 241.181C231.057 241.622 232.185 241.859 233.327 241.879C235.254 241.879 235.45 241.013 235.757 238.695C235.833 237.042 236.396 235.448 237.377 234.115C240.169 231.071 245.755 228.53 250.754 226.547C253.183 225.514 255.473 224.564 257.121 223.754C258.084 223.17 259.016 222.537 259.914 221.855C263.823 219.063 267.007 216.829 269.381 217.331C270.733 217.761 271.872 218.69 272.564 219.928C273.598 221.381 273.961 221.632 274.659 221.464C275.357 221.297 275.413 221.129 274.659 218.392C274.015 216.73 274.015 214.888 274.659 213.226C276.586 209.986 282.702 208.087 288.092 206.412C289.78 205.941 291.44 205.372 293.063 204.708C294.124 204.234 295.185 203.731 296.218 203.144C297.288 202.498 298.305 201.77 299.262 200.966C301.256 199.108 303.656 197.74 306.272 196.973C307.396 196.922 308.51 197.212 309.467 197.805C310.424 198.398 311.179 199.266 311.634 200.296C311.941 200.743 312.527 201.608 312.779 201.664C312.953 201.709 313.135 201.709 313.309 201.664C313.309 201.497 313.309 200.38 313.309 199.626C313.137 198.112 313.29 196.579 313.756 195.129C315.147 192.332 317.453 190.095 320.291 188.79L322.19 187.617C324.177 186.242 326.088 184.759 327.915 183.177C330.203 181.101 332.67 179.232 335.288 177.591L335.93 177.228C337.932 175.609 340.488 174.837 343.051 175.078C344.057 175.385 345.006 176.586 347.939 181.194L348.19 181.557C348.465 181.006 348.608 180.399 348.608 179.784C348.608 179.168 348.465 178.561 348.19 178.01C347.846 177.114 347.686 176.157 347.719 175.198C347.753 174.238 347.979 173.295 348.385 172.425C351.01 167.119 361.511 162.846 367.543 160.78L369.526 160.053C373.966 158.434 378.155 156.898 382.707 160.64C385.5 162.874 391.811 170.386 391.365 175.581C390.974 179.881 384.969 183.819 381.004 186.416L379.803 187.366C372.453 192.007 364.728 196.024 356.708 199.374C351.932 201.497 347.017 203.731 342.549 206.105C328.222 213.701 314.203 221.185 300.072 228.949C286.416 236.461 273.011 244.671 260.053 252.603C248.547 259.724 236.483 267.069 224.475 273.939C208.165 283.099 190.962 291.365 174.569 299.38L162.449 305.272C155.635 308.596 148.877 312.617 142.314 316.443L137.874 319.068C137.287 319.403 136.533 319.906 135.64 320.465C129.58 324.207 123.408 327.781 118.967 327.781V327.781ZM121.453 298.011C121.062 298.632 120.537 299.156 119.917 299.547C115.421 302.703 111.176 308.149 112.46 312.757C112.684 313.511 112.879 314.377 113.103 315.326C113.913 318.873 114.918 323.285 117.487 324.682C120.727 326.441 130.138 320.52 134.243 318.007C135.137 317.421 135.919 316.946 136.533 316.583L140.974 313.958C147.564 310.048 154.406 305.999 161.304 302.619L173.424 296.727C189.929 288.74 206.937 280.474 223.19 271.369C235.143 264.667 247.123 257.406 258.713 250.229C271.699 242.27 285.131 234.031 298.843 226.491C313.002 218.728 327.021 211.243 341.348 203.647C345.9 201.217 350.871 198.983 355.674 196.805C363.545 193.539 371.122 189.606 378.323 185.048L379.719 184.126C382.819 182.116 388.544 178.345 388.823 175.385C389.158 171.783 384.048 165.22 381.171 162.846C377.876 160.053 374.888 161.226 370.755 162.846L368.688 163.6C359.277 166.812 352.714 170.638 351.15 173.821C350.908 174.381 350.783 174.985 350.783 175.595C350.783 176.205 350.908 176.808 351.15 177.368C351.679 178.672 351.774 180.112 351.422 181.475C351.07 182.838 350.29 184.051 349.195 184.936L348.721 185.411H348.05C347.296 185.411 347.185 185.132 345.732 182.842C344.682 181.079 343.486 179.407 342.158 177.843C341.18 177.536 338.779 178.988 337.522 179.77L336.824 180.189C334.357 181.734 332.021 183.481 329.842 185.411C327.941 187.07 325.945 188.618 323.866 190.047L321.883 191.303C319.575 192.327 317.671 194.084 316.465 196.302C316.185 197.377 316.109 198.495 316.242 199.598C316.242 201.329 316.409 202.949 315.264 203.954C314.869 204.247 314.412 204.447 313.929 204.539C313.445 204.631 312.947 204.613 312.472 204.485C311.247 204.016 310.248 203.097 309.679 201.916C308.674 200.408 308.059 199.709 306.886 199.849C304.811 200.603 302.91 201.772 301.301 203.284C300.208 204.157 299.061 204.959 297.866 205.686C296.777 206.3 295.66 206.831 294.515 207.361C293.23 207.92 291.387 208.506 289.237 209.177C284.796 210.545 278.764 212.416 277.368 214.762C277.033 215.32 277.368 216.745 277.647 217.89C278.122 219.928 278.932 223.475 275.525 224.257C274.505 224.46 273.447 224.314 272.52 223.843C271.593 223.372 270.851 222.603 270.414 221.66C269.939 220.962 269.437 220.263 268.962 220.18C267.621 219.9 263.767 222.721 261.701 224.229C260.734 224.973 259.727 225.663 258.685 226.296C256.458 227.402 254.174 228.39 251.843 229.256C247.095 231.267 241.705 233.557 239.499 236.098C238.882 237.036 238.543 238.131 238.522 239.254C238.242 241.376 237.823 244.616 233.467 244.839C231.974 244.841 230.495 244.557 229.11 244.001C227.937 243.405 226.626 243.135 225.312 243.219C222.438 244.102 219.716 245.42 217.241 247.129C215.733 248.051 214.449 248.916 213.108 249.503C211.768 250.089 210.567 250.564 208.836 251.178C205.624 252.351 200.765 253.971 199.62 255.675C199.319 256.724 199.319 257.837 199.62 258.886C200.048 260.653 199.768 262.518 198.838 264.081C198.488 264.48 198.059 264.803 197.579 265.028C197.098 265.254 196.576 265.378 196.045 265.393C195.105 265.368 194.185 265.116 193.363 264.659C192.542 264.202 191.843 263.553 191.325 262.768C190.544 261.958 189.734 261.092 189.063 261.037C186.488 261.779 184.092 263.043 182.026 264.751C180.853 265.561 179.736 266.343 178.87 266.817C178.004 267.292 176.385 268.018 174.709 268.744C170.883 270.476 165.102 273.045 163.846 275.112C163.64 275.871 163.64 276.67 163.846 277.429C164.027 278.124 164.059 278.849 163.939 279.557C163.819 280.265 163.549 280.939 163.147 281.535C162.789 281.907 162.353 282.196 161.87 282.379C161.387 282.563 160.87 282.637 160.355 282.596C158.967 282.422 157.704 281.71 156.836 280.613C156.333 280.138 155.719 279.524 155.356 279.496C154.071 279.329 153.96 279.496 153.345 280.194C152.748 280.972 152.031 281.65 151.223 282.205C148.286 284.092 145.215 285.763 142.035 287.204C138.968 288.582 136.009 290.188 133.182 292.007C132.54 292.454 132.065 292.733 131.702 292.957C130.915 293.374 130.251 293.99 129.775 294.744C129.628 295.112 129.524 295.497 129.468 295.889C129.423 296.43 129.268 296.957 129.014 297.437C128.759 297.917 128.41 298.34 127.988 298.682C127.372 299.159 126.603 299.394 125.826 299.343C125.049 299.291 124.318 298.957 123.771 298.402C123.467 298.119 123.09 297.925 122.682 297.844L121.453 298.011ZM419.124 173.989L416.555 172.872C419.347 166.616 435.796 149.916 446.408 149.162C447.926 148.976 449.466 149.239 450.836 149.919C452.206 150.599 453.346 151.666 454.116 152.988C455.007 154.17 455.582 155.559 455.787 157.025C455.993 158.491 455.821 159.985 455.289 161.366C452.496 167.314 441.326 169.13 431.551 170.777C428.432 171.214 425.337 171.81 422.28 172.565C419.487 173.347 419.152 173.989 419.124 174.073V173.989ZM447.051 151.927H446.492C439.008 152.429 427.39 162.762 421.861 169.66C424.346 168.99 427.586 168.459 430.993 167.901C439.706 166.449 450.541 164.689 452.636 160.081C452.938 159.137 453.002 158.133 452.821 157.159C452.641 156.184 452.222 155.269 451.603 154.496C451.171 153.7 450.528 153.04 449.744 152.586C448.961 152.133 448.067 151.905 447.162 151.927H447.051Z" fill="#231F20"/>
</g>
<defs>
<clipPath id="clip0">
<rect width="500" height="500" fill="white"/>
</clipPath>
</defs>
</svg>
